<?xml version="1.0" encoding="utf-8"?>
<!-- Generator: Adobe Illustrator 22.0.1, SVG Export Plug-In . SVG Version: 6.00 Build 0)  -->
<svg version="1.1" xmlns="http://www.w3.org/2000/svg" xmlns:xlink="http://www.w3.org/1999/xlink" x="0px" y="0px"
	 viewBox="0 0 750 500" style="enable-background:new 0 0 750 500;" xml:space="preserve">
<g id="Background_Complete">
	<g>
		<g>
			<path style="fill:#F5F5F5;" d="M269.44,387.29c0,4.15-3.36,7.51-7.51,7.51c-4.15,0-7.51-3.36-7.51-7.51
				c0-4.15,3.36-7.51,7.51-7.51C266.07,379.78,269.44,383.14,269.44,387.29z"/>
		</g>
	</g>
	<g>
		<g>
			<path style="fill:#F4F4AE;" d="M601.56,85.83c-3.4,4.69-5.96,2.25-15.15,7.62c-5,2.93-7.4,9.72-6.23,15.39
				c1.17,5.67,6.2,10.7,11.99,10.63c3.74-0.05,7.13-2.05,10.65-3.31c3.52-1.26,7.94-1.59,10.54,1.1c3.65,3.78,1.12,10.44-0.73,14.7
				c-0.76,1.76-1.21,3.67-1.12,5.58c0.42,8.58,9.2,8.64,13.98,4.94c3.63-2.81,5.74-7.1,8.42-10.83c2.68-3.73,6.59-7.23,11.18-7.04
				c4.94,0.2,8.57,4.45,12.23,7.78c3.66,3.33,9.41,5.99,13.28,2.91c2.9-2.3,3.07-6.66,2.3-10.28c-0.77-3.62-2.24-7.24-1.7-10.9
				c0.68-4.61,4.17-7.83,8.35-10.25c4.48-2.6,3.93-9.35-0.97-11.05c-0.04-0.01-0.07-0.03-0.11-0.04c-3.7-1.25-7.71-1.49-11.33-2.97
				c-3.62-1.48-6.97-4.8-6.65-8.69c0.38-4.62,5.7-7.97,3.68-13.15c-1.13-2.91-4.03-4.75-7.15-4.85c-7-0.23-11.66,4.83-16.79,8.66
				c-4.15,3.09-9.67,5.53-14.39,3.4c-5.31-2.41-6.96-9.37-11.73-12.72c-4.33-3.05-10.96-2.14-14.31,1.96s-2.92,10.78,0.93,14.42
				C600.73,78.84,604.62,81.63,601.56,85.83z"/>
		</g>
	</g>
	<g>
		<g>
			<g>
				
					<rect x="666.95" y="228.38" transform="matrix(0.8646 0.5024 -0.5024 0.8646 231.551 -298.3204)" style="fill:#E0E0E0;" width="4.81" height="104.28"/>
			</g>
		</g>
		<g>
			<g>
				<path style="fill:#EBEBEB;" d="M632.76,199.95l-51.52,88.66c-0.02,0.03-0.01,0.08,0.03,0.09l59.53,34.59
					c0.03,0.02,0.08,0.01,0.09-0.03l51.52-88.66c0.02-0.03,0.01-0.08-0.03-0.09l-59.53-34.59
					C632.82,199.91,632.77,199.92,632.76,199.95z"/>
			</g>
		</g>
		<g>
			<g>
				<g>
					<path style="fill:#E0E0E0;" d="M641.08,324.39L580.17,289c-0.03-0.02-0.04-0.06-0.03-0.09l52.32-90.04
						c0.02-0.03,0.06-0.04,0.09-0.03l60.91,35.39c0.03,0.02,0.04,0.06,0.03,0.09l-52.32,90.04
						C641.16,324.4,641.11,324.41,641.08,324.39z M582.35,288.42l58.15,33.79c0.03,0.02,0.08,0.01,0.09-0.03l50.72-87.28
						c0.02-0.03,0.01-0.08-0.03-0.09l-58.15-33.79c-0.03-0.02-0.08-0.01-0.09,0.03l-50.72,87.28
						C582.31,288.36,582.32,288.4,582.35,288.42z"/>
				</g>
			</g>
		</g>
		<g>
			<g>
				<path style="fill:#FFFFFF;" d="M635.58,208.92l-45.12,77.65c-0.02,0.03-0.01,0.08,0.03,0.09l47.62,27.67
					c0.03,0.02,0.08,0.01,0.09-0.02l45.12-77.65c0.02-0.03,0.01-0.08-0.03-0.09l-47.62-27.67
					C635.64,208.87,635.6,208.89,635.58,208.92z"/>
			</g>
		</g>
		<g>
			<g>
				<path style="fill:#EBEBEB;" d="M641.71,283.92l-26.7-15.51c-0.03-0.02-0.04-0.06-0.02-0.09l18.19-31.31
					c0.02-0.03,0.06-0.04,0.09-0.02l26.7,15.51c0.03,0.02,0.04,0.06,0.02,0.09L641.8,283.9
					C641.78,283.93,641.74,283.94,641.71,283.92z"/>
			</g>
		</g>
		<g>
			<g>
				<g>
					<path style="fill:#E0E0E0;" d="M641.88,278.88c-0.02,0.12-1.68-0.07-4.03-1.83c-1.14-0.89-2.43-2.23-3.28-4.2
						c-0.83-1.95-1.19-4.52-0.29-7.16c0.87-2.63,3.36-5.1,6.7-5.67c0.83-0.14,1.71-0.16,2.58-0.01c0.93,0.16,1.81,0.55,2.57,1.12
						c0.76,0.57,1.46,1.36,1.8,2.45c0.35,1.1,0.1,2.47-0.68,3.36c-0.77,0.92-1.77,1.37-2.72,1.64c-0.98,0.27-1.94,0.33-2.88,0.31
						c-1.9-0.04-3.84-0.5-5.62-1.42c-1.77-0.92-3.38-2.33-4.46-4.15c-1.07-1.81-1.63-3.94-1.5-6.11c0.11-2.16,1.01-4.34,2.51-5.88
						c1.48-1.55,3.44-2.56,5.52-2.84c1.04-0.14,2.1-0.08,3.13,0.18c1.03,0.29,1.98,0.78,2.78,1.5c0.79,0.71,1.45,1.69,1.66,2.84
						c0.22,1.14-0.05,2.31-0.57,3.21c-0.51,0.91-1.27,1.65-2.11,2.15c-0.84,0.5-1.73,0.79-2.6,0.95c-1.73,0.31-3.41,0.2-4.97-0.19
						c-1.56-0.39-2.99-1.09-4.17-2.01c-1.18-0.93-2.12-2.11-2.7-3.35c-1.2-2.49-1.15-5.19-0.26-7.19c0.89-2.05,2.5-3.21,3.85-3.79
						c1.38-0.59,2.58-0.61,3.33-0.5c0.76,0.13,1.12,0.34,1.1,0.41c-0.02,0.1-0.41,0.06-1.12,0.1c-0.7,0.06-1.74,0.23-2.88,0.87
						c-1.11,0.63-2.38,1.75-2.96,3.43c-0.61,1.66-0.52,3.87,0.55,5.85c1.02,1.98,3.15,3.57,5.75,4.12c1.29,0.28,2.71,0.32,4.05,0.05
						c1.33-0.28,2.52-0.94,3.08-2.03c0.59-1.08,0.35-2.21-0.66-3.09c-0.49-0.43-1.13-0.76-1.8-0.94c-0.67-0.16-1.42-0.2-2.16-0.09
						c-1.47,0.21-2.94,0.97-4.02,2.11c-1.08,1.13-1.71,2.64-1.8,4.28c-0.1,1.63,0.33,3.29,1.14,4.67c0.8,1.38,2.03,2.48,3.43,3.23
						c1.4,0.75,2.98,1.15,4.52,1.2c0.78,0.02,1.54-0.02,2.2-0.19c0.66-0.17,1.23-0.47,1.54-0.83c0.31-0.36,0.39-0.78,0.28-1.22
						c-0.12-0.45-0.49-0.95-0.96-1.32c-0.47-0.38-1.04-0.64-1.59-0.75c-0.61-0.12-1.25-0.13-1.87-0.05
						c-1.24,0.17-2.41,0.71-3.33,1.47c-0.93,0.76-1.59,1.71-2.01,2.74c-0.83,2.08-0.67,4.3-0.08,6.01c0.62,1.73,1.65,3.04,2.61,3.97
						C640.46,278.15,641.97,278.68,641.88,278.88z"/>
				</g>
			</g>
		</g>
	</g>
	<g>
		<path style="fill:#F2B9B3;" d="M284.45,92.97c0,0,1.98,2.55,1.3,4.27c-0.68,1.72-9.22,14.08-5.51,22.2
			c3.7,8.12,10.81,16.86,10.81,16.86l21.01-0.83c0,0,9.7-16.73,9.27-22.16c-0.71-9-7.67-18.11-7.67-18.11l1.56-3.44
			C315.22,91.76,295.49,86.9,284.45,92.97z"/>
	</g>
	<g>
		<g>
			<path style="fill:#F2B9B3;" d="M351.24,46.96l1,11.7c0,0-12.46,3.99-14.73,15.77c-2.27,11.77-1.46,37.33-1.46,37.33l17.56,5.81
				c0,0,19.3-28.87,20.82-34.16c1.52-5.3-2.61-18.03-2.61-18.03l7.43-9.14C379.25,56.23,366.75,41.43,351.24,46.96z"/>
		</g>
		<g>
			<g>
				<path style="fill:#F2B9B3;" d="M339.18,80.31c-2.38-4.18-5.34-9.39-5.02-15.03c0.15-2.64,1.14-4.71,2.78-5.82
					c1.56-1.06,3.74-1.23,5.84-0.47c1.78,0.65,3.29,1.86,4.5,2.83l-1.52,1.89c-1.13-0.9-2.4-1.93-3.81-2.44
					c-1.34-0.5-2.74-0.42-3.65,0.2c-1.35,0.92-1.65,2.87-1.72,3.95c-0.28,4.93,2.48,9.79,4.7,13.69L339.18,80.31z"/>
			</g>
		</g>
		<g>
			<g>
				<path style="fill:#F2B9B3;" d="M369.59,91.97l-1.2-2.11c2.9-1.66,5.48-3.79,7.66-6.32c1.19-1.38,1.91-2.51,2.33-3.64
					c0.49-1.33,0.52-2.71,0.08-3.78c-0.53-1.27-1.79-2.26-3.29-2.6c-1.42-0.31-3.03-0.07-4.54,0.69l-1.09-2.17
					c2.01-1.01,4.2-1.33,6.16-0.9c2.26,0.5,4.18,2.05,5.01,4.03c0.69,1.65,0.67,3.62-0.05,5.55c-0.67,1.82-1.83,3.3-2.76,4.38
					C375.53,87.87,372.74,90.17,369.59,91.97z"/>
			</g>
		</g>
		<g>
			<g>
				<path style="fill:#F2B9B3;" d="M379.22,56.33c-0.01,0.11-1.69,0.06-4.37-0.32c-2.68-0.38-6.35-1.15-10.29-2.41
					c-3.94-1.27-7.37-2.8-9.77-4.05c-2.4-1.25-3.79-2.19-3.74-2.29c0.07-0.12,1.56,0.62,4.01,1.72c2.45,1.1,5.88,2.51,9.77,3.77
					c3.89,1.25,7.5,2.11,10.13,2.64C377.59,55.92,379.23,56.19,379.22,56.33z"/>
			</g>
		</g>
	</g>
	<g>
		<g>
			<g>
				<circle style="fill:#E0E0E0;" cx="542.47" cy="389.77" r="2.49"/>
			</g>
			<g>
				<circle style="fill:#E0E0E0;" cx="551.2" cy="399.12" r="2.49"/>
			</g>
			<g>
				<circle style="fill:#E0E0E0;" cx="537.77" cy="402.98" r="2.49"/>
			</g>
		</g>
		<g>
			<g>
				<circle style="fill:#E0E0E0;" cx="547.62" cy="411.38" r="2.49"/>
			</g>
			<g>
				<path style="fill:#E0E0E0;" d="M558.83,420.73c0,1.37-1.11,2.49-2.49,2.49c-1.37,0-2.49-1.11-2.49-2.49s1.11-2.49,2.49-2.49
					C557.72,418.24,558.83,419.35,558.83,420.73z"/>
			</g>
			<g>
				<circle style="fill:#E0E0E0;" cx="542.92" cy="424.59" r="2.49"/>
			</g>
		</g>
		<g>
			<g>
				<circle style="fill:#E0E0E0;" cx="561.74" cy="374.51" r="2.49"/>
			</g>
			<g>
				<circle style="fill:#E0E0E0;" cx="570.47" cy="383.86" r="2.49"/>
			</g>
			<g>
				<circle style="fill:#E0E0E0;" cx="557.04" cy="387.73" r="2.49"/>
			</g>
		</g>
		<g>
			<g>
				<circle style="fill:#E0E0E0;" cx="566.89" cy="396.12" r="2.49"/>
			</g>
			<g>
				<circle style="fill:#E0E0E0;" cx="575.62" cy="405.47" r="2.49"/>
			</g>
			<g>
				<circle style="fill:#E0E0E0;" cx="562.19" cy="409.33" r="2.49"/>
			</g>
		</g>
		<g>
			<g>
				<path style="fill:#E0E0E0;" d="M572.24,419.04c0,1.37-1.11,2.49-2.49,2.49c-1.37,0-2.49-1.11-2.49-2.49
					c0-1.37,1.11-2.49,2.49-2.49C571.13,416.56,572.24,417.67,572.24,419.04z"/>
			</g>
			<g>
				<circle style="fill:#E0E0E0;" cx="578.49" cy="428.39" r="2.49"/>
			</g>
			<g>
				<path style="fill:#E0E0E0;" d="M567.55,432.26c0,1.37-1.11,2.49-2.49,2.49c-1.37,0-2.49-1.11-2.49-2.49
					c0-1.37,1.11-2.49,2.49-2.49C566.44,429.77,567.55,430.88,567.55,432.26z"/>
			</g>
		</g>
		<g>
			<g>
				<path style="fill:#E0E0E0;" d="M577.39,440.65c0,1.37-1.11,2.49-2.49,2.49c-1.37,0-2.49-1.11-2.49-2.49
					c0-1.37,1.11-2.49,2.49-2.49C576.28,438.16,577.39,439.28,577.39,440.65z"/>
			</g>
			<g>
				<circle style="fill:#E0E0E0;" cx="583.64" cy="450" r="2.49"/>
			</g>
			<g>
				<circle style="fill:#E0E0E0;" cx="570.21" cy="453.86" r="2.49"/>
			</g>
		</g>
		<g>
			<g>
				<circle style="fill:#E0E0E0;" cx="589.03" cy="403.79" r="2.49"/>
			</g>
			<g>
				<circle style="fill:#E0E0E0;" cx="597.76" cy="413.14" r="2.49"/>
			</g>
			<g>
				<circle style="fill:#E0E0E0;" cx="584.34" cy="417" r="2.49"/>
			</g>
		</g>
		<g>
			<g>
				<circle style="fill:#E0E0E0;" cx="594.18" cy="425.39" r="2.49"/>
			</g>
			<g>
				<circle style="fill:#E0E0E0;" cx="602.91" cy="434.74" r="2.49"/>
			</g>
			<g>
				<circle style="fill:#E0E0E0;" cx="589.48" cy="438.6" r="2.49"/>
			</g>
		</g>
		<g>
			<g>
				<path style="fill:#E0E0E0;" d="M580.92,358.82c0,1.37-1.11,2.49-2.49,2.49c-1.37,0-2.49-1.11-2.49-2.49
					c0-1.37,1.11-2.49,2.49-2.49C579.81,356.33,580.92,357.44,580.92,358.82z"/>
			</g>
			<g>
				<circle style="fill:#E0E0E0;" cx="587.17" cy="368.17" r="2.49"/>
			</g>
			<g>
				<circle style="fill:#E0E0E0;" cx="573.74" cy="372.03" r="2.49"/>
			</g>
		</g>
		<g>
			<g>
				<path style="fill:#E0E0E0;" d="M586.07,380.42c0,1.37-1.11,2.49-2.49,2.49s-2.49-1.11-2.49-2.49c0-1.37,1.11-2.49,2.49-2.49
					S586.07,379.05,586.07,380.42z"/>
			</g>
			<g>
				<circle style="fill:#E0E0E0;" cx="592.32" cy="389.77" r="2.49"/>
			</g>
			<g>
				<path style="fill:#E0E0E0;" d="M581.38,393.63c0,1.37-1.11,2.49-2.49,2.49c-1.37,0-2.49-1.11-2.49-2.49s1.11-2.49,2.49-2.49
					C580.26,391.15,581.38,392.26,581.38,393.63z"/>
			</g>
		</g>
		<g>
			<g>
				<circle style="fill:#E0E0E0;" cx="597.71" cy="343.56" r="2.49"/>
			</g>
			<g>
				<circle style="fill:#E0E0E0;" cx="606.44" cy="352.91" r="2.49"/>
			</g>
			<g>
				<path style="fill:#E0E0E0;" d="M595.5,356.77c0,1.37-1.11,2.49-2.49,2.49s-2.49-1.11-2.49-2.49c0-1.37,1.11-2.49,2.49-2.49
					S595.5,355.4,595.5,356.77z"/>
			</g>
		</g>
		<g>
			<g>
				<circle style="fill:#E0E0E0;" cx="602.86" cy="365.16" r="2.49"/>
			</g>
			<g>
				<circle style="fill:#E0E0E0;" cx="611.59" cy="374.51" r="2.49"/>
			</g>
			<g>
				<circle style="fill:#E0E0E0;" cx="598.16" cy="378.38" r="2.49"/>
			</g>
		</g>
		<g>
			<g>
				<circle style="fill:#E0E0E0;" cx="605.73" cy="388.09" r="2.49"/>
			</g>
			<g>
				<circle style="fill:#E0E0E0;" cx="614.46" cy="397.44" r="2.49"/>
			</g>
			<g>
				<circle style="fill:#E0E0E0;" cx="601.03" cy="401.3" r="2.49"/>
			</g>
		</g>
		<g>
			<g>
				<path style="fill:#E0E0E0;" d="M613.36,409.69c0,1.37-1.11,2.49-2.49,2.49c-1.37,0-2.49-1.11-2.49-2.49
					c0-1.37,1.11-2.49,2.49-2.49C612.25,407.21,613.36,408.32,613.36,409.69z"/>
			</g>
			<g>
				<path style="fill:#E0E0E0;" d="M622.1,419.04c0,1.37-1.11,2.49-2.49,2.49c-1.37,0-2.49-1.11-2.49-2.49
					c0-1.37,1.11-2.49,2.49-2.49C620.98,416.56,622.1,417.67,622.1,419.04z"/>
			</g>
			<g>
				<circle style="fill:#E0E0E0;" cx="606.18" cy="422.9" r="2.49"/>
			</g>
		</g>
		<g>
			<g>
				<circle style="fill:#E0E0E0;" cx="625" cy="372.83" r="2.49"/>
			</g>
			<g>
				<circle style="fill:#E0E0E0;" cx="633.73" cy="382.18" r="2.49"/>
			</g>
			<g>
				<circle style="fill:#E0E0E0;" cx="620.3" cy="386.04" r="2.49"/>
			</g>
		</g>
		<g>
			<g>
				<circle style="fill:#E0E0E0;" cx="630.15" cy="394.43" r="2.49"/>
			</g>
			<g>
				<path style="fill:#E0E0E0;" d="M641.37,403.79c0,1.37-1.11,2.49-2.49,2.49c-1.37,0-2.49-1.11-2.49-2.49s1.11-2.49,2.49-2.49
					C640.25,401.3,641.37,402.41,641.37,403.79z"/>
			</g>
			<g>
				<circle style="fill:#E0E0E0;" cx="625.45" cy="407.65" r="2.49"/>
			</g>
		</g>
	</g>
	<g>
		<g>
			<path style="fill:#F4F4AE;" d="M420.09,403.48c3.62-4.52,6.06-1.97,15.48-6.92c5.13-2.69,7.84-9.37,6.93-15.09
				c-0.9-5.72-5.7-10.98-11.49-11.17c-3.74-0.13-7.21,1.72-10.79,2.81c-3.58,1.1-8.01,1.22-10.48-1.58
				c-3.47-3.94-0.64-10.48,1.41-14.65c0.84-1.72,1.38-3.61,1.37-5.53c-0.02-8.59-8.79-9.05-13.73-5.58
				c-3.76,2.64-6.06,6.83-8.91,10.44c-2.85,3.61-6.92,6.92-11.5,6.52c-4.93-0.43-8.36-4.84-11.85-8.34
				c-3.5-3.5-9.12-6.41-13.14-3.52c-3,2.17-3.38,6.51-2.77,10.16c0.61,3.65,1.91,7.34,1.2,10.97c-0.89,4.57-4.53,7.63-8.81,9.86
				c-4.6,2.39-4.35,9.16,0.46,11.08c0.04,0.01,0.07,0.03,0.11,0.04c3.64,1.42,7.63,1.85,11.18,3.49c3.55,1.64,6.75,5.12,6.24,8.99
				c-0.59,4.6-6.06,7.7-4.29,12.97c1,2.96,3.81,4.93,6.92,5.17c6.99,0.55,11.87-4.29,17.17-7.88c4.29-2.9,9.91-5.08,14.53-2.73
				c5.2,2.65,6.52,9.68,11.14,13.25c4.19,3.24,10.85,2.64,14.39-1.3c3.54-3.94,3.42-10.63-0.26-14.44
				C420.6,410.5,416.85,407.54,420.09,403.48z"/>
		</g>
	</g>
	<g>
		<g>
			<path style="fill:#F4F4AE;" d="M161.39,251c-0.79,5.74-4.19,4.79-9.75,13.87c-3.02,4.94-1.93,12.06,1.78,16.51
				c3.71,4.45,10.52,6.51,15.59,3.71c3.27-1.81,5.31-5.17,7.82-7.94c2.51-2.77,6.25-5.15,9.81-4.01c5,1.61,5.91,8.67,6.3,13.3
				c0.16,1.91,0.66,3.8,1.65,5.45c4.42,7.37,12.19,3.27,14.65-2.25c1.87-4.2,1.71-8.97,2.31-13.53c0.6-4.56,2.4-9.49,6.53-11.49
				c4.45-2.16,9.66-0.12,14.45,1.09c4.8,1.21,11.12,0.83,13.08-3.71c1.47-3.4-0.44-7.32-2.83-10.15c-2.39-2.83-5.39-5.32-6.65-8.81
				c-1.58-4.38-0.02-8.87,2.51-12.98c2.72-4.41-0.95-10.1-6.07-9.28c-0.04,0.01-0.08,0.01-0.12,0.02c-3.85,0.65-7.5,2.32-11.39,2.73
				c-3.89,0.4-8.41-0.94-9.97-4.52c-1.85-4.25,1.26-9.72-2.96-13.33c-2.37-2.03-5.8-2.28-8.59-0.9c-6.28,3.11-7.99,9.76-10.71,15.56
				c-2.2,4.69-5.91,9.44-11.08,9.79c-5.82,0.39-10.56-4.97-16.35-5.67c-5.26-0.64-10.67,3.29-11.69,8.49
				c-1.02,5.2,2.51,10.88,7.62,12.27C157.35,245.22,162.1,245.84,161.39,251z"/>
		</g>
	</g>
	<g>
		<g>
			<g>
				<g>
					<g>
						<g>
							<g>
								<g>
									<g>
										<g>
											<g>
												
													<ellipse transform="matrix(0.0391 -0.9992 0.9992 0.0391 48.9827 909.4585)" style="fill:#F2B9B3;" cx="497.38" cy="429.26" rx="12.37" ry="12.37"/>
											</g>
										</g>
									</g>
								</g>
							</g>
						</g>
					</g>
				</g>
			</g>
			<g>
				<g>
					<g>
						<g>
							<g>
								<g>
									<g>
										<g>
											<g>
												<path style="fill:#F2B9B3;" d="M493.27,428.5c-1.09,0.23-2.16-0.46-2.39-1.55c-0.23-1.09,0.46-2.16,1.55-2.39
													s2.16,0.46,2.39,1.55C495.06,427.19,494.36,428.26,493.27,428.5z"/>
											</g>
										</g>
									</g>
								</g>
							</g>
						</g>
					</g>
				</g>
			</g>
			<g>
				<g>
					<g>
						<g>
							<g>
								<g>
									<g>
										<g>
											<g>
												<path style="fill:#F2B9B3;" d="M498.37,424.48c-0.63,0.14-1.26-0.27-1.39-0.9c-0.14-0.63,0.27-1.26,0.9-1.39
													c0.63-0.14,1.26,0.27,1.39,0.9S499,424.34,498.37,424.48z"/>
											</g>
										</g>
									</g>
								</g>
							</g>
						</g>
					</g>
				</g>
			</g>
		</g>
		<g>
			<g>
				<g>
					<g>
						<g>
							<g>
								<g>
									<g>
										<g>
											<path style="fill:#F2B9B3;" d="M491.93,418.16c-0.2,0.1-12.41-8.17-13.96-5.03c-1.55,3.14,6.32,13.25,16.15,21.21
												c9.83,7.95,21.14,14.72,23.13,11.78c1.98-2.94-7.99-13.38-7.99-13.38l-0.61,1.63c0,0,6.22,6.27,4.9,8.96
												c-1.32,2.69-9.79-2.35-18.52-10.16c-8.73-7.8-15.38-15.72-13.83-17.51c1.55-1.78,9.12,3.44,9.12,3.44L491.93,418.16z"/>
										</g>
									</g>
								</g>
							</g>
						</g>
					</g>
				</g>
			</g>
		</g>
		<g>
			<g>
				<g>
					<g>
						<g>
							<g>
								<g>
									<g>
										<g>
											<g>
												<path style="fill:#F2B9B3;" d="M504.48,420.77c-0.1,0.12-0.97-0.55-2.56-1.18c-1.57-0.63-3.96-1.14-6.5-0.65
													c-2.54,0.49-4.56,1.85-5.79,3.03c-1.25,1.18-1.8,2.13-1.94,2.05c-0.1-0.04,0.26-1.14,1.45-2.52
													c0.59-0.69,1.41-1.42,2.44-2.06c1.03-0.64,2.27-1.16,3.65-1.44c1.38-0.26,2.74-0.24,3.93-0.03
													c1.19,0.21,2.22,0.58,3.03,1C503.82,419.81,504.55,420.69,504.48,420.77z"/>
											</g>
										</g>
									</g>
								</g>
							</g>
						</g>
					</g>
				</g>
			</g>
		</g>
	</g>
	<g>
		<g>
			<g>
				<path style="fill:#E0E0E0;" d="M211.78,83.57l-15.75,4.03l-0.76,4.82c-0.24,1.6-0.25,2.88,0,3.82c0.32,1.25,1.06,2.04,2.22,2.37
					c0.68,0.2,2.21,0.09,4.57-0.33l0.31,1.22l-14.83,3.79l-0.31-1.22c1.54-0.65,2.68-1.65,3.44-3c0.75-1.35,1.45-3.91,2.09-7.7
					l6.85-39.65l0.63-0.16l25.43,32.44c2.42,3.07,4.24,4.93,5.45,5.57c0.92,0.49,2.07,0.61,3.46,0.38l0.31,1.22l-21.57,5.52
					l-0.31-1.22l0.89-0.23c1.73-0.44,2.89-1,3.46-1.66c0.39-0.47,0.5-1.04,0.34-1.7c-0.1-0.39-0.27-0.78-0.51-1.17
					c-0.1-0.19-0.63-0.92-1.62-2.21L211.78,83.57z M210.04,81.42l-10.57-13.65l-2.91,17.1L210.04,81.42z"/>
			</g>
		</g>
	</g>
</g>
<g id="Background_Simple" style="display:none;">
	<g style="display:inline;">
		<path style="fill:#EBEBEB;" d="M690.74,129.02l-2.72-4.47c-22.89-37.72-64.28-60.46-107.91-57.7c-5.61,0.35-11.19,1.11-16.7,2.29
			c-39.67,8.49-74.19,38.49-88.5,76.92c-8.42,22.6-10.77,48.61-26.74,66.55c-20.78,23.34-56.07,24.08-87.09,23.11
			c-31.02-0.97-66.33-0.14-87.01,23.29c-12.95,14.68-17.07,35.55-16.02,55.2c2.77,52.04,39.03,98.57,85.14,121.7
			c46.12,23.13,100.41,25.2,150.88,15.03c70.7-14.25,137.94-53.39,178.36-113.85C712.85,276.63,723.08,194.27,690.74,129.02z"/>
	</g>
	<g style="display:inline;">
		<circle style="fill:#EBEBEB;" cx="249.61" cy="90.44" r="45.41"/>
	</g>
</g>
<g id="Paint_Brush">
	<g>
		<g>
			<path style="fill:#455A64;" d="M617.53,295.06L617.53,295.06c-1.58,0.44-3.21-0.47-3.68-2.03l-48.07-160.96l9.07-2.51
				l44.77,161.81C620.06,292.96,619.12,294.62,617.53,295.06z"/>
		</g>
		<g>
			<path style="fill:#E0E0E0;" d="M565.78,132.06c-0.31-1.11-3.83-25.99-3.83-25.99l2.83-0.78l10.07,24.26L565.78,132.06z"/>
		</g>
		<g>
			<polyline style="fill:#EB996E;" points="564.78,105.29 562.98,84.77 555.91,86.46 559.15,98.19 554.67,86.8 553.36,87.16 
				561.95,106.07 563.75,105.57 			"/>
		</g>
	</g>
</g>
<g id="Plants">
	<g>
		<g>
			<g>
				<g>
					<path style="fill:#AFDDF2;" d="M506.95,113.05c-1.22,0.81-1.74,2.35-1.79,3.81c-0.05,1.46,0.29,2.9,0.42,4.35
						c0.12,1.38,0.05,2.8,0.44,4.13c0.73,2.45,2.88,4.15,4.91,5.69c0.87-1.12,1.74-2.25,2.34-3.53c0.6-1.28,0.92-2.74,0.63-4.12
						c-0.24-1.11-0.86-2.1-1.26-3.17c-0.5-1.33-0.67-2.77-1.23-4.08c-0.78-1.79-2.33-3.23-4.18-3.88"/>
				</g>
			</g>
			<g>
				<g>
					<g>
						<path style="fill:#AFDDF2;" d="M510.19,130.22c-0.2-0.01,0.02-4.11-0.82-9.07c-0.8-4.96-2.33-8.78-2.14-8.85
							c0.07-0.03,0.55,0.88,1.13,2.45c0.58,1.56,1.23,3.78,1.64,6.3c0.41,2.52,0.51,4.83,0.46,6.49
							C510.43,129.2,510.27,130.22,510.19,130.22z"/>
					</g>
				</g>
			</g>
		</g>
		<g>
			<g>
				<g>
					<path style="fill:#AFDDF2;" d="M507.94,113.15c0.75,1.25,2.26,1.85,3.72,1.97c1.45,0.12,2.91-0.15,4.37-0.2
						c1.39-0.05,2.8,0.09,4.15-0.24c2.48-0.61,4.29-2.67,5.93-4.62c-1.07-0.92-2.16-1.85-3.41-2.51c-1.25-0.67-2.69-1.06-4.09-0.83
						c-1.12,0.18-2.14,0.75-3.22,1.1c-1.35,0.44-2.8,0.53-4.13,1.03c-1.83,0.69-3.34,2.17-4.08,3.98"/>
				</g>
			</g>
			<g>
				<g>
					<g>
						<path style="fill:#AFDDF2;" d="M525.25,110.76c-0.02,0.2-4.11-0.22-9.1,0.37c-5,0.56-8.89,1.89-8.95,1.7
							c-0.03-0.08,0.91-0.51,2.5-1.01c1.59-0.5,3.84-1.04,6.37-1.33c2.53-0.29,4.85-0.27,6.51-0.15
							C524.25,110.47,525.26,110.68,525.25,110.76z"/>
					</g>
				</g>
			</g>
		</g>
		<g>
			<g>
				<g>
					<path style="fill:#AFDDF2;" d="M506.54,112.03c0.52-1.36,0.05-2.93-0.75-4.14c-0.81-1.22-1.92-2.19-2.86-3.3
						c-0.9-1.06-1.66-2.25-2.75-3.11c-2.01-1.57-4.75-1.71-7.3-1.79c-0.06,1.41-0.11,2.84,0.14,4.23c0.25,1.39,0.84,2.77,1.88,3.72
						c0.84,0.77,1.92,1.21,2.86,1.85c1.18,0.79,2.15,1.87,3.37,2.61c1.67,1.01,3.77,1.28,5.65,0.74"/>
				</g>
			</g>
			<g>
				<g>
					<g>
						<path style="fill:#AFDDF2;" d="M493.93,99.92c0.17-0.11,2.37,3.36,5.93,6.91c3.53,3.58,6.99,5.8,6.88,5.97
							c-0.04,0.07-0.96-0.4-2.34-1.34c-1.38-0.94-3.19-2.37-4.99-4.18c-1.79-1.81-3.22-3.63-4.15-5.02
							C494.33,100.89,493.86,99.96,493.93,99.92z"/>
					</g>
				</g>
			</g>
		</g>
		<g>
			<g>
				<g>
					<path style="fill:#AFDDF2;" d="M505.87,112.84c-1.27-0.72-2.89-0.49-4.21,0.12c-1.32,0.61-2.45,1.57-3.69,2.34
						c-1.18,0.73-2.48,1.3-3.49,2.26c-1.85,1.75-2.41,4.44-2.87,6.95c1.39,0.27,2.79,0.54,4.21,0.5c1.41-0.04,2.86-0.41,3.96-1.3
						c0.88-0.72,1.49-1.71,2.26-2.55c0.96-1.05,2.18-1.85,3.08-2.94c1.25-1.5,1.83-3.54,1.58-5.48"/>
				</g>
			</g>
			<g>
				<g>
					<g>
						<path style="fill:#AFDDF2;" d="M492.01,123.48c-0.09-0.18,3.68-1.84,7.73-4.82c4.07-2.95,6.79-6.04,6.94-5.9
							c0.06,0.05-0.54,0.89-1.67,2.11c-1.13,1.22-2.82,2.8-4.88,4.31c-2.06,1.5-4.08,2.63-5.58,3.34
							C493.03,123.24,492.04,123.56,492.01,123.48z"/>
					</g>
				</g>
			</g>
		</g>
		<g>
			<g>
				<g>
					<path style="fill:#AFDDF2;" d="M508.09,111.5c1.45-0.16,2.62-1.3,3.33-2.58c0.71-1.27,1.06-2.71,1.61-4.06
						c0.52-1.28,1.24-2.51,1.49-3.88c0.47-2.51-0.67-5.01-1.77-7.31c-1.28,0.6-2.57,1.21-3.7,2.07c-1.12,0.86-2.07,2.02-2.44,3.38
						c-0.29,1.1-0.2,2.26-0.32,3.39c-0.16,1.41-0.67,2.77-0.76,4.19c-0.12,1.95,0.6,3.94,1.95,5.35"/>
				</g>
			</g>
			<g>
				<g>
					<g>
						<path style="fill:#AFDDF2;" d="M513.04,94.74c0.18,0.1-1.89,3.65-3.41,8.44c-1.55,4.78-1.94,8.88-2.14,8.85
							c-0.08-0.01-0.09-1.04,0.11-2.69c0.2-1.65,0.64-3.93,1.41-6.36c0.78-2.43,1.75-4.53,2.55-5.99
							C512.36,95.54,512.97,94.7,513.04,94.74z"/>
					</g>
				</g>
			</g>
		</g>
		<g>
			<g>
				<path style="fill:#AFDDF2;" d="M509.02,113.7c-0.57,0.78-1.67,0.96-2.45,0.39c-0.78-0.57-0.96-1.67-0.39-2.45
					c0.57-0.78,1.67-0.96,2.45-0.39C509.42,111.81,509.59,112.91,509.02,113.7z"/>
			</g>
		</g>
	</g>
	<g>
		<g>
			<g>
				<g>
					<path style="fill:#AFDDF2;" d="M279.27,378.99c-0.63,2.66,0.64,5.45,2.44,7.51c1.8,2.06,4.12,3.59,6.15,5.42
						c1.94,1.74,3.65,3.77,5.9,5.09c4.13,2.42,9.26,1.99,14.02,1.5c-0.25-2.64-0.5-5.31-1.32-7.84c-0.81-2.53-2.25-4.94-4.43-6.45
						c-1.75-1.21-3.87-1.78-5.78-2.72c-2.39-1.18-4.47-2.94-6.92-4c-3.36-1.46-7.34-1.44-10.69,0.05"/>
				</g>
			</g>
			<g>
				<g>
					<g>
						<path style="fill:#AFDDF2;" d="M305.73,398.34c-0.29,0.25-5.25-5.65-12.75-11.37c-7.46-5.77-14.45-9.04-14.28-9.38
							c0.06-0.14,1.89,0.5,4.69,1.9c2.8,1.39,6.53,3.61,10.33,6.52c3.79,2.91,6.89,5.95,8.96,8.29
							C304.76,396.65,305.85,398.25,305.73,398.34z"/>
					</g>
				</g>
			</g>
		</g>
		<g>
			<g>
				<g>
					<path style="fill:#AFDDF2;" d="M280.75,377.87c2.63,0.76,5.48-0.37,7.62-2.07c2.14-1.7,3.79-3.94,5.72-5.88
						c1.83-1.85,3.95-3.46,5.37-5.64c2.62-4.01,2.45-9.16,2.18-13.93c-2.65,0.12-5.33,0.24-7.89,0.93c-2.56,0.69-5.04,2-6.66,4.11
						c-1.3,1.69-1.96,3.78-3,5.64c-1.29,2.33-3.16,4.32-4.34,6.71c-1.62,3.29-1.8,7.26-0.48,10.68"/>
				</g>
			</g>
			<g>
				<g>
					<g>
						<path style="fill:#AFDDF2;" d="M301.38,352.39c0.24,0.3-5.91,4.97-11.98,12.18c-6.13,7.17-9.74,13.99-10.07,13.8
							c-0.14-0.07,0.59-1.86,2.13-4.59c1.53-2.72,3.93-6.35,7.02-10c3.1-3.64,6.28-6.59,8.72-8.55
							C299.64,353.28,301.29,352.27,301.38,352.39z"/>
					</g>
				</g>
			</g>
		</g>
		<g>
			<g>
				<g>
					<path style="fill:#AFDDF2;" d="M277.39,378.13c-1.03-2.53-3.68-4.07-6.35-4.7c-2.66-0.63-5.44-0.54-8.16-0.85
						c-2.59-0.29-5.17-0.95-7.76-0.72c-4.77,0.43-8.7,3.75-12.29,6.92c1.74,2.01,3.49,4.03,5.62,5.62c2.13,1.59,4.69,2.72,7.35,2.68
						c2.13-0.03,4.18-0.8,6.29-1.14c2.63-0.43,5.35-0.2,7.96-0.75c3.59-0.77,6.81-3.09,8.68-6.24"/>
				</g>
			</g>
			<g>
				<g>
					<g>
						<path style="fill:#AFDDF2;" d="M244.6,377.72c0.09-0.37,7.56,1.56,16.98,1.86c9.43,0.37,17.01-1.02,17.07-0.65
							c0.03,0.15-1.83,0.69-4.92,1.17c-3.09,0.49-7.41,0.85-12.2,0.68c-4.78-0.17-9.07-0.85-12.11-1.55
							C246.38,378.54,244.57,377.87,244.6,377.72z"/>
					</g>
				</g>
			</g>
		</g>
		<g>
			<g>
				<g>
					<path style="fill:#AFDDF2;" d="M277.53,380.09c-2.66,0.64-4.58,3.03-5.6,5.57c-1.02,2.54-1.35,5.29-2.06,7.94
						c-0.68,2.51-1.72,4.96-1.88,7.56c-0.29,4.78,2.4,9.17,4.99,13.19c2.25-1.42,4.51-2.85,6.4-4.71c1.89-1.87,3.39-4.23,3.76-6.86
						c0.29-2.11-0.16-4.25-0.18-6.39c-0.03-2.67,0.61-5.32,0.45-7.98c-0.22-3.66-2.03-7.2-4.87-9.52"/>
				</g>
			</g>
		</g>
		<g>
			<g>
				<g>
					<path style="fill:#AFDDF2;" d="M278.85,375.42c1.78-2.08,1.92-5.14,1.26-7.8c-0.67-2.65-2.03-5.07-3-7.63
						c-0.93-2.43-1.53-5.02-2.93-7.22c-2.57-4.03-7.34-6-11.8-7.73c-0.98,2.47-1.97,4.96-2.4,7.58c-0.43,2.62-0.25,5.42,1,7.76
						c1.01,1.88,2.63,3.35,3.91,5.06c1.59,2.14,2.64,4.66,4.33,6.72c2.33,2.83,5.87,4.63,9.53,4.83"/>
				</g>
			</g>
			<g>
				<g>
					<g>
						<path style="fill:#AFDDF2;" d="M264.12,346.12c0.37-0.09,2.09,7.43,6.16,15.94c4.01,8.54,8.74,14.64,8.43,14.86
							c-0.12,0.09-1.45-1.31-3.31-3.83c-1.85-2.52-4.17-6.19-6.22-10.51c-2.04-4.32-3.42-8.44-4.2-11.47
							C264.22,348.08,263.97,346.16,264.12,346.12z"/>
					</g>
				</g>
			</g>
		</g>
		<g>
			<g>
				<path style="fill:#AFDDF2;" d="M282.94,377.22c0.23,1.8-1.05,3.45-2.86,3.68c-1.8,0.23-3.45-1.05-3.68-2.86
					c-0.23-1.8,1.05-3.45,2.86-3.68C281.06,374.14,282.71,375.42,282.94,377.22z"/>
			</g>
		</g>
	</g>
</g>
<g id="Device">
	<g>
		<g>
			<path style="fill:#263238;" d="M547.79,397.62l-311.54-42.8c-15.77-2.17-26.8-16.71-24.64-32.48l25.19-183.36
				c2.17-15.77,16.71-26.8,32.48-24.64l311.54,42.8c15.77,2.17,26.8,16.71,24.64,32.48l-25.19,183.36
				C578.11,388.76,563.57,399.79,547.79,397.62z"/>
		</g>
		<g>
			
				<rect x="262.7" y="154.71" transform="matrix(0.9907 0.1361 -0.1361 0.9907 38.9206 -54.5198)" style="fill:#EBEBEB;" width="310.98" height="205.35"/>
			<path style="fill:#455A64;" d="M558.69,380.84l-0.5-0.07l-308.58-42.39l0.07-0.5l28.02-203.94l0.5,0.07l308.58,42.39l-0.07,0.5
				L558.69,380.84z M250.74,337.52l307.1,42.19l27.81-202.45l-307.1-42.19L250.74,337.52z"/>
		</g>
		<g>
			<g>
				<path style="fill:#455A64;" d="M605.74,179.51c-0.02,0.14-82.08-11.01-183.27-24.91c-101.22-13.9-183.23-25.29-183.21-25.43
					c0.02-0.14,82.06,11.01,183.28,24.92C523.73,167.98,605.76,179.37,605.74,179.51z"/>
			</g>
		</g>
		<g>
			<g>
				<path style="fill:#455A64;" d="M577.8,382.95c-0.02,0.14-82.08-11.01-183.27-24.91c-101.22-13.9-183.23-25.29-183.21-25.43
					c0.02-0.14,82.06,11.01,183.28,24.92C495.79,371.43,577.82,382.81,577.8,382.95z"/>
			</g>
		</g>
		<g>
			<g>
				<path style="fill:#455A64;" d="M257.65,231.52c-0.08,0,0.17-1.19-0.07-3.31c-0.24-2.08-1.18-5.22-3.88-7.92
					c-1.34-1.32-3.1-2.53-5.22-3.21c-2.11-0.66-4.55-0.92-6.99-0.36c-1.22,0.25-2.43,0.7-3.57,1.34c-1.15,0.62-2.23,1.43-3.16,2.41
					c-1.91,1.93-3.2,4.56-3.62,7.41c-0.37,2.85,0.16,5.74,1.48,8.11c0.63,1.2,1.45,2.27,2.39,3.17c0.93,0.92,1.97,1.68,3.08,2.25
					c2.19,1.2,4.62,1.61,6.83,1.54c2.22-0.08,4.24-0.77,5.89-1.68c3.34-1.87,5.08-4.64,5.87-6.58
					C257.49,232.72,257.58,231.5,257.65,231.52c0.02,0-0.02,0.3-0.11,0.86c-0.04,0.28-0.1,0.63-0.22,1.03
					c-0.11,0.4-0.23,0.87-0.44,1.36c-0.75,1.99-2.48,4.86-5.88,6.82c-1.68,0.96-3.75,1.69-6.05,1.79c-2.28,0.09-4.79-0.31-7.07-1.54
					c-1.15-0.58-2.24-1.37-3.2-2.32c-0.98-0.93-1.83-2.04-2.49-3.29c-1.38-2.46-1.93-5.46-1.55-8.42c0.43-2.95,1.78-5.69,3.77-7.69
					c0.97-1.02,2.09-1.86,3.28-2.49c1.18-0.65,2.44-1.12,3.71-1.37c2.53-0.57,5.05-0.28,7.22,0.42c2.18,0.72,3.98,1.98,5.34,3.36
					c2.75,2.81,3.64,6.04,3.82,8.16c0.07,0.54,0.06,1.02,0.06,1.43c0.01,0.42-0.02,0.77-0.06,1.05
					C257.71,231.23,257.67,231.52,257.65,231.52z"/>
			</g>
		</g>
		<g>
			<g>
				<path style="fill:#455A64;" d="M248.75,230.3c-0.05,0,0.01-0.4-0.09-1.1c-0.1-0.68-0.43-1.7-1.32-2.57
					c-0.86-0.87-2.37-1.48-3.97-1.12c-1.57,0.32-3.08,1.74-3.32,3.6c-0.27,1.86,0.8,3.64,2.23,4.37c1.44,0.78,3.06,0.59,4.12-0.01
					c1.09-0.59,1.68-1.49,1.96-2.12C248.65,230.69,248.7,230.29,248.75,230.3c0.02,0,0.02,0.1,0,0.29
					c-0.02,0.19-0.07,0.47-0.19,0.82c-0.23,0.68-0.81,1.68-1.97,2.37c-1.13,0.69-2.92,0.96-4.53,0.12c-1.6-0.78-2.83-2.77-2.52-4.86
					c0.27-2.1,1.98-3.68,3.74-4c1.78-0.37,3.43,0.36,4.33,1.33c0.93,0.98,1.22,2.09,1.26,2.81c0.02,0.37,0,0.65-0.03,0.84
					C248.8,230.2,248.77,230.3,248.75,230.3z"/>
			</g>
		</g>
		<g>
			<g>
				<path style="fill:#455A64;" d="M256.56,224.07c0.06,0.13-1.73,1.07-3.99,2.09c-2.26,1.02-4.14,1.74-4.2,1.61
					c-0.06-0.13,1.73-1.06,3.99-2.09C254.62,224.66,256.5,223.94,256.56,224.07z"/>
			</g>
		</g>
		<g>
			<g>
				<path style="fill:#455A64;" d="M249.52,201.84c0-0.06,0.63,0.08,1.71-0.15c1.04-0.22,2.63-0.98,3.5-2.74
					c0.47-0.85,0.52-1.94,0.68-3.11c0.07-0.58,0.18-1.2,0.21-1.79c0.02-0.6-0.07-1.22-0.28-1.81c-0.41-1.19-1.32-2.28-2.56-2.87
					c-0.63-0.31-1.28-0.44-2.04-0.52c-0.74-0.1-1.48-0.2-2.24-0.31c-1.44-0.2-2.9,0.27-3.94,1.17c-1.06,0.9-1.63,2.16-1.75,3.45
					c-0.09,0.65-0.18,1.29-0.27,1.91c-0.1,0.63-0.16,1.19-0.09,1.76c0.11,1.13,0.61,2.11,1.24,2.83c0.65,0.71,1.41,1.2,2.15,1.44
					c0.73,0.25,1.42,0.3,1.97,0.4C248.92,201.69,249.52,201.81,249.52,201.84c0,0.04-0.62-0.01-1.73-0.14
					c-0.55-0.08-1.24-0.09-2.03-0.33c-0.78-0.23-1.61-0.72-2.33-1.47c-0.69-0.76-1.26-1.81-1.4-3.03c-0.08-0.6-0.03-1.26,0.07-1.87
					c0.08-0.62,0.17-1.26,0.25-1.91c0.11-1.34,0.73-2.79,1.89-3.77c1.13-0.99,2.75-1.52,4.34-1.3c0.75,0.1,1.5,0.21,2.24,0.31
					c0.72,0.08,1.52,0.23,2.19,0.57c1.36,0.66,2.36,1.86,2.79,3.17c0.22,0.65,0.31,1.33,0.28,1.99c-0.05,0.66-0.16,1.24-0.24,1.83
					c-0.18,1.14-0.26,2.3-0.78,3.22c-0.99,1.86-2.7,2.61-3.79,2.77C250.13,202.07,249.52,201.84,249.52,201.84z"/>
			</g>
		</g>
		<g>
			<g>
				<path style="fill:#455A64;" d="M252.29,181.69c0-0.06,0.63,0.08,1.71-0.15c1.04-0.22,2.63-0.98,3.5-2.74
					c0.47-0.85,0.52-1.94,0.68-3.11c0.07-0.58,0.18-1.2,0.21-1.79c0.02-0.6-0.07-1.22-0.28-1.81c-0.41-1.19-1.32-2.28-2.56-2.87
					c-0.63-0.31-1.28-0.44-2.04-0.52c-0.74-0.1-1.48-0.2-2.24-0.31c-1.44-0.2-2.9,0.27-3.94,1.17c-1.06,0.9-1.63,2.16-1.75,3.45
					c-0.09,0.65-0.18,1.29-0.27,1.91c-0.1,0.63-0.16,1.19-0.09,1.76c0.11,1.13,0.61,2.11,1.24,2.83c0.65,0.71,1.41,1.2,2.15,1.44
					c0.73,0.25,1.42,0.3,1.97,0.4C251.68,181.54,252.29,181.65,252.29,181.69s-0.62-0.01-1.73-0.14c-0.55-0.08-1.24-0.09-2.03-0.33
					c-0.78-0.23-1.61-0.72-2.33-1.47c-0.69-0.76-1.26-1.81-1.4-3.03c-0.08-0.6-0.03-1.26,0.07-1.87c0.08-0.62,0.17-1.26,0.25-1.91
					c0.11-1.34,0.73-2.79,1.89-3.77c1.13-0.99,2.75-1.52,4.34-1.3c0.75,0.1,1.5,0.21,2.24,0.31c0.72,0.08,1.52,0.23,2.19,0.57
					c1.36,0.66,2.36,1.86,2.79,3.17c0.22,0.65,0.31,1.33,0.28,1.99c-0.05,0.66-0.16,1.24-0.24,1.83c-0.18,1.14-0.26,2.3-0.78,3.22
					c-0.99,1.86-2.7,2.61-3.79,2.77C252.9,181.92,252.29,181.69,252.29,181.69z"/>
			</g>
		</g>
		<g>
			<g>
				<path style="fill:#455A64;" d="M237.61,288.55c0-0.06,0.63,0.08,1.71-0.15c1.04-0.22,2.63-0.98,3.5-2.74
					c0.47-0.85,0.52-1.94,0.68-3.11c0.07-0.58,0.18-1.2,0.21-1.79c0.02-0.6-0.07-1.22-0.28-1.81c-0.41-1.19-1.32-2.28-2.56-2.87
					c-0.63-0.31-1.28-0.44-2.04-0.52c-0.74-0.1-1.48-0.2-2.24-0.31c-1.44-0.2-2.9,0.27-3.94,1.17c-1.06,0.9-1.63,2.16-1.75,3.45
					c-0.09,0.65-0.18,1.29-0.27,1.91c-0.1,0.63-0.16,1.19-0.09,1.76c0.11,1.13,0.61,2.11,1.24,2.83c0.65,0.71,1.41,1.2,2.15,1.44
					c0.73,0.25,1.42,0.3,1.97,0.4C237.01,288.4,237.61,288.51,237.61,288.55c0,0.04-0.62-0.01-1.73-0.14
					c-0.55-0.08-1.24-0.09-2.03-0.33c-0.78-0.23-1.61-0.72-2.33-1.47c-0.69-0.76-1.26-1.81-1.4-3.03c-0.08-0.6-0.03-1.26,0.07-1.87
					c0.08-0.62,0.17-1.26,0.25-1.91c0.11-1.34,0.73-2.79,1.89-3.77c1.13-0.99,2.75-1.52,4.34-1.3c0.76,0.1,1.5,0.21,2.24,0.31
					c0.72,0.08,1.52,0.23,2.19,0.57c1.36,0.66,2.36,1.86,2.79,3.17c0.22,0.65,0.31,1.33,0.28,1.99c-0.05,0.66-0.16,1.24-0.24,1.83
					c-0.18,1.14-0.26,2.3-0.78,3.22c-0.99,1.86-2.7,2.61-3.79,2.77C238.22,288.78,237.61,288.55,237.61,288.55z"/>
			</g>
		</g>
		<g>
			<g>
				<path style="fill:#455A64;" d="M240.38,268.4c0-0.06,0.63,0.08,1.71-0.15c1.04-0.22,2.63-0.98,3.5-2.74
					c0.47-0.85,0.52-1.94,0.68-3.11c0.07-0.58,0.18-1.2,0.21-1.79c0.02-0.6-0.07-1.22-0.28-1.81c-0.41-1.19-1.32-2.28-2.56-2.87
					c-0.63-0.31-1.28-0.44-2.04-0.52c-0.74-0.1-1.48-0.2-2.24-0.31c-1.44-0.2-2.9,0.27-3.94,1.17c-1.06,0.9-1.63,2.16-1.75,3.45
					c-0.09,0.65-0.18,1.29-0.27,1.91c-0.1,0.63-0.16,1.19-0.09,1.76c0.11,1.13,0.61,2.11,1.24,2.83c0.65,0.71,1.41,1.2,2.15,1.44
					c0.73,0.25,1.42,0.3,1.97,0.4C239.77,268.24,240.38,268.36,240.38,268.4c0,0.04-0.62-0.01-1.73-0.14
					c-0.55-0.08-1.24-0.09-2.03-0.33c-0.78-0.23-1.61-0.72-2.33-1.47c-0.69-0.76-1.26-1.81-1.4-3.03c-0.08-0.6-0.03-1.26,0.07-1.87
					c0.08-0.62,0.17-1.26,0.25-1.91c0.11-1.34,0.73-2.8,1.89-3.77c1.13-0.99,2.75-1.52,4.34-1.3c0.76,0.1,1.5,0.21,2.24,0.31
					c0.72,0.08,1.52,0.23,2.19,0.57c1.36,0.66,2.36,1.86,2.79,3.17c0.22,0.65,0.31,1.33,0.28,1.99c-0.05,0.66-0.16,1.24-0.24,1.83
					c-0.18,1.14-0.26,2.3-0.78,3.22c-0.99,1.86-2.7,2.61-3.79,2.77C240.99,268.62,240.38,268.4,240.38,268.4z"/>
			</g>
		</g>
	</g>
	<g>
		<g>
			<g>
				<g>
					<path style="fill:#E0E0E0;" d="M356.85,344.47c2.07-4.46,1.44-10.05-1.58-13.93c-3.02-3.88-8.28-5.87-13.11-4.96
						c0.82-5.17-1.44-10.71-5.64-13.84c-4.2-3.13-10.15-3.7-14.87-1.44c-1.78-4.97-7.94-7.87-12.9-6.06
						c-4.96,1.81-7.81,7.99-5.97,12.94c-3.65-1.47-8.19-0.32-10.71,2.71c-2.52,3.03-2.82,7.7-0.72,11.02
						c-7.09-4.38-17.94,0.92-18.85,9.2l91.72,12.56C363.76,351.37,362.28,345.46,356.85,344.47z"/>
				</g>
			</g>
		</g>
		<g>
			<g>
				<g>
					<path style="fill:#E0E0E0;" d="M522.37,367.63c2.07-4.46,1.44-10.05-1.58-13.93c-3.02-3.88-8.28-5.87-13.11-4.96
						c0.82-5.17-1.44-10.71-5.64-13.84c-4.2-3.13-10.15-3.7-14.87-1.44c-1.78-4.97-7.94-7.87-12.9-6.06
						c-4.96,1.81-7.81,7.99-5.97,12.94c-3.65-1.47-8.19-0.32-10.71,2.71c-2.52,3.03-2.82,7.7-0.72,11.02
						c-7.09-4.38-17.94,0.92-18.85,9.2l91.72,12.56C529.28,374.53,527.8,368.62,522.37,367.63z"/>
				</g>
			</g>
		</g>
		<g>
			<g>
				<g>
					<g>
						<path style="fill:#FFFFFF;" d="M431.47,362.09c2.36-4.66,3.06-10.15,1.93-15.25c-0.71-3.23-2.2-6.39-4.74-8.5
							c-2.54-2.12-6.24-3-9.26-1.68c0.57-3.99-0.8-8.21-3.59-11.11c-2.79-2.9-6.95-4.43-10.96-4.02c0.9-3.26,0.07-6.95-2.16-9.5
							s-5.76-3.89-9.12-3.44c2.33-5-1.44-10.86-6.64-12.68l-1.78-0.25c0,0-11.22-1.85-12.64-1.77c-5.5,0.32-10.73,4.92-9.87,10.37
							c-3.1-1.35-6.87-1.04-9.71,0.81c-2.84,1.84-4.65,5.16-4.68,8.55c-3.74-1.49-8.16-1.17-11.65,0.86
							c-3.48,2.03-5.95,5.71-6.5,9.7c-2.55-2.11-6.34-2.27-9.37-0.93c-3.02,1.34-5.32,3.97-6.89,6.87
							c-2.48,4.6-3.32,10.06-2.33,15.2L431.47,362.09z"/>
					</g>
				</g>
			</g>
		</g>
		<g>
			<g>
				<g>
					<g>
						<path style="fill:#FFFFFF;" d="M489.63,370.23c2.36-4.66,3.06-10.15,1.93-15.25c-0.71-3.23-2.2-6.39-4.74-8.5
							c-2.54-2.12-6.24-3-9.26-1.68c0.57-3.99-0.8-8.21-3.59-11.11c-2.79-2.9-6.95-4.43-10.96-4.02c0.9-3.26,0.07-6.95-2.16-9.5
							c-2.22-2.55-5.76-3.89-9.12-3.44c2.33-5-1.44-10.86-6.64-12.68l-1.78-0.25c0,0-11.22-1.85-12.64-1.77
							c-5.5,0.32-10.73,4.92-9.87,10.37c-3.1-1.35-6.87-1.04-9.71,0.81c-2.84,1.84-4.65,5.16-4.68,8.55
							c-3.74-1.49-8.16-1.17-11.65,0.86c-3.48,2.03-5.95,5.71-6.5,9.7c-2.55-2.11-6.34-2.27-9.37-0.93
							c-3.02,1.34-5.32,3.97-6.89,6.87c-2.48,4.6-3.32,10.06-2.33,15.2L489.63,370.23z"/>
					</g>
				</g>
			</g>
		</g>
		<g>
			<g>
				<g>
					<g>
						<g>
							<polygon style="fill:#609AEF;" points="386.08,291.65 373.91,290.28 377.06,267.74 389.23,269.11 							"/>
						</g>
					</g>
				</g>
				<g>
					<g>
						<g>
							<path style="fill:#336BAF;" d="M388.88,276.5l-13.31-1.86c-0.48-0.07-0.82-0.51-0.75-1l0,0c0.07-0.48,0.51-0.82,1-0.75
								l13.31,1.86c0.48,0.07,0.82,0.51,0.75,1l0,0C389.81,276.23,389.37,276.56,388.88,276.5z"/>
						</g>
					</g>
				</g>
				<g>
					<g>
						<g>
							<path style="fill:#336BAF;" d="M388.39,280.01l-13.31-1.86c-0.48-0.07-0.82-0.51-0.75-1l0,0c0.07-0.48,0.51-0.82,1-0.75
								l13.31,1.86c0.48,0.07,0.82,0.51,0.75,1l0,0C389.32,279.74,388.87,280.08,388.39,280.01z"/>
						</g>
					</g>
				</g>
				<g>
					<g>
						<g>
							<path style="fill:#336BAF;" d="M387.9,283.53l-13.31-1.86c-0.48-0.07-0.82-0.51-0.75-1l0,0c0.07-0.48,0.51-0.82,1-0.75
								l13.31,1.86c0.48,0.07,0.82,0.51,0.75,1l0,0C388.83,283.26,388.38,283.6,387.9,283.53z"/>
						</g>
					</g>
				</g>
				<g>
					<g>
						<g>
							<path style="fill:#336BAF;" d="M387.41,287.05l-13.31-1.86c-0.48-0.07-0.82-0.51-0.75-1l0,0c0.07-0.48,0.51-0.82,1-0.75
								l13.31,1.86c0.48,0.07,0.82,0.51,0.75,1l0,0C388.34,286.78,387.89,287.11,387.41,287.05z"/>
						</g>
					</g>
				</g>
				<g>
					<g>
						<g>
							<path style="fill:#336BAF;" d="M386.91,290.56l-13.31-1.86c-0.48-0.07-0.82-0.51-0.75-1l0,0c0.07-0.48,0.51-0.82,1-0.75
								l13.31,1.86c0.48,0.07,0.82,0.51,0.75,1l0,0C387.84,290.29,387.4,290.63,386.91,290.56z"/>
						</g>
					</g>
				</g>
				<g>
					<g>
						<g>
							<polygon style="fill:#609AEF;" points="371.16,293.83 373.95,289.95 386.08,291.65 388.15,296.21 							"/>
						</g>
					</g>
				</g>
				<g>
					<g>
						<g>
							<g>
								<path style="fill:#263238;" d="M389.4,274.78c-0.01,0.09-3.12-0.27-6.94-0.8c-3.82-0.53-6.91-1.04-6.89-1.13
									c0.01-0.09,3.12,0.27,6.94,0.8C386.33,274.19,389.42,274.69,389.4,274.78z"/>
							</g>
						</g>
					</g>
				</g>
				<g>
					<g>
						<g>
							<g>
								<path style="fill:#263238;" d="M388.87,276.5c-0.01,0.09-3.09-0.26-6.87-0.79c-3.78-0.53-6.83-1.03-6.82-1.12
									c0.01-0.09,3.09,0.26,6.87,0.79C385.83,275.9,388.89,276.4,388.87,276.5z"/>
							</g>
						</g>
					</g>
				</g>
				<g>
					<g>
						<g>
							<g>
								<path style="fill:#263238;" d="M389,278.31c-0.01,0.09-3.15-0.27-7.01-0.81c-3.86-0.54-6.98-1.05-6.96-1.14
									c0.01-0.09,3.15,0.27,7.01,0.81C385.9,277.71,389.01,278.22,389,278.31z"/>
							</g>
						</g>
					</g>
				</g>
				<g>
					<g>
						<g>
							<g>
								<path style="fill:#263238;" d="M388.08,279.97c-0.01,0.09-2.99-0.25-6.65-0.76c-3.66-0.51-6.62-1-6.61-1.09
									c0.01-0.09,2.99,0.25,6.65,0.76C385.13,279.39,388.09,279.88,388.08,279.97z"/>
							</g>
						</g>
					</g>
				</g>
				<g>
					<g>
						<g>
							<g>
								<path style="fill:#263238;" d="M388.31,281.84c-0.01,0.09-3.06-0.26-6.82-0.79c-3.75-0.53-6.78-1.02-6.77-1.12
									c0.01-0.09,3.06,0.26,6.82,0.79C385.29,281.25,388.32,281.74,388.31,281.84z"/>
							</g>
						</g>
					</g>
				</g>
				<g>
					<g>
						<g>
							<g>
								<path style="fill:#263238;" d="M388.24,283.58c-0.01,0.09-3.1-0.27-6.9-0.8c-3.8-0.53-6.87-1.04-6.86-1.13
									c0.01-0.09,3.1,0.27,6.9,0.8C385.19,282.98,388.26,283.49,388.24,283.58z"/>
							</g>
						</g>
					</g>
				</g>
				<g>
					<g>
						<g>
							<g>
								<path style="fill:#263238;" d="M387.61,285.29c-0.01,0.09-2.93-0.24-6.51-0.74c-3.58-0.5-6.48-0.98-6.47-1.07
									c0.01-0.09,2.93,0.24,6.51,0.74C384.72,284.72,387.62,285.2,387.61,285.29z"/>
							</g>
						</g>
					</g>
				</g>
				<g>
					<g>
						<g>
							<g>
								<path style="fill:#263238;" d="M387.47,287.05c-0.01,0.09-2.93-0.24-6.51-0.74c-3.58-0.5-6.48-0.98-6.47-1.07
									c0.01-0.09,2.93,0.24,6.51,0.74C384.59,286.48,387.48,286.96,387.47,287.05z"/>
							</g>
						</g>
					</g>
				</g>
				<g>
					<g>
						<g>
							<g>
								<path style="fill:#263238;" d="M386.8,288.72c-0.01,0.09-2.91-0.24-6.47-0.74c-3.56-0.5-6.44-0.98-6.43-1.07
									c0.01-0.09,2.91,0.24,6.48,0.74C383.93,288.15,386.81,288.63,386.8,288.72z"/>
							</g>
						</g>
					</g>
				</g>
				<g>
					<g>
						<g>
							<g>
								<path style="fill:#336BAF;" d="M386.51,290.51c-0.01,0.09-2.82-0.23-6.26-0.71c-3.45-0.48-6.23-0.95-6.22-1.04
									c0.01-0.09,2.82,0.23,6.26,0.71C383.74,289.95,386.52,290.41,386.51,290.51z"/>
							</g>
						</g>
					</g>
				</g>
			</g>
			<g>
				<g>
					<g>
						<g>
							<polygon style="fill:#609AEF;" points="444.21,299.79 432.04,298.42 435.2,275.87 447.37,277.24 							"/>
						</g>
					</g>
				</g>
				<g>
					<g>
						<g>
							<path style="fill:#336BAF;" d="M447.02,284.63l-13.31-1.86c-0.48-0.07-0.82-0.51-0.75-1l0,0c0.07-0.48,0.51-0.82,1-0.75
								l13.31,1.86c0.48,0.07,0.82,0.51,0.75,1v0C447.95,284.36,447.5,284.7,447.02,284.63z"/>
						</g>
					</g>
				</g>
				<g>
					<g>
						<g>
							<path style="fill:#336BAF;" d="M446.53,288.15l-13.31-1.86c-0.48-0.07-0.82-0.51-0.75-1l0,0c0.07-0.48,0.51-0.82,1-0.75
								l13.31,1.86c0.48,0.07,0.82,0.51,0.75,1l0,0C447.46,287.88,447.01,288.22,446.53,288.15z"/>
						</g>
					</g>
				</g>
				<g>
					<g>
						<g>
							<path style="fill:#336BAF;" d="M446.03,291.66l-13.31-1.86c-0.48-0.07-0.82-0.51-0.75-1l0,0c0.07-0.48,0.51-0.82,1-0.75
								l13.31,1.86c0.48,0.07,0.82,0.51,0.75,1l0,0C446.96,291.39,446.52,291.73,446.03,291.66z"/>
						</g>
					</g>
				</g>
				<g>
					<g>
						<g>
							<path style="fill:#336BAF;" d="M445.54,295.18l-13.31-1.86c-0.48-0.07-0.82-0.51-0.75-1l0,0c0.07-0.48,0.51-0.82,1-0.75
								l13.31,1.86c0.48,0.07,0.82,0.51,0.75,1l0,0C446.47,294.91,446.03,295.25,445.54,295.18z"/>
						</g>
					</g>
				</g>
				<g>
					<g>
						<g>
							<path style="fill:#336BAF;" d="M445.05,298.7l-13.31-1.86c-0.48-0.07-0.82-0.51-0.75-1l0,0c0.07-0.48,0.51-0.82,1-0.75
								l13.31,1.86c0.48,0.07,0.82,0.51,0.75,1l0,0C445.98,298.43,445.53,298.76,445.05,298.7z"/>
						</g>
					</g>
				</g>
				<g>
					<g>
						<g>
							<polygon style="fill:#609AEF;" points="429.3,301.97 432.09,298.09 444.21,299.79 446.28,304.35 							"/>
						</g>
					</g>
				</g>
				<g>
					<g>
						<g>
							<g>
								<path style="fill:#263238;" d="M447.54,282.92c-0.01,0.09-3.12-0.27-6.94-0.8c-3.82-0.53-6.91-1.04-6.89-1.13
									c0.01-0.09,3.12,0.27,6.94,0.8C444.46,282.32,447.55,282.83,447.54,282.92z"/>
							</g>
						</g>
					</g>
				</g>
				<g>
					<g>
						<g>
							<g>
								<path style="fill:#263238;" d="M447.01,284.63c-0.01,0.09-3.09-0.26-6.87-0.79c-3.78-0.53-6.83-1.03-6.82-1.12
									c0.01-0.09,3.09,0.26,6.87,0.79C443.97,284.04,447.02,284.54,447.01,284.63z"/>
							</g>
						</g>
					</g>
				</g>
				<g>
					<g>
						<g>
							<g>
								<path style="fill:#263238;" d="M447.14,286.45c-0.01,0.09-3.15-0.27-7.01-0.81c-3.86-0.54-6.98-1.05-6.96-1.14
									c0.01-0.09,3.15,0.27,7.01,0.81C444.03,285.85,447.15,286.36,447.14,286.45z"/>
							</g>
						</g>
					</g>
				</g>
				<g>
					<g>
						<g>
							<g>
								<path style="fill:#263238;" d="M446.21,288.1c-0.01,0.09-2.99-0.25-6.65-0.76c-3.66-0.51-6.62-1-6.61-1.09
									s2.99,0.25,6.65,0.76C443.27,287.52,446.23,288.01,446.21,288.1z"/>
							</g>
						</g>
					</g>
				</g>
				<g>
					<g>
						<g>
							<g>
								<path style="fill:#263238;" d="M446.45,289.97c-0.01,0.09-3.06-0.26-6.82-0.79c-3.75-0.52-6.78-1.02-6.77-1.11
									c0.01-0.09,3.06,0.26,6.82,0.79C443.43,289.38,446.46,289.88,446.45,289.97z"/>
							</g>
						</g>
					</g>
				</g>
				<g>
					<g>
						<g>
							<g>
								<path style="fill:#263238;" d="M446.38,291.71c-0.01,0.09-3.1-0.27-6.9-0.8c-3.8-0.53-6.87-1.04-6.86-1.13s3.1,0.27,6.9,0.8
									C443.32,291.12,446.39,291.62,446.38,291.71z"/>
							</g>
						</g>
					</g>
				</g>
				<g>
					<g>
						<g>
							<g>
								<path style="fill:#263238;" d="M445.74,293.42c-0.01,0.09-2.93-0.24-6.51-0.74c-3.58-0.5-6.48-0.98-6.47-1.07
									c0.01-0.09,2.93,0.24,6.51,0.74C442.86,292.85,445.75,293.33,445.74,293.42z"/>
							</g>
						</g>
					</g>
				</g>
				<g>
					<g>
						<g>
							<g>
								<path style="fill:#263238;" d="M445.6,295.19c-0.01,0.09-2.93-0.24-6.51-0.74c-3.58-0.5-6.48-0.98-6.47-1.07
									s2.93,0.24,6.51,0.74C442.72,294.62,445.62,295.1,445.6,295.19z"/>
							</g>
						</g>
					</g>
				</g>
				<g>
					<g>
						<g>
							<g>
								<path style="fill:#263238;" d="M444.93,296.85c-0.01,0.09-2.91-0.24-6.47-0.74c-3.56-0.5-6.44-0.98-6.43-1.07
									c0.01-0.09,2.91,0.24,6.48,0.74C442.07,296.28,444.95,296.76,444.93,296.85z"/>
							</g>
						</g>
					</g>
				</g>
				<g>
					<g>
						<g>
							<g>
								<path style="fill:#263238;" d="M444.65,298.64c-0.01,0.09-2.82-0.23-6.26-0.71c-3.45-0.48-6.23-0.95-6.22-1.04
									c0.01-0.09,2.82,0.23,6.26,0.71C441.88,298.08,444.66,298.55,444.65,298.64z"/>
							</g>
						</g>
					</g>
				</g>
			</g>
			<g>
				<g>
					<g>
						<g>
							<g>
								<g>
									<path style="fill:#609AEF;" d="M412.77,133.15l-15.45,111.87l-14.15-1.98l15.58-111.35c0.28-2,0.83-3.96,1.62-5.81
										l8.9-20.72c0.35-0.81,1.34-0.65,1.41,0.9l2.19,21.71C413.05,129.56,413.01,131.37,412.77,133.15z"/>
								</g>
							</g>
						</g>
						<g>
							<g>
								<g>
									<g>
										<path style="fill:#263238;" d="M408.64,160.67c-0.01,0.09-3.05-0.26-6.78-0.78c-3.73-0.52-6.75-1.02-6.74-1.11
											c0.01-0.09,3.05,0.26,6.78,0.78C405.63,160.08,408.65,160.58,408.64,160.67z"/>
									</g>
								</g>
							</g>
						</g>
						<g>
							<g>
								<g>
									<g>
										<path style="fill:#263238;" d="M398.79,156.3c-0.09-0.01-0.11-0.42-0.04-0.92c0.07-0.49,0.2-0.89,0.29-0.87
											c0.09,0.01,0.11,0.42,0.04,0.92C399.01,155.92,398.88,156.31,398.79,156.3z"/>
									</g>
								</g>
							</g>
						</g>
						<g>
							<g>
								<g>
									<g>
										<path style="fill:#263238;" d="M400.19,156.33c-0.09-0.01-0.12-0.35-0.06-0.76c0.06-0.4,0.18-0.72,0.27-0.71
											c0.09,0.01,0.12,0.35,0.06,0.76C400.4,156.02,400.28,156.34,400.19,156.33z"/>
									</g>
								</g>
							</g>
						</g>
						<g>
							<g>
								<g>
									<g>
										<path style="fill:#263238;" d="M404.01,196.82c-0.01,0.09-3.14-0.27-6.98-0.81c-3.84-0.54-6.94-1.05-6.93-1.14
											c0.01-0.09,3.14,0.27,6.98,0.81C400.92,196.22,404.02,196.73,404.01,196.82z"/>
									</g>
								</g>
							</g>
						</g>
						<g>
							<g>
								<g>
									<g>
										<path style="fill:#263238;" d="M392.8,199.53c-0.09-0.01-0.11-0.43-0.04-0.93c0.07-0.5,0.2-0.9,0.29-0.88
											c0.09,0.01,0.11,0.43,0.04,0.93C393.02,199.15,392.89,199.55,392.8,199.53z"/>
									</g>
								</g>
							</g>
						</g>
						<g>
							<g>
								<g>
									<g>
										<path style="fill:#263238;" d="M393.85,199.85c-0.09-0.01-0.11-0.45-0.03-0.97c0.07-0.52,0.21-0.94,0.3-0.92
											c0.09,0.01,0.11,0.45,0.03,0.97C394.07,199.45,393.94,199.86,393.85,199.85z"/>
									</g>
								</g>
							</g>
						</g>
						<g>
							<g>
								<g>
									<g>
										<path style="fill:#263238;" d="M394.51,231.08c-0.01,0.09-2.16-0.13-4.8-0.5c-2.64-0.37-4.76-0.74-4.75-0.83
											c0.01-0.09,2.16,0.13,4.8,0.5C392.4,230.61,394.53,230.98,394.51,231.08z"/>
									</g>
								</g>
							</g>
						</g>
					</g>
					<g>
						<g>
							<g>
								<g>
									<path style="fill:#263238;" d="M412.77,131.66c-0.01,0.09-3.07-0.26-6.83-0.79c-3.76-0.53-6.79-1.03-6.78-1.12
										c0.01-0.09,3.07,0.26,6.83,0.79C409.75,131.07,412.78,131.57,412.77,131.66z"/>
								</g>
							</g>
						</g>
					</g>
					<g>
						<g>
							<g>
								<g>
									<g>
										<path style="fill:#263238;" d="M400.35,130.79c0.01-0.04,0.16-0.03,0.23,0.16c0.03,0.09,0.03,0.22-0.07,0.34
											c-0.1,0.13-0.3,0.15-0.45,0.08c-0.15-0.06-0.26-0.23-0.24-0.39c0.02-0.16,0.12-0.24,0.21-0.28
											c0.19-0.08,0.3,0.03,0.27,0.06c-0.02,0.04-0.09,0.06-0.14,0.13c-0.05,0.09-0.05,0.13,0.03,0.17
											c0.08,0.03,0.12,0.01,0.15-0.09C400.37,130.9,400.33,130.84,400.35,130.79z"/>
									</g>
								</g>
							</g>
						</g>
						<g>
							<g>
								<g>
									<g>
										<path style="fill:#263238;" d="M405.93,131.58c0.01-0.04,0.16-0.03,0.23,0.16c0.03,0.09,0.03,0.22-0.07,0.34
											c-0.1,0.13-0.3,0.15-0.45,0.08c-0.15-0.06-0.26-0.23-0.24-0.39c0.02-0.16,0.12-0.24,0.21-0.28
											c0.19-0.08,0.3,0.03,0.27,0.06c-0.02,0.04-0.09,0.06-0.14,0.13c-0.05,0.09-0.05,0.13,0.03,0.17
											c0.08,0.03,0.12,0.01,0.15-0.09C405.95,131.69,405.91,131.62,405.93,131.58z"/>
									</g>
								</g>
							</g>
						</g>
						<g>
							<g>
								<g>
									<g>
										<path style="fill:#263238;" d="M411.52,132.36c0.01-0.04,0.16-0.03,0.23,0.16c0.03,0.09,0.03,0.22-0.07,0.34
											c-0.1,0.13-0.3,0.15-0.45,0.08c-0.15-0.06-0.26-0.23-0.24-0.39c0.02-0.16,0.12-0.24,0.21-0.28
											c0.19-0.08,0.3,0.03,0.27,0.06c-0.02,0.04-0.09,0.06-0.14,0.13c-0.05,0.09-0.05,0.13,0.03,0.17
											c0.08,0.03,0.12,0.01,0.15-0.09C411.53,132.47,411.5,132.4,411.52,132.36z"/>
									</g>
								</g>
							</g>
						</g>
					</g>
					<g>
						<g>
							<g>
								<g>
									<g>
										<path style="fill:#263238;" d="M396.24,160.18c0.01-0.04,0.16-0.03,0.23,0.16c0.03,0.09,0.03,0.22-0.07,0.34
											c-0.1,0.13-0.3,0.15-0.45,0.08c-0.15-0.06-0.26-0.23-0.24-0.39c0.02-0.16,0.12-0.24,0.21-0.28
											c0.19-0.08,0.3,0.03,0.27,0.06c-0.02,0.04-0.09,0.06-0.14,0.13c-0.05,0.09-0.05,0.13,0.03,0.17
											c0.08,0.03,0.12,0.01,0.15-0.09C396.26,160.28,396.22,160.22,396.24,160.18z"/>
									</g>
								</g>
							</g>
						</g>
						<g>
							<g>
								<g>
									<g>
										<path style="fill:#263238;" d="M401.82,160.96c0.01-0.04,0.16-0.03,0.23,0.16c0.03,0.09,0.03,0.22-0.07,0.34
											c-0.1,0.13-0.3,0.15-0.45,0.08c-0.15-0.06-0.26-0.23-0.24-0.39c0.02-0.16,0.12-0.24,0.21-0.28
											c0.19-0.08,0.3,0.03,0.27,0.06c-0.02,0.04-0.09,0.06-0.14,0.13c-0.05,0.09-0.05,0.13,0.03,0.17
											c0.08,0.03,0.12,0.01,0.15-0.09C401.84,161.07,401.8,161,401.82,160.96z"/>
									</g>
								</g>
							</g>
						</g>
						<g>
							<g>
								<g>
									<g>
										<path style="fill:#263238;" d="M407.4,161.74c0.01-0.04,0.16-0.03,0.23,0.16c0.03,0.09,0.03,0.22-0.07,0.34
											c-0.1,0.13-0.3,0.15-0.45,0.08c-0.15-0.06-0.26-0.23-0.24-0.39c0.02-0.16,0.12-0.24,0.21-0.28
											c0.19-0.08,0.3,0.03,0.27,0.06c-0.02,0.04-0.09,0.06-0.14,0.13c-0.05,0.09-0.05,0.13,0.03,0.17
											c0.08,0.03,0.12,0.01,0.15-0.09C407.42,161.85,407.39,161.78,407.4,161.74z"/>
									</g>
								</g>
							</g>
						</g>
					</g>
					<g>
						<g>
							<g>
								<g>
									<g>
										<path style="fill:#263238;" d="M391.73,192.41c0.01-0.04,0.16-0.03,0.23,0.16c0.03,0.09,0.03,0.22-0.07,0.34
											c-0.1,0.13-0.3,0.15-0.45,0.08c-0.15-0.06-0.26-0.23-0.24-0.39c0.02-0.16,0.12-0.24,0.21-0.28
											c0.19-0.08,0.3,0.03,0.27,0.06c-0.02,0.04-0.09,0.06-0.14,0.13c-0.05,0.09-0.05,0.13,0.03,0.17
											c0.08,0.03,0.12,0.01,0.15-0.09C391.75,192.52,391.71,192.45,391.73,192.41z"/>
									</g>
								</g>
							</g>
						</g>
						<g>
							<g>
								<g>
									<g>
										<path style="fill:#263238;" d="M397.31,193.19c0.01-0.04,0.16-0.03,0.23,0.16c0.03,0.09,0.03,0.22-0.07,0.34
											c-0.1,0.13-0.3,0.15-0.45,0.08c-0.15-0.06-0.26-0.23-0.24-0.39c0.02-0.16,0.12-0.24,0.21-0.28
											c0.19-0.08,0.3,0.03,0.27,0.06c-0.02,0.04-0.09,0.06-0.14,0.13c-0.05,0.09-0.05,0.13,0.03,0.17
											c0.08,0.03,0.12,0.01,0.15-0.09C397.33,193.3,397.29,193.23,397.31,193.19z"/>
									</g>
								</g>
							</g>
						</g>
						<g>
							<g>
								<g>
									<g>
										<path style="fill:#263238;" d="M402.89,193.97c0.01-0.04,0.16-0.03,0.23,0.16c0.03,0.09,0.03,0.22-0.07,0.34
											c-0.1,0.13-0.3,0.15-0.45,0.08c-0.15-0.06-0.26-0.23-0.24-0.39c0.02-0.16,0.12-0.24,0.21-0.28
											c0.19-0.08,0.3,0.03,0.27,0.06c-0.02,0.04-0.09,0.06-0.14,0.13c-0.05,0.09-0.05,0.13,0.03,0.17
											c0.08,0.03,0.12,0.01,0.15-0.09C402.91,194.08,402.87,194.01,402.89,193.97z"/>
									</g>
								</g>
							</g>
						</g>
					</g>
					<g>
						<g>
							<g>
								<g>
									<g>
										<path style="fill:#263238;" d="M386.81,227.55c0.01-0.04,0.16-0.03,0.23,0.16c0.03,0.09,0.03,0.22-0.07,0.34
											c-0.1,0.13-0.3,0.15-0.45,0.08c-0.15-0.06-0.26-0.23-0.24-0.39c0.02-0.16,0.12-0.24,0.21-0.28
											c0.19-0.08,0.3,0.03,0.27,0.06c-0.02,0.04-0.09,0.06-0.14,0.13c-0.05,0.09-0.05,0.13,0.03,0.17
											c0.08,0.03,0.12,0.01,0.15-0.09C386.83,227.66,386.79,227.59,386.81,227.55z"/>
									</g>
								</g>
							</g>
						</g>
						<g>
							<g>
								<g>
									<g>
										<path style="fill:#263238;" d="M392.39,228.33c0.01-0.04,0.16-0.03,0.23,0.16c0.03,0.09,0.03,0.22-0.07,0.34
											c-0.1,0.13-0.3,0.15-0.45,0.08c-0.15-0.06-0.26-0.23-0.24-0.39c0.02-0.16,0.12-0.24,0.21-0.28
											c0.19-0.08,0.3,0.03,0.27,0.06c-0.02,0.04-0.09,0.06-0.14,0.13c-0.05,0.09-0.05,0.13,0.03,0.17
											c0.08,0.03,0.12,0.01,0.15-0.09C392.41,228.44,392.38,228.38,392.39,228.33z"/>
									</g>
								</g>
							</g>
						</g>
					</g>
				</g>
				<g>
					<g>
						<g>
							<g>
								<g>
									<path style="fill:#609AEF;" d="M450.98,138.5l-15.85,111.82l14.15,1.98l15.58-111.35c0.28-2,0.29-4.03,0.03-6.04
										l-2.87-22.36c-0.11-0.88-1.11-1-1.6,0.48l-8.06,20.27C451.7,134.97,451.23,136.71,450.98,138.5z"/>
								</g>
							</g>
						</g>
						<g>
							<g>
								<g>
									<g>
										<path style="fill:#263238;" d="M447.4,166.09c0.01-0.09,3.05,0.26,6.78,0.78c3.73,0.52,6.75,1.02,6.74,1.11
											c-0.01,0.09-3.05-0.26-6.78-0.78C450.4,166.68,447.38,166.18,447.4,166.09z"/>
									</g>
								</g>
							</g>
						</g>
						<g>
							<g>
								<g>
									<g>
										<path style="fill:#263238;" d="M458.07,164.59c-0.09-0.01-0.11-0.42-0.04-0.92c0.07-0.49,0.2-0.89,0.29-0.87
											c0.09,0.01,0.11,0.42,0.04,0.92C458.29,164.22,458.16,164.61,458.07,164.59z"/>
									</g>
								</g>
							</g>
						</g>
						<g>
							<g>
								<g>
									<g>
										<path style="fill:#263238;" d="M456.71,164.24c-0.09-0.01-0.12-0.35-0.06-0.76c0.06-0.4,0.18-0.72,0.27-0.71
											c0.09,0.01,0.12,0.35,0.06,0.76C456.92,163.93,456.8,164.25,456.71,164.24z"/>
									</g>
								</g>
							</g>
						</g>
						<g>
							<g>
								<g>
									<g>
										<path style="fill:#263238;" d="M441.93,202.13c0.01-0.09,3.14,0.27,6.98,0.81c3.84,0.54,6.94,1.05,6.93,1.14
											c-0.01,0.09-3.14-0.27-6.98-0.81C445.02,202.73,441.91,202.22,441.93,202.13z"/>
									</g>
								</g>
							</g>
						</g>
						<g>
							<g>
								<g>
									<g>
										<path style="fill:#263238;" d="M451.96,207.81c-0.09-0.01-0.11-0.43-0.04-0.93c0.07-0.5,0.2-0.9,0.29-0.88
											c0.09,0.01,0.11,0.43,0.04,0.93C452.18,207.43,452.05,207.82,451.96,207.81z"/>
									</g>
								</g>
							</g>
						</g>
						<g>
							<g>
								<g>
									<g>
										<path style="fill:#263238;" d="M450.86,207.83c-0.09-0.01-0.11-0.45-0.03-0.97c0.07-0.52,0.21-0.94,0.3-0.92
											c0.09,0.01,0.11,0.45,0.03,0.97C451.09,207.43,450.95,207.84,450.86,207.83z"/>
									</g>
								</g>
							</g>
						</g>
						<g>
							<g>
								<g>
									<g>
										<path style="fill:#263238;" d="M441.65,237.67c0.01-0.09,2.16,0.13,4.8,0.5c2.64,0.37,4.76,0.74,4.75,0.83
											c-0.01,0.09-2.16-0.13-4.8-0.5C443.77,238.13,441.64,237.76,441.65,237.67z"/>
									</g>
								</g>
							</g>
						</g>
					</g>
					<g>
						<g>
							<g>
								<g>
									<path style="fill:#263238;" d="M451.38,137.06c0.01-0.09,3.07,0.26,6.82,0.79c3.76,0.53,6.79,1.03,6.78,1.12
										s-3.07-0.26-6.83-0.79C454.41,137.65,451.37,137.15,451.38,137.06z"/>
								</g>
							</g>
						</g>
					</g>
					<g>
						<g>
							<g>
								<g>
									<g>
										<path style="fill:#263238;" d="M463.56,139.64c0.01,0.05-0.05,0.1-0.05,0.19c0,0.1,0.03,0.14,0.12,0.13
											c0.09-0.02,0.11-0.06,0.08-0.16c-0.03-0.08-0.09-0.12-0.1-0.17c-0.02-0.04,0.12-0.11,0.28,0.02
											c0.07,0.06,0.14,0.17,0.12,0.33c-0.02,0.16-0.18,0.29-0.33,0.31c-0.15,0.03-0.34-0.05-0.41-0.2
											c-0.06-0.14-0.03-0.27,0.02-0.35C463.41,139.56,463.57,139.6,463.56,139.64z"/>
									</g>
								</g>
							</g>
						</g>
						<g>
							<g>
								<g>
									<g>
										<path style="fill:#263238;" d="M457.98,138.86c0.01,0.05-0.05,0.1-0.05,0.19c0,0.1,0.03,0.14,0.12,0.13
											c0.09-0.02,0.11-0.06,0.08-0.16c-0.03-0.08-0.09-0.12-0.1-0.17c-0.02-0.04,0.12-0.11,0.28,0.02
											c0.07,0.06,0.14,0.17,0.12,0.33c-0.02,0.16-0.18,0.29-0.33,0.31c-0.15,0.03-0.34-0.05-0.41-0.2
											c-0.06-0.14-0.03-0.27,0.02-0.35C457.83,138.78,457.99,138.82,457.98,138.86z"/>
									</g>
								</g>
							</g>
						</g>
						<g>
							<g>
								<g>
									<g>
										<path style="fill:#263238;" d="M452.4,138.08c0.01,0.05-0.05,0.1-0.05,0.19c0,0.1,0.03,0.14,0.12,0.13
											c0.09-0.02,0.11-0.06,0.08-0.16c-0.03-0.08-0.09-0.12-0.1-0.17c-0.02-0.04,0.12-0.11,0.28,0.02
											c0.07,0.06,0.14,0.17,0.12,0.33c-0.02,0.16-0.18,0.29-0.33,0.31c-0.15,0.03-0.34-0.05-0.41-0.2
											c-0.06-0.14-0.03-0.27,0.02-0.35C452.25,138,452.4,138.03,452.4,138.08z"/>
									</g>
								</g>
							</g>
						</g>
					</g>
					<g>
						<g>
							<g>
								<g>
									<g>
										<path style="fill:#263238;" d="M459.45,169.02c0.01,0.05-0.05,0.1-0.05,0.19c0,0.1,0.03,0.14,0.12,0.13
											c0.09-0.02,0.11-0.06,0.08-0.16c-0.03-0.08-0.09-0.12-0.1-0.17c-0.02-0.04,0.12-0.11,0.28,0.02
											c0.07,0.06,0.14,0.17,0.12,0.33c-0.02,0.16-0.18,0.29-0.33,0.31c-0.15,0.03-0.34-0.05-0.41-0.2
											c-0.06-0.14-0.03-0.27,0.02-0.35C459.3,168.94,459.46,168.98,459.45,169.02z"/>
									</g>
								</g>
							</g>
						</g>
						<g>
							<g>
								<g>
									<g>
										<path style="fill:#263238;" d="M453.87,168.24c0.01,0.05-0.05,0.1-0.05,0.19c0,0.1,0.03,0.14,0.12,0.13
											c0.09-0.02,0.11-0.06,0.08-0.16c-0.03-0.08-0.09-0.12-0.1-0.17c-0.02-0.04,0.12-0.11,0.28,0.02
											c0.07,0.06,0.14,0.17,0.12,0.33c-0.02,0.16-0.18,0.29-0.33,0.31c-0.15,0.03-0.34-0.05-0.41-0.2
											c-0.06-0.14-0.03-0.27,0.02-0.35C453.72,168.16,453.87,168.2,453.87,168.24z"/>
									</g>
								</g>
							</g>
						</g>
						<g>
							<g>
								<g>
									<g>
										<path style="fill:#263238;" d="M448.29,167.46c0.01,0.05-0.05,0.1-0.05,0.19c0,0.1,0.03,0.14,0.12,0.13
											c0.09-0.02,0.11-0.06,0.08-0.16c-0.03-0.08-0.09-0.12-0.1-0.17c-0.02-0.04,0.12-0.11,0.28,0.02
											c0.07,0.06,0.14,0.17,0.12,0.33c-0.02,0.16-0.18,0.29-0.33,0.31c-0.15,0.03-0.34-0.05-0.41-0.2
											c-0.06-0.14-0.03-0.27,0.02-0.35C448.14,167.38,448.29,167.41,448.29,167.46z"/>
									</g>
								</g>
							</g>
						</g>
					</g>
					<g>
						<g>
							<g>
								<g>
									<g>
										<path style="fill:#263238;" d="M454.94,201.25c0.01,0.05-0.05,0.1-0.05,0.19c0,0.1,0.03,0.14,0.12,0.13
											c0.09-0.02,0.11-0.06,0.08-0.16c-0.03-0.08-0.09-0.12-0.1-0.17c-0.02-0.04,0.12-0.11,0.28,0.02
											c0.07,0.06,0.14,0.17,0.12,0.33c-0.02,0.16-0.18,0.29-0.33,0.31c-0.15,0.03-0.34-0.05-0.41-0.2
											c-0.06-0.14-0.03-0.27,0.02-0.35C454.79,201.18,454.95,201.21,454.94,201.25z"/>
									</g>
								</g>
							</g>
						</g>
						<g>
							<g>
								<g>
									<g>
										<path style="fill:#263238;" d="M449.36,200.47c0.01,0.05-0.05,0.1-0.05,0.19c0,0.1,0.03,0.14,0.12,0.13
											c0.09-0.02,0.11-0.06,0.08-0.16c-0.03-0.08-0.09-0.12-0.1-0.17c-0.02-0.04,0.12-0.11,0.28,0.02
											c0.07,0.06,0.14,0.17,0.12,0.33c-0.02,0.16-0.18,0.29-0.33,0.31c-0.15,0.03-0.34-0.05-0.41-0.2
											c-0.06-0.14-0.03-0.27,0.02-0.35C449.21,200.4,449.36,200.43,449.36,200.47z"/>
									</g>
								</g>
							</g>
						</g>
						<g>
							<g>
								<g>
									<g>
										<path style="fill:#263238;" d="M443.78,199.69c0.01,0.05-0.05,0.1-0.05,0.19c0,0.1,0.03,0.14,0.12,0.13
											c0.09-0.02,0.11-0.06,0.08-0.16c-0.03-0.08-0.09-0.12-0.1-0.17c-0.02-0.04,0.12-0.11,0.28,0.02
											c0.07,0.06,0.14,0.17,0.12,0.33c-0.02,0.16-0.18,0.29-0.33,0.31c-0.15,0.03-0.34-0.05-0.41-0.2
											c-0.06-0.14-0.03-0.27,0.02-0.35C443.63,199.62,443.78,199.65,443.78,199.69z"/>
									</g>
								</g>
							</g>
						</g>
					</g>
					<g>
						<g>
							<g>
								<g>
									<g>
										<path style="fill:#263238;" d="M450.03,236.4c0.01,0.05-0.05,0.1-0.05,0.19c0,0.1,0.03,0.14,0.12,0.13
											c0.09-0.02,0.11-0.06,0.08-0.16c-0.03-0.08-0.09-0.12-0.1-0.17c-0.02-0.04,0.12-0.11,0.28,0.02
											c0.07,0.06,0.14,0.17,0.12,0.33c-0.02,0.16-0.18,0.29-0.33,0.31c-0.15,0.03-0.34-0.05-0.41-0.2
											c-0.06-0.14-0.03-0.27,0.02-0.35C449.88,236.32,450.03,236.35,450.03,236.4z"/>
									</g>
								</g>
							</g>
						</g>
						<g>
							<g>
								<g>
									<g>
										<path style="fill:#263238;" d="M444.44,235.62c0.01,0.05-0.05,0.1-0.05,0.19c0,0.1,0.03,0.14,0.12,0.13
											c0.09-0.02,0.11-0.06,0.08-0.16c-0.03-0.08-0.09-0.12-0.1-0.17c-0.02-0.04,0.12-0.11,0.28,0.02
											c0.07,0.06,0.14,0.17,0.12,0.33c-0.02,0.16-0.18,0.29-0.33,0.31c-0.15,0.03-0.34-0.05-0.41-0.2
											c-0.06-0.14-0.03-0.27,0.02-0.35C444.29,235.54,444.45,235.57,444.44,235.62z"/>
									</g>
								</g>
							</g>
						</g>
					</g>
				</g>
				<g>
					<g>
						<g>
							<path style="fill:#609AEF;" d="M441.36,66.05c0,0-19.65,17.38-22.68,35.7c-2.94,17.8-9.43,67.25-9.43,67.25l-8.42,60.19
								l34.7,4.86l15.3-109.37l1.89-13.48c0,0,0.7-7.31-0.89-18.9C450.36,81.66,441.36,66.05,441.36,66.05z"/>
						</g>
					</g>
				</g>
				<g style="opacity:0.3;">
					<g>
						<g>
							<path d="M441.37,66.05c0,0-19.65,17.38-22.68,35.7c-2.94,17.8-9.43,67.25-9.43,67.25l-8.42,60.19l34.7,4.86l15.3-109.37
								l1.89-13.48c0,0,0.7-7.31-0.89-18.9C450.38,81.66,441.37,66.05,441.37,66.05z"/>
						</g>
					</g>
				</g>
				<g>
					<g>
						<g>
							<g>
								<path style="fill:#263238;" d="M451.18,122.19c-0.01,0.09-7.83-0.93-17.45-2.27c-9.63-1.35-17.42-2.51-17.41-2.6
									c0.01-0.09,7.83,0.93,17.45,2.27C443.39,120.93,451.19,122.1,451.18,122.19z"/>
							</g>
						</g>
					</g>
				</g>
				<g>
					<g>
						<g>
							<g>
								<path style="fill:#263238;" d="M413.68,151.67c0,0,0.01,0.02,0,0.07l0,0.04l0,0.01c-0.02,0,0.04,0.01-0.04,0l0-0.01l0-0.03
									l0-0.01l0,0l0,0v0l0.04,0.01l0,0v0l0,0l0,0.01l0,0.03l-0.01,0.07l-0.05-0.01c0.1-1.3,1.04-8.43,2.24-17.01
									c0.68-4.75,1.3-9.04,1.76-12.21c0.24-1.52,0.43-2.78,0.57-3.69c0.07-0.41,0.13-0.74,0.17-1c0.04-0.23,0.07-0.35,0.08-0.35
									c0.01,0,0.01,0.12-0.02,0.36c-0.03,0.27-0.07,0.6-0.11,1.01c-0.12,0.92-0.27,2.18-0.47,3.71
									c-0.43,3.17-1.01,7.47-1.66,12.22c-1.2,8.58-2.26,15.69-2.51,16.97l-0.05-0.01l0.01-0.07l0.01-0.03l0-0.01l0,0l0,0l0,0
									l0.04,0.01v0l0,0l0,0l0,0.01l-0.01,0.03l0,0.01c-0.07-0.01-0.02-0.01-0.04-0.01l0-0.01l0.01-0.04
									C413.67,151.69,413.67,151.67,413.68,151.67z"/>
							</g>
						</g>
					</g>
				</g>
				<g>
					<g>
						<g>
							<g>
								<path style="fill:#263238;" d="M416.14,152.22c-0.09-0.01,0.91-7.69,2.23-17.15c1.32-9.46,2.47-17.12,2.56-17.11
									c0.09,0.01-0.91,7.69-2.23,17.15C417.38,144.57,416.23,152.23,416.14,152.22z"/>
							</g>
						</g>
					</g>
				</g>
				<g>
					<g>
						<g>
							<g>
								<path style="fill:#263238;" d="M418.7,152.58c-0.09-0.01,0.89-7.69,2.2-17.16c1.3-9.47,2.44-17.13,2.53-17.11
									c0.09,0.01-0.89,7.69-2.2,17.16C419.92,144.93,418.79,152.59,418.7,152.58z"/>
							</g>
						</g>
					</g>
				</g>
				<g>
					<g>
						<g>
							<g>
								<path style="fill:#263238;" d="M421.12,152.91c-0.09-0.01,0.91-7.69,2.23-17.15c1.32-9.46,2.47-17.12,2.56-17.11
									c0.09,0.01-0.91,7.69-2.23,17.15C422.36,145.27,421.21,152.93,421.12,152.91z"/>
							</g>
						</g>
					</g>
				</g>
				<g>
					<g>
						<g>
							<g>
								<path style="fill:#263238;" d="M423.5,154.06c-0.09-0.01,0.93-7.87,2.29-17.55c1.35-9.68,2.53-17.52,2.62-17.51
									c0.09,0.01-0.93,7.87-2.29,17.55C424.76,146.23,423.59,154.07,423.5,154.06z"/>
							</g>
						</g>
					</g>
				</g>
				<g>
					<g>
						<g>
							<g>
								<path style="fill:#263238;" d="M425.99,154.41c-0.09-0.01,0.93-7.87,2.29-17.55c1.35-9.68,2.53-17.52,2.62-17.51
									c0.09,0.01-0.93,7.87-2.29,17.55C427.25,146.58,426.08,154.42,425.99,154.41z"/>
							</g>
						</g>
					</g>
				</g>
				<g>
					<g>
						<g>
							<g>
								<path style="fill:#263238;" d="M428.48,154.76c-0.09-0.01,0.93-7.87,2.29-17.55c1.35-9.68,2.53-17.52,2.62-17.51
									c0.09,0.01-0.93,7.87-2.29,17.55C429.74,146.93,428.57,154.77,428.48,154.76z"/>
							</g>
						</g>
					</g>
				</g>
				<g>
					<g>
						<g>
							<g>
								<path style="fill:#263238;" d="M430.97,155.1c-0.09-0.01,0.93-7.87,2.29-17.55c1.35-9.68,2.53-17.52,2.62-17.51
									c0.09,0.01-0.93,7.87-2.29,17.55C432.23,147.28,431.06,155.12,430.97,155.1z"/>
							</g>
						</g>
					</g>
				</g>
				<g>
					<g>
						<g>
							<g>
								<path style="fill:#263238;" d="M433.46,155.45c-0.09-0.01,0.93-7.87,2.29-17.55c1.35-9.68,2.53-17.52,2.62-17.51
									c0.09,0.01-0.93,7.87-2.29,17.55C434.72,147.63,433.55,155.47,433.46,155.45z"/>
							</g>
						</g>
					</g>
				</g>
				<g>
					<g>
						<g>
							<g>
								<path style="fill:#263238;" d="M436.18,155.02c-0.09-0.01,0.88-7.7,2.17-17.16c1.29-9.47,2.41-17.13,2.5-17.12
									c0.09,0.01-0.88,7.69-2.17,17.16C437.39,147.37,436.27,155.03,436.18,155.02z"/>
							</g>
						</g>
					</g>
				</g>
				<g>
					<g>
						<g>
							<g>
								<path style="fill:#263238;" d="M438.55,155.35c-0.01,0-0.01-0.12,0.02-0.35c0.03-0.27,0.06-0.6,0.11-1
									c0.11-0.92,0.27-2.16,0.46-3.68c0.43-3.14,1.01-7.41,1.65-12.12c0.68-4.71,1.29-8.97,1.74-12.11
									c0.23-1.51,0.43-2.75,0.57-3.66c0.07-0.4,0.13-0.73,0.17-0.99c0.04-0.23,0.07-0.34,0.08-0.34c0.01,0,0.01,0.12-0.02,0.35
									c-0.03,0.27-0.06,0.6-0.11,1c-0.11,0.92-0.27,2.16-0.46,3.68c-0.43,3.14-1.01,7.41-1.65,12.12
									c-0.68,4.71-1.29,8.96-1.74,12.1c-0.23,1.51-0.43,2.75-0.57,3.66c-0.07,0.4-0.13,0.73-0.17,0.99
									C438.59,155.24,438.56,155.35,438.55,155.35z"/>
							</g>
						</g>
					</g>
				</g>
				<g>
					<g>
						<g>
							<g>
								<path style="fill:#263238;" d="M441.04,155.7c-0.09-0.01,0.91-7.69,2.23-17.15c1.32-9.46,2.47-17.12,2.56-17.11
									c0.09,0.01-0.91,7.69-2.23,17.15C442.28,148.05,441.13,155.71,441.04,155.7z"/>
							</g>
						</g>
					</g>
				</g>
				<g>
					<g>
						<g>
							<g>
								<path style="fill:#263238;" d="M443.53,156.05c-0.09-0.01,0.91-7.69,2.23-17.15c1.32-9.46,2.47-17.12,2.56-17.11
									c0.09,0.01-0.91,7.69-2.23,17.15C444.77,148.4,443.62,156.06,443.53,156.05z"/>
							</g>
						</g>
					</g>
				</g>
				<g>
					<g>
						<g>
							<g>
								<path style="fill:#263238;" d="M446.02,156.4c-0.09-0.01,0.91-7.69,2.23-17.15c1.32-9.46,2.47-17.12,2.56-17.11
									c0.09,0.01-0.91,7.69-2.23,17.15C447.26,148.75,446.11,156.41,446.02,156.4z"/>
							</g>
						</g>
					</g>
				</g>
				<g>
					<g>
						<g>
							<g>
								<path style="fill:#263238;" d="M446.38,156.45c-0.01,0.09-7.8-0.92-17.39-2.27c-9.59-1.34-17.36-2.5-17.34-2.59
									c0.01-0.09,7.8,0.92,17.39,2.27C438.63,155.2,446.39,156.36,446.38,156.45z"/>
							</g>
						</g>
					</g>
				</g>
				<g>
					<g>
						<path style="fill:#F5F5F5;" d="M459.04,264.13c-0.42-1.41-23.25-32.86-23.25-33.58l2.14-59.86
							c-0.12-1.99-4.28-26.76-4.28-26.76s-0.85-2.35-2.81-2.5c-1.95-0.14-2.5,0.96-2.96,1.43c-0.46,0.46-10.81,20.84-11.43,22.46
							c-0.62,1.62-13.41,59.32-13.41,59.32s-30.12,23.47-31.89,24.81c-1.2,0.9-4,16.75-4,16.75l32.02,6.43l25.5,3.44l33.55,2.04
							C458.23,278.1,459.46,265.53,459.04,264.13z"/>
						<path style="fill:#263238;" d="M458.68,278.63l-34.03-2.07l-25.53-3.44l-32.53-6.54l0.09-0.48
							c0.67-3.76,2.94-16.12,4.19-17.06c1.68-1.27,29.5-22.94,31.74-24.69c0.92-4.14,12.77-57.6,13.39-59.21
							c0.46-1.19,10.92-22.01,11.54-22.64c0.06-0.06,0.13-0.14,0.2-0.23c0.47-0.56,1.25-1.49,3.15-1.35
							c2.25,0.16,3.2,2.72,3.24,2.82c0.19,1.1,4.19,24.91,4.3,26.91l-2.14,59.8c0.51,1,6.02,8.78,10.9,15.66
							c7.52,10.62,12.1,17.12,12.33,17.86l0,0c0.44,1.46-0.67,12.87-0.79,14.17L458.68,278.63z M367.74,265.8l31.54,6.34l25.46,3.43
							l33.04,2c0.47-4.84,1.06-12.34,0.79-13.29c-0.33-0.84-6.91-10.12-12.19-17.58c-10.06-14.2-11.08-15.74-11.08-16.16l2.14-59.88
							c-0.11-1.89-4.21-26.33-4.27-26.66c0,0,0,0,0,0c-0.01,0-0.78-1.97-2.35-2.08c-1.4-0.1-1.9,0.51-2.32,0.99
							c-0.09,0.11-0.17,0.21-0.25,0.29c-0.62,0.83-10.68,20.64-11.31,22.29c-0.48,1.26-8.97,39.3-13.39,59.24l-0.04,0.18l-0.14,0.11
							c-0.3,0.23-30.15,23.49-31.9,24.81C370.79,250.51,369.06,258.39,367.74,265.8z"/>
					</g>
					<g>
						<g>
							<g>
								<path style="fill:#F5F5F5;" d="M438.01,169.95c-0.52-4.2-4.22-26.2-4.22-26.2s-0.85-2.35-2.81-2.5
									c-1.95-0.14-2.5,0.96-2.96,1.43c-0.46,0.46-10.81,20.84-11.43,22.46c-0.06,0.15-0.21,0.76-0.45,1.75L438.01,169.95z"/>
							</g>
						</g>
					</g>
					<g>
						<g>
							<g>
								<path style="fill:#F5F5F5;" d="M399.63,276.34l2.01-16.36l2.78-5.85l6.83-49.61l4.9-37.65l21.86,3.06l-12.61,87.18l1.4,6.09
									l-3.4,24.3l-11.44-1.6l3.32-25.05c0.08-0.63-0.36-1.21-0.99-1.3l0,0c-0.64-0.09-1.22,0.36-1.31,0.99l-3.45,25.03
									l-10.89-1.52L399.63,276.34z"/>
							</g>
						</g>
					</g>
					<g>
						<g>
							<g>
								<g>
									<path style="fill:#609AEF;" d="M396.66,254.79c-0.34,2.41-2.56,4.08-4.96,3.75c-2.41-0.34-4.08-2.56-3.75-4.96
										c0.34-2.41,2.56-4.08,4.96-3.75C395.32,250.17,397,252.39,396.66,254.79z"/>
								</g>
							</g>
						</g>
					</g>
					<g>
						<g>
							<g>
								<g>
									<path style="fill:#263238;" d="M425.13,179.67c0.09,0.01-2.33,17.86-5.41,39.87c-3.08,22.01-5.65,39.84-5.74,39.82
										c-0.09-0.01,2.33-17.86,5.41-39.87C422.47,197.49,425.04,179.66,425.13,179.67z"/>
								</g>
							</g>
						</g>
					</g>
					<g>
						<g>
							<g>
								
									<rect x="423.98" y="173.03" transform="matrix(0.9904 0.1386 -0.1386 0.9904 28.2648 -57.1758)" style="fill:#609AEF;" width="1.56" height="2.74"/>
							</g>
						</g>
					</g>
					<g>
						<g>
							<g>
								
									<rect x="427.43" y="173.52" transform="matrix(0.9904 0.1386 -0.1386 0.9904 28.3633 -57.647)" style="fill:#609AEF;" width="1.56" height="2.74"/>
							</g>
						</g>
					</g>
					<g>
						<g>
							<g>
								<path style="fill:#263238;" d="M421.12,165.4l1.7,2.38l8.54,1.2l2.29-1.72c0,0-1.79-2.4-6.04-3
									C423.94,163.74,421.12,165.4,421.12,165.4z"/>
							</g>
						</g>
					</g>
					<g>
						<g>
							<g>
								<g>
									<path style="fill:#263238;" d="M436.49,180.44c-0.01,0.09-4.88-0.52-10.88-1.35c-6-0.84-10.85-1.59-10.83-1.68
										c0.01-0.09,4.88,0.52,10.88,1.35C431.65,179.6,436.51,180.35,436.49,180.44z"/>
								</g>
							</g>
						</g>
					</g>
					<g>
						<g>
							<g>
								<g>
									<path style="fill:#263238;" d="M436.2,157.97c-0.01,0.09-3.31-0.3-7.36-0.86c-4.05-0.57-7.32-1.1-7.31-1.19
										c0.01-0.09,3.31,0.29,7.36,0.86C432.94,157.35,436.21,157.88,436.2,157.97z"/>
								</g>
							</g>
						</g>
					</g>
					<g>
						<g>
							<g>
								<g>
									<path style="fill:#263238;" d="M416.38,179.51c-0.01,0.05-0.09,0.08-0.14,0.18c-0.05,0.11-0.03,0.2,0.09,0.23
										c0.13,0.02,0.18-0.05,0.17-0.17c0-0.11-0.07-0.17-0.06-0.22c0-0.04,0.17-0.06,0.28,0.14c0.05,0.09,0.08,0.24,0,0.39
										c-0.08,0.16-0.29,0.23-0.46,0.19c-0.17-0.03-0.33-0.18-0.35-0.35c-0.02-0.17,0.07-0.29,0.15-0.36
										C416.24,179.39,416.4,179.47,416.38,179.51z"/>
								</g>
							</g>
						</g>
					</g>
					<g>
						<g>
							<g>
								<g>
									<path style="fill:#263238;" d="M418.56,179.81c-0.01,0.05-0.09,0.08-0.14,0.18c-0.05,0.11-0.03,0.2,0.09,0.23
										c0.13,0.02,0.18-0.05,0.17-0.17c0-0.11-0.07-0.17-0.06-0.22c0-0.04,0.17-0.06,0.28,0.14c0.05,0.09,0.08,0.24,0,0.39
										c-0.08,0.16-0.29,0.23-0.46,0.19c-0.17-0.03-0.33-0.18-0.35-0.35c-0.02-0.17,0.07-0.29,0.15-0.36
										C418.43,179.69,418.58,179.78,418.56,179.81z"/>
								</g>
							</g>
						</g>
					</g>
					<g>
						<g>
							<g>
								<g>
									<path style="fill:#263238;" d="M420.93,180.15c-0.01,0.05-0.09,0.08-0.14,0.18c-0.05,0.11-0.03,0.2,0.09,0.23
										c0.13,0.02,0.18-0.05,0.17-0.17c0-0.11-0.07-0.17-0.06-0.22c0-0.04,0.17-0.06,0.28,0.14c0.05,0.09,0.08,0.24,0,0.39
										c-0.08,0.16-0.29,0.23-0.46,0.19c-0.17-0.03-0.33-0.18-0.35-0.35c-0.02-0.17,0.07-0.29,0.15-0.36
										C420.8,180.02,420.95,180.11,420.93,180.15z"/>
								</g>
							</g>
						</g>
					</g>
					<g>
						<g>
							<g>
								<g>
									<path style="fill:#263238;" d="M423.3,180.48c-0.01,0.05-0.09,0.08-0.14,0.18c-0.05,0.11-0.03,0.2,0.09,0.23
										c0.13,0.02,0.18-0.05,0.17-0.17c0-0.11-0.07-0.17-0.06-0.22c0-0.04,0.17-0.06,0.28,0.14c0.05,0.09,0.08,0.24,0,0.39
										c-0.08,0.16-0.29,0.23-0.46,0.19c-0.17-0.03-0.33-0.18-0.35-0.35c-0.02-0.17,0.07-0.29,0.15-0.36
										C423.16,180.36,423.31,180.44,423.3,180.48z"/>
								</g>
							</g>
						</g>
					</g>
					<g>
						<g>
							<g>
								<g>
									<path style="fill:#263238;" d="M428,238.59c-0.01,0.09-4.76-0.5-10.61-1.32c-5.85-0.82-10.58-1.56-10.57-1.65
										c0.01-0.09,4.76,0.5,10.61,1.32C423.28,237.76,428.01,238.5,428,238.59z"/>
								</g>
							</g>
						</g>
					</g>
					<g>
						<g>
							<g>
								<g>
									<path style="fill:#263238;" d="M433.47,201.04c-0.01,0.09-4.81-0.51-10.71-1.33c-5.9-0.83-10.68-1.57-10.67-1.66
										c0.01-0.09,4.81,0.51,10.71,1.33C428.71,200.2,433.48,200.94,433.47,201.04z"/>
								</g>
							</g>
						</g>
					</g>
					<g>
						<g>
							<g>
								<g>
									<path style="fill:#263238;" d="M430.64,221.28c-0.01,0.09-4.75-0.5-10.58-1.31c-5.83-0.82-10.55-1.55-10.54-1.64
										c0.01-0.09,4.75,0.5,10.58,1.31C425.93,220.46,430.65,221.19,430.64,221.28z"/>
								</g>
							</g>
						</g>
					</g>
					<g>
						<g>
							<g>
								<g>
									<path style="fill:#263238;" d="M412.55,261.67c-0.01,0.09-2.49-0.18-5.53-0.61c-3.04-0.43-5.5-0.84-5.49-0.94
										c0.01-0.09,2.49,0.18,5.53,0.61C410.11,261.16,412.56,261.58,412.55,261.67z"/>
								</g>
							</g>
						</g>
					</g>
					<g>
						<g>
							<g>
								<g>
									<path style="fill:#263238;" d="M411.99,266.17c-0.01,0.09-2.41-0.17-5.35-0.58c-2.94-0.41-5.32-0.82-5.3-0.91
										s2.41,0.17,5.35,0.58C409.63,265.67,412.01,266.08,411.99,266.17z"/>
								</g>
							</g>
						</g>
					</g>
					<g>
						<g>
							<g>
								<g>
									<path style="fill:#263238;" d="M411.68,270.03c-0.01,0.09-2.47-0.18-5.49-0.6c-3.02-0.42-5.46-0.84-5.45-0.93
										c0.01-0.09,2.47,0.18,5.5,0.6C409.25,269.53,411.69,269.94,411.68,270.03z"/>
								</g>
							</g>
						</g>
					</g>
					<g>
						<g>
							<g>
								<g>
									<path style="fill:#263238;" d="M410.95,274.14c-0.01,0.09-2.42-0.17-5.38-0.59c-2.96-0.41-5.35-0.82-5.34-0.91
										c0.01-0.09,2.42,0.17,5.39,0.59C408.58,273.64,410.97,274.05,410.95,274.14z"/>
								</g>
							</g>
						</g>
					</g>
					<g>
						<g>
							<g>
								<g>
									<path style="fill:#263238;" d="M410.43,277.91c-0.01,0.09-2.42-0.17-5.38-0.59c-2.96-0.41-5.35-0.82-5.34-0.91
										s2.42,0.17,5.39,0.59C408.05,277.41,410.44,277.82,410.43,277.91z"/>
								</g>
							</g>
						</g>
					</g>
					<g>
						<g>
							<g>
								<g>
									<path style="fill:#263238;" d="M409.9,281.68c-0.01,0.09-2.42-0.17-5.38-0.59c-2.96-0.41-5.35-0.82-5.34-0.91
										c0.01-0.09,2.42,0.17,5.39,0.59C407.52,281.18,409.91,281.59,409.9,281.68z"/>
								</g>
							</g>
						</g>
					</g>
					<g>
						<g>
							<g>
								<g>
									<path style="fill:#263238;" d="M426.27,263.59c-0.01,0.09-2.49-0.18-5.53-0.61c-3.04-0.43-5.5-0.84-5.49-0.94
										s2.49,0.18,5.53,0.61C423.82,263.08,426.28,263.5,426.27,263.59z"/>
								</g>
							</g>
						</g>
					</g>
					<g>
						<g>
							<g>
								<g>
									<path style="fill:#263238;" d="M425.71,268.09c-0.01,0.09-2.41-0.17-5.35-0.58c-2.94-0.41-5.32-0.82-5.3-0.91
										c0.01-0.09,2.41,0.17,5.35,0.58C423.35,267.59,425.73,268,425.71,268.09z"/>
								</g>
							</g>
						</g>
					</g>
					<g>
						<g>
							<g>
								<g>
									<path style="fill:#263238;" d="M425.4,271.95c-0.01,0.09-2.47-0.18-5.49-0.6c-3.02-0.42-5.46-0.84-5.45-0.93
										c0.01-0.09,2.47,0.18,5.5,0.6C422.97,271.45,425.41,271.86,425.4,271.95z"/>
								</g>
							</g>
						</g>
					</g>
					<g>
						<g>
							<g>
								<g>
									<path style="fill:#263238;" d="M424.67,276.06c-0.01,0.09-2.42-0.17-5.38-0.59c-2.96-0.41-5.35-0.82-5.34-0.91
										c0.01-0.09,2.42,0.17,5.39,0.59C422.29,275.56,424.68,275.97,424.67,276.06z"/>
								</g>
							</g>
						</g>
					</g>
					<g>
						<g>
							<g>
								<g>
									<path style="fill:#263238;" d="M424.14,279.83c-0.01,0.09-2.42-0.17-5.38-0.59c-2.96-0.41-5.35-0.82-5.34-0.91
										c0.01-0.09,2.42,0.17,5.39,0.59C421.77,279.33,424.16,279.74,424.14,279.83z"/>
								</g>
							</g>
						</g>
					</g>
					<g>
						<g>
							<g>
								<g>
									<path style="fill:#263238;" d="M423.62,283.6c-0.01,0.09-2.42-0.17-5.38-0.59c-2.96-0.41-5.35-0.82-5.34-0.91
										c0.01-0.09,2.42,0.17,5.39,0.59C421.24,283.1,423.63,283.51,423.62,283.6z"/>
								</g>
							</g>
						</g>
					</g>
					<g>
						<g>
							<g>
								<path style="fill:#F5F5F5;" d="M416.46,165.31"/>
							</g>
						</g>
					</g>
					<g>
						<g>
							<g>
								<g>
									<g>
										<path style="fill:#FFFFFF;" d="M428.39,165.59c0.04,0.08-0.62,0.45-1.47,0.81c-0.85,0.37-1.56,0.59-1.6,0.51
											c-0.04-0.08,0.62-0.45,1.47-0.81C427.64,165.73,428.35,165.51,428.39,165.59z"/>
									</g>
								</g>
							</g>
						</g>
						<g>
							<g>
								<g>
									<g>
										<path style="fill:#FFFFFF;" d="M429.4,165.83c0.06,0.1-0.53,0.45-1.29,0.78c-0.76,0.33-1.4,0.52-1.44,0.44
											c-0.04-0.08,0.55-0.41,1.31-0.74C428.74,165.97,429.38,165.77,429.4,165.83z"/>
									</g>
								</g>
							</g>
						</g>
					</g>
				</g>
				<g>
					<g>
						<g>
							<g>
								<path style="fill:#263238;" d="M416.4,165.56c0.09,0.01-2.53,19.8-5.86,44.18c-3.33,24.4-6.1,44.16-6.19,44.14
									c-0.09-0.01,2.53-19.79,5.86-44.19C413.54,185.32,416.31,165.55,416.4,165.56z"/>
							</g>
						</g>
					</g>
				</g>
				<g>
					<g>
						<g>
							<g>
								<path style="fill:#263238;" d="M425.48,256.62c-0.09-0.01,2.53-18.6,5.84-41.51c3.32-22.92,6.08-41.48,6.17-41.46
									c0.09,0.01-2.53,18.6-5.84,41.51C428.33,238.07,425.57,256.63,425.48,256.62z"/>
							</g>
						</g>
					</g>
				</g>
				<g>
					<g>
						<g>
							
								<rect x="429.87" y="260.35" transform="matrix(0.9904 0.1386 -0.1386 0.9904 40.5265 -57.9264)" style="fill:#609AEF;" width="12.75" height="3.44"/>
						</g>
					</g>
				</g>
				<g>
					<g>
						<g>
							<g>
								<path style="fill:#263238;" d="M441.36,66.05c0.09,0.01-1.49,11.96-3.52,26.68c-2.04,14.72-3.76,26.65-3.85,26.63
									c-0.09-0.01,1.49-11.96,3.52-26.68C439.54,77.96,441.27,66.03,441.36,66.05z"/>
							</g>
						</g>
					</g>
				</g>
				<g>
					<g>
						<g>
							<g>
								<path style="fill:#263238;" d="M435.57,116.32c-0.01-0.04,0.18-0.11,0.37,0.08c0.09,0.09,0.17,0.25,0.14,0.44
									c-0.03,0.2-0.23,0.37-0.44,0.4c-0.21,0.04-0.44-0.05-0.54-0.24c-0.1-0.18-0.07-0.35-0.01-0.47c0.12-0.25,0.33-0.24,0.33-0.2
									c0.02,0.04-0.09,0.12-0.1,0.27c-0.02,0.17,0.06,0.34,0.28,0.3c0.21-0.03,0.24-0.22,0.17-0.37
									C435.69,116.4,435.57,116.36,435.57,116.32z"/>
							</g>
						</g>
					</g>
				</g>
				<g>
					<g>
						<g>
							<g>
								<path style="fill:#263238;" d="M436.82,107.38c-0.01-0.04,0.18-0.11,0.37,0.08c0.09,0.09,0.17,0.25,0.14,0.44
									c-0.03,0.2-0.23,0.37-0.44,0.4c-0.21,0.04-0.44-0.05-0.54-0.24c-0.1-0.18-0.07-0.35-0.01-0.47c0.12-0.25,0.33-0.24,0.33-0.2
									c0.02,0.04-0.09,0.12-0.1,0.27c-0.02,0.17,0.06,0.34,0.28,0.3c0.21-0.03,0.24-0.22,0.17-0.37
									C436.94,107.46,436.82,107.43,436.82,107.38z"/>
							</g>
						</g>
					</g>
				</g>
				<g>
					<g>
						<g>
							<g>
								<path style="fill:#263238;" d="M438.07,98.44c-0.01-0.04,0.18-0.11,0.37,0.08c0.09,0.09,0.17,0.25,0.14,0.44
									c-0.03,0.2-0.23,0.37-0.44,0.4c-0.21,0.04-0.44-0.05-0.54-0.24c-0.1-0.18-0.07-0.35-0.01-0.47c0.12-0.25,0.33-0.24,0.33-0.2
									c0.02,0.04-0.09,0.12-0.1,0.27c-0.02,0.17,0.06,0.34,0.28,0.3c0.21-0.03,0.24-0.22,0.17-0.37
									C438.19,98.53,438.07,98.49,438.07,98.44z"/>
							</g>
						</g>
					</g>
				</g>
				<g>
					<g>
						<g>
							<g>
								<path style="fill:#263238;" d="M439.32,89.51c-0.01-0.04,0.18-0.11,0.37,0.08c0.09,0.09,0.17,0.25,0.14,0.44
									c-0.03,0.2-0.23,0.37-0.44,0.4c-0.21,0.04-0.44-0.05-0.54-0.24c-0.1-0.18-0.07-0.35-0.01-0.47c0.12-0.25,0.33-0.24,0.33-0.2
									c0.02,0.04-0.09,0.12-0.1,0.27c-0.02,0.17,0.06,0.34,0.28,0.3c0.21-0.03,0.24-0.22,0.17-0.37
									C439.44,89.59,439.32,89.56,439.32,89.51z"/>
							</g>
						</g>
					</g>
				</g>
				<g>
					<g>
						<g>
							<g>
								<path style="fill:#263238;" d="M440.57,80.57c-0.01-0.04,0.18-0.11,0.37,0.08c0.09,0.09,0.17,0.25,0.14,0.44
									c-0.03,0.2-0.23,0.37-0.44,0.4c-0.21,0.04-0.44-0.05-0.54-0.24c-0.1-0.18-0.07-0.35-0.01-0.47c0.12-0.25,0.33-0.24,0.33-0.2
									c0.02,0.04-0.09,0.12-0.1,0.27c-0.02,0.17,0.06,0.34,0.28,0.3c0.21-0.03,0.24-0.22,0.17-0.37
									C440.69,80.65,440.57,80.62,440.57,80.57z"/>
							</g>
						</g>
					</g>
				</g>
				<g>
					<g>
						<g>
							<g>
								<path style="fill:#263238;" d="M441.82,71.64c-0.01-0.04,0.18-0.11,0.37,0.08c0.09,0.09,0.17,0.25,0.14,0.44
									c-0.03,0.2-0.23,0.37-0.44,0.4c-0.21,0.04-0.44-0.05-0.54-0.24c-0.1-0.18-0.07-0.35-0.01-0.47c0.12-0.25,0.33-0.24,0.33-0.2
									c0.02,0.05-0.09,0.12-0.1,0.27c-0.02,0.17,0.06,0.34,0.28,0.3c0.21-0.03,0.24-0.22,0.17-0.37
									C441.94,71.72,441.82,71.68,441.82,71.64z"/>
							</g>
						</g>
					</g>
				</g>
				<g>
					<g>
						<g>
							<g>
								<path style="fill:#FFFFFF;" d="M430.84,80.1c0.02,0.01-0.21,0.33-0.64,0.88c-0.43,0.55-1.04,1.36-1.76,2.38
									c-0.72,1.02-1.53,2.27-2.36,3.69c-0.82,1.43-1.66,3.04-2.44,4.77c-0.77,1.74-1.39,3.44-1.9,5.01
									c-0.49,1.57-0.88,3.01-1.15,4.22c-0.27,1.22-0.47,2.21-0.58,2.9c-0.12,0.69-0.2,1.07-0.22,1.06c-0.02,0,0.01-0.39,0.09-1.08
									c0.07-0.7,0.23-1.7,0.48-2.93c0.24-1.23,0.61-2.68,1.09-4.27c0.5-1.58,1.12-3.3,1.89-5.05c0.78-1.75,1.64-3.36,2.47-4.79
									c0.85-1.42,1.68-2.67,2.43-3.67c0.75-1.01,1.38-1.8,1.85-2.32C430.56,80.37,430.82,80.08,430.84,80.1z"/>
							</g>
						</g>
					</g>
				</g>
				<g>
					<g>
						<g>
							<g>
								<path style="fill:#FFFFFF;" d="M434.5,75.31c0.07,0.05-0.19,0.54-0.6,1.08c-0.4,0.54-0.79,0.94-0.86,0.88
									c-0.07-0.05,0.19-0.54,0.6-1.08C434.04,75.65,434.43,75.25,434.5,75.31z"/>
							</g>
						</g>
					</g>
				</g>
				<g>
					<g>
						<g>
							<g>
								<path style="fill:#FFFFFF;" d="M414.69,150.64c-0.09-0.01,0.82-7.04,2.03-15.69c1.21-8.65,2.27-15.66,2.36-15.65
									c0.09,0.01-0.82,7.04-2.03,15.69C415.84,143.64,414.78,150.65,414.69,150.64z"/>
							</g>
						</g>
					</g>
				</g>
				<g>
					<g>
						<g>
							<g>
								<path style="fill:#FFFFFF;" d="M418.4,141.1c-0.09-0.01,0.13-2.15,0.5-4.76c0.37-2.62,0.74-4.73,0.83-4.72
									c0.09,0.01-0.13,2.14-0.5,4.76C418.86,139,418.49,141.11,418.4,141.1z"/>
							</g>
						</g>
					</g>
				</g>
				<g>
					<g>
						<g>
							<g>
								<path style="fill:#FFFFFF;" d="M421.56,138.19c-0.09-0.01-0.06-0.8,0.08-1.76c0.13-0.96,0.32-1.73,0.41-1.72
									c0.09,0.01,0.06,0.8-0.08,1.76C421.84,137.43,421.65,138.2,421.56,138.19z"/>
							</g>
						</g>
					</g>
				</g>
				<g>
					<g>
						<g>
							<g>
								<path style="fill:#FFFFFF;" d="M407.44,192.62c-0.09-0.01,0.99-8.29,2.42-18.5c1.43-10.2,2.66-18.46,2.75-18.45
									c0.09,0.01-0.99,8.29-2.42,18.5C408.76,184.37,407.53,192.63,407.44,192.62z"/>
							</g>
						</g>
					</g>
				</g>
				<g>
					<g>
						<g>
							<g>
								<path style="fill:none;stroke:#FFFFFF;stroke-width:0.05;stroke-miterlimit:10;" d="M428.86,165.61"/>
							</g>
						</g>
					</g>
				</g>
			</g>
		</g>
	</g>
	<g>
		<g>
			<g>
				<path style="fill:#263238;" d="M360.78,272.12l2.66,1l-2.31,0.66c-0.77,0.22-1.38,0.81-1.63,1.57l-0.84,2.56l-1.03-2.56
					c-0.26-0.64-0.77-1.13-1.41-1.37l-2.34-0.85l2.53-1.04c0.61-0.25,1.09-0.74,1.33-1.36l0.92-2.38l0.66,2.21
					C359.54,271.28,360.08,271.86,360.78,272.12z"/>
			</g>
		</g>
		<g>
			<g>
				<path style="fill:#263238;" d="M308.37,270.59l1.53,0.58l-1.33,0.38c-0.44,0.13-0.8,0.46-0.94,0.9l-0.48,1.47l-0.59-1.47
					c-0.15-0.37-0.44-0.65-0.81-0.79l-1.34-0.49l1.46-0.6c0.35-0.14,0.63-0.43,0.77-0.78l0.53-1.37l0.38,1.27
					C307.66,270.11,307.97,270.44,308.37,270.59z"/>
			</g>
		</g>
		<g>
			<g>
				<path style="fill:#455A64;" d="M318.98,206.03c-8.51,0-15.41-6.9-15.41-15.41c0-4.91,2.3-9.29,5.89-12.11
					c-5.8,2.21-9.92,7.82-9.92,14.4c0,8.51,6.9,15.41,15.41,15.41c3.6,0,6.9-1.23,9.52-3.3
					C322.76,205.67,320.91,206.03,318.98,206.03z"/>
			</g>
		</g>
		<g>
			<g>
				<g>
					<g>
						
							<ellipse transform="matrix(0.2599 -0.9656 0.9656 0.2599 127.2774 722.7166)" style="fill:#F5F5F5;" cx="535.11" cy="278.33" rx="25.65" ry="25.65"/>
					</g>
				</g>
			</g>
			<g>
				<g>
					<g>
						<path style="fill:#FFFFFF;" d="M556.7,274.74c-0.5,3.58-3.81,6.07-7.38,5.57c-3.58-0.5-6.07-3.81-5.57-7.38
							s3.81-6.07,7.38-5.57C554.71,267.86,557.2,271.17,556.7,274.74z"/>
					</g>
				</g>
			</g>
			<g>
				<g>
					<g>
						<path style="fill:#FFFFFF;" d="M547.1,262.93c-0.2,1.44-1.54,2.45-2.98,2.25c-1.44-0.2-2.45-1.54-2.25-2.98
							c0.2-1.44,1.54-2.45,2.98-2.25C546.3,260.15,547.31,261.48,547.1,262.93z"/>
					</g>
				</g>
			</g>
			<g>
				<g>
					<g>
						<path style="fill:#EBEBEB;" d="M549.1,295.99c-0.15,1.07-1.14,1.82-2.21,1.67c-1.07-0.15-1.82-1.14-1.67-2.21
							c0.15-1.07,1.14-1.82,2.22-1.67C548.51,293.93,549.25,294.92,549.1,295.99z"/>
					</g>
				</g>
			</g>
		</g>
		<g>
			<g>
				<g>
					<polygon style="fill:#E0E0E0;" points="542.39,188.44 543.4,191.13 545.7,192.84 543.02,193.85 541.31,196.15 540.29,193.47 
						538,191.76 540.68,190.74 					"/>
				</g>
			</g>
		</g>
		<g>
			<g>
				<g>
					<polygon style="fill:#E0E0E0;" points="348.41,219.7 349.42,222.38 351.72,224.09 349.04,225.1 347.33,227.4 346.32,224.72 
						344.02,223.01 346.7,222 					"/>
				</g>
			</g>
		</g>
		<g>
			<g>
				<g>
					<polygon style="fill:#E0E0E0;" points="328.56,263.53 329,264.7 330,265.44 328.84,265.88 328.09,266.88 327.65,265.71 
						326.66,264.97 327.82,264.53 					"/>
				</g>
			</g>
		</g>
		<g>
			<g>
				<g>
					<g>
						<path style="fill:#FFFFFF;" d="M334.4,166.14c0.54-1.91-1.99-3.91-4.04-4.36c-0.98-0.22-2.02-0.21-2.91-0.67
							c-1.93-0.99-2.37-3.72-4.23-4.83c-1.39-0.83-3.17-0.51-4.7,0.01c-1.53,0.52-3.08,1.23-4.69,1.11
							c-1.41-0.11-2.85-0.83-4.16-0.32c-0.98,0.38-1.6,1.36-2.52,1.86c-0.9,0.49-1.99,0.47-3.01,0.38
							c-1.02-0.09-2.08-0.22-3.06,0.07c-0.98,0.29-1.89,1.17-1.83,2.19L334.4,166.14z"/>
					</g>
				</g>
			</g>
		</g>
		<g>
			<g>
				<g>
					<g>
						<path style="fill:#FFFFFF;" d="M347.73,249.76c1-3.55-3.69-7.24-7.48-8.09c-1.81-0.4-3.75-0.39-5.4-1.24
							c-3.57-1.83-4.39-6.9-7.84-8.96c-2.58-1.54-5.88-0.95-8.72,0.01c-2.84,0.97-5.7,2.28-8.7,2.06c-2.6-0.2-5.27-1.55-7.71-0.6
							c-1.81,0.7-2.97,2.52-4.68,3.45c-1.67,0.91-3.69,0.87-5.58,0.71c-1.9-0.16-3.85-0.41-5.67,0.13c-1.82,0.55-3.5,2.16-3.4,4.06
							L347.73,249.76z"/>
					</g>
				</g>
			</g>
		</g>
		<g>
			<g>
				<g>
					<g>
						<path style="fill:#FAFAFA;" d="M564.64,233.87c0.83-2.94-3.05-5.99-6.19-6.69c-1.5-0.33-3.1-0.32-4.47-1.02
							c-2.96-1.52-3.64-5.71-6.49-7.41c-2.13-1.27-4.86-0.79-7.22,0.01c-2.35,0.8-4.72,1.89-7.2,1.7c-2.16-0.16-4.36-1.28-6.38-0.5
							c-1.5,0.58-2.46,2.09-3.87,2.85c-1.39,0.75-3.05,0.72-4.62,0.58c-1.57-0.13-3.19-0.34-4.69,0.11
							c-1.51,0.45-2.89,1.79-2.81,3.36L564.64,233.87z"/>
					</g>
				</g>
			</g>
		</g>
		<g>
			<g>
				<g>
					<g>
						<g>
							<g>
								<g>
									<g>
										<g>
											<path style="fill:#E0E0E0;" d="M272.74,297.49l0.25,0.58c0.28,0.65,0.73,1.2,1.31,1.6l0.52,0.35l-0.58,0.25
												c-0.65,0.28-1.2,0.73-1.59,1.31l-0.35,0.52l-0.25-0.58c-0.28-0.65-0.73-1.2-1.31-1.59l-0.52-0.35l0.58-0.25
												c0.65-0.27,1.2-0.73,1.59-1.31L272.74,297.49z"/>
										</g>
									</g>
								</g>
							</g>
						</g>
					</g>
				</g>
			</g>
		</g>
		<g>
			<g>
				<g>
					<g>
						<g>
							<g>
								<g>
									<g>
										<g>
											<g>
												<g>
													
														<ellipse transform="matrix(0.1286 -0.9917 0.9917 0.1286 232.1721 667.4901)" style="fill:#E0E0E0;" cx="495.92" cy="201.63" rx="13.6" ry="13.6"/>
												</g>
											</g>
										</g>
									</g>
								</g>
							</g>
						</g>
					</g>
				</g>
				<g>
					<g>
						<g>
							<g>
								<g>
									<g>
										<g>
											<g>
												<g>
													<path style="fill:#FFFFFF;" d="M493.58,205.59c-0.17,1.21-1.29,2.06-2.5,1.89c-1.21-0.17-2.06-1.29-1.89-2.5
														c0.17-1.21,1.29-2.06,2.5-1.89C492.91,203.25,493.75,204.37,493.58,205.59z"/>
												</g>
											</g>
										</g>
									</g>
								</g>
							</g>
						</g>
					</g>
				</g>
				<g>
					<g>
						<g>
							<g>
								<g>
									<g>
										<g>
											<g>
												<g>
													<path style="fill:#FFFFFF;" d="M491.36,198.81c-0.1,0.71-0.75,1.2-1.46,1.1c-0.71-0.1-1.2-0.75-1.1-1.46
														c0.1-0.71,0.75-1.2,1.46-1.1C490.96,197.45,491.45,198.11,491.36,198.81z"/>
												</g>
											</g>
										</g>
									</g>
								</g>
							</g>
						</g>
					</g>
				</g>
			</g>
			<g>
				<g>
					<g>
						<g>
							<g>
								<g>
									<g>
										<g>
											<g>
												<path style="fill:#FAFAFA;" d="M482.4,203.07c0.03,0.24-13.11,9.74-10.46,12.52c2.66,2.79,16.07-1.53,27.99-8.68
													c11.92-7.15,23.17-16.29,20.89-19.44c-2.29-3.16-16.83,3.2-16.83,3.2l1.46,1.24c0,0,8.82-4.06,11.1-1.69
													c2.28,2.37-6.12,9.22-17.47,15.3c-11.35,6.08-22.04,9.96-23.3,7.69c-1.26-2.28,6.99-8.13,6.99-8.13L482.4,203.07z"/>
											</g>
										</g>
									</g>
								</g>
							</g>
						</g>
					</g>
				</g>
			</g>
			<g>
				<g>
					<g>
						<g>
							<g>
								<g>
									<g>
										<g>
											<g>
												<g>
													<path style="fill:#FFFFFF;" d="M489.83,191.1c0.09,0.15-0.93,0.79-2.18,2.2c-1.25,1.39-2.67,3.66-3.12,6.46
														c-0.45,2.81,0.19,5.41,0.94,7.12c0.75,1.73,1.52,2.66,1.38,2.77c-0.08,0.08-1.08-0.69-2.05-2.45
														c-0.49-0.87-0.94-1.99-1.21-3.29c-0.27-1.3-0.35-2.79-0.11-4.32c0.25-1.53,0.79-2.92,1.45-4.07
														c0.67-1.15,1.44-2.08,2.18-2.75C488.59,191.42,489.78,191,489.83,191.1z"/>
												</g>
											</g>
										</g>
									</g>
								</g>
							</g>
						</g>
					</g>
				</g>
			</g>
		</g>
		<g>
			<g>
				<g>
					<polygon style="fill:#263238;" points="477.02,291.18 478.03,293.86 480.33,295.57 477.65,296.58 475.94,298.88 474.93,296.2 
						472.63,294.49 475.31,293.48 					"/>
				</g>
			</g>
		</g>
		<g>
			<g>
				<g>
					<polygon style="fill:#263238;" points="496.6,281.7 497.06,282.92 498.11,283.7 496.89,284.17 496.1,285.22 495.64,283.99 
						494.59,283.21 495.81,282.75 					"/>
				</g>
			</g>
		</g>
		<g>
			<g>
				<g>
					<polygon style="fill:#263238;" points="373.52,201.35 374.53,204.03 376.83,205.74 374.15,206.76 372.44,209.06 371.43,206.38 
						369.13,204.67 371.81,203.65 					"/>
				</g>
			</g>
		</g>
		<g>
			<g>
				<g>
					<polygon style="fill:#263238;" points="475.03,243.22 476.04,245.9 478.34,247.61 475.66,248.63 473.95,250.93 472.94,248.24 
						470.64,246.53 473.32,245.52 					"/>
				</g>
			</g>
		</g>
		<g>
			<g>
				<g>
					<polygon style="fill:#263238;" points="346.12,182 346.59,183.22 347.64,184 346.41,184.47 345.63,185.52 345.17,184.29 
						344.12,183.51 345.34,183.05 					"/>
				</g>
			</g>
		</g>
		<g>
			<g>
				<g>
					<polygon style="fill:#263238;" points="365.88,168.95 366.35,170.17 367.4,170.95 366.17,171.42 365.39,172.47 364.93,171.24 
						363.88,170.46 365.1,170 					"/>
				</g>
			</g>
		</g>
	</g>
</g>
<g id="Character">
	<g>
		<path style="fill:#AFDDF2;" d="M235.13,108.35c-1.29-1.77-4.19-1.49-5.83-0.03c-1.63,1.46-2.34,3.66-3.06,5.73
			s-1.64,4.24-3.48,5.42c2.86-1.18,6.43-3.48,9.04-4.57C234.4,113.82,236.79,110.64,235.13,108.35z"/>
	</g>
	<g>
		<path style="fill:#AFDDF2;" d="M221.21,123.55c1.63-0.85,5.08-1.61,6.88-1.23c1.8,0.38,3.46,1.39,4.62,2.82
			c0.33,0.41,0.63,0.87,0.73,1.4c0.1,0.52-0.05,1.11-0.46,1.44c-0.38,0.3-0.91,0.32-1.39,0.26c-1.71-0.22-3.15-1.35-4.51-2.4
			C225.7,124.79,222.93,123.6,221.21,123.55"/>
	</g>
</g>
</svg>
