<?xml version="1.0" encoding="utf-8"?>
<!-- Generator: Adobe Illustrator 22.0.1, SVG Export Plug-In . SVG Version: 6.00 Build 0)  -->
<svg version="1.1" id="Capa_1" xmlns="http://www.w3.org/2000/svg" xmlns:xlink="http://www.w3.org/1999/xlink" x="0px" y="0px"
	 viewBox="0 0 532.7 423" style="enable-background:new 0 0 532.7 423;" xml:space="preserve">
<style type="text/css">
	.st0{fill:#F5F5F5;}
	.st1{fill:#F4F4AE;}
	.st2{fill:#E0E0E0;}
	.st3{fill:#EBEBEB;}
	.st4{fill:#FFFFFF;}
	.st5{fill:#F2B9B3;}
	.st6{display:none;}
	.st7{display:inline;}
	.st8{fill:#455A64;}
	.st9{fill:#EB996E;}
	.st10{fill:#AFDDF2;}
	.st11{fill:#263238;}
	.st12{fill:#609AEF;}
	.st13{fill:#336BAF;}
	.st14{opacity:0.3;}
	.st15{fill:none;stroke:#FFFFFF;stroke-width:5.000000e-02;stroke-miterlimit:10;}
	.st16{fill:#FAFAFA;}
</style>
<g id="Background_Complete">
	<g>
		<g>
			<path class="st0" d="M100.1,347.3c0,4.1-3.4,7.5-7.5,7.5c-4.1,0-7.5-3.4-7.5-7.5c0-4.1,3.4-7.5,7.5-7.5
				C96.7,339.8,100.1,343.1,100.1,347.3z"/>
		</g>
	</g>
	<g>
		<g>
			<path class="st1" d="M432.2,45.8c-3.4,4.7-6,2.3-15.2,7.6c-5,2.9-7.4,9.7-6.2,15.4c1.2,5.7,6.2,10.7,12,10.6
				c3.7-0.1,7.1-2.1,10.7-3.3c3.5-1.3,7.9-1.6,10.5,1.1c3.7,3.8,1.1,10.4-0.7,14.7c-0.8,1.8-1.2,3.7-1.1,5.6c0.4,8.6,9.2,8.6,14,4.9
				c3.6-2.8,5.7-7.1,8.4-10.8c2.7-3.7,6.6-7.2,11.2-7c4.9,0.2,8.6,4.5,12.2,7.8s9.4,6,13.3,2.9c2.9-2.3,3.1-6.7,2.3-10.3
				c-0.8-3.6-2.2-7.2-1.7-10.9c0.7-4.6,4.2-7.8,8.3-10.3c4.5-2.6,3.9-9.3-1-11.1c0,0-0.1,0-0.1,0c-3.7-1.3-7.7-1.5-11.3-3
				s-7-4.8-6.7-8.7c0.4-4.6,5.7-8,3.7-13.2c-1.1-2.9-4-4.8-7.2-4.8c-7-0.2-11.7,4.8-16.8,8.7c-4.2,3.1-9.7,5.5-14.4,3.4
				c-5.3-2.4-7-9.4-11.7-12.7c-4.3-3-11-2.1-14.3,2s-2.9,10.8,0.9,14.4C431.4,38.8,435.3,41.6,432.2,45.8z"/>
		</g>
	</g>
	<g>
		<g>
			<g>
				
					<rect x="447.9" y="238.1" transform="matrix(0.5024 -0.8646 0.8646 0.5024 40.8531 551.9905)" class="st2" width="104.3" height="4.8"/>
			</g>
		</g>
		<g>
			<g>
				<path class="st3" d="M463.4,159.9l-51.5,88.7c0,0,0,0.1,0,0.1l59.5,34.6c0,0,0.1,0,0.1,0l51.5-88.7c0,0,0-0.1,0-0.1L463.4,159.9
					C463.5,159.9,463.4,159.9,463.4,159.9z"/>
			</g>
		</g>
		<g>
			<g>
				<g>
					<path class="st2" d="M471.7,284.4L410.8,249c0,0,0-0.1,0-0.1l52.3-90c0,0,0.1,0,0.1,0l60.9,35.4c0,0,0,0.1,0,0.1L471.7,284.4
						C471.8,284.4,471.8,284.4,471.7,284.4z M413,248.4l58.2,33.8c0,0,0.1,0,0.1,0l50.7-87.3c0,0,0-0.1,0-0.1L463.8,161
						c0,0-0.1,0-0.1,0L413,248.4C413,248.4,413,248.4,413,248.4z"/>
				</g>
			</g>
		</g>
		<g>
			<g>
				<path class="st4" d="M466.2,168.9l-45.1,77.7c0,0,0,0.1,0,0.1l47.6,27.7c0,0,0.1,0,0.1,0l45.1-77.6c0,0,0-0.1,0-0.1L466.2,168.9
					C466.3,168.9,466.3,168.9,466.2,168.9z"/>
			</g>
		</g>
		<g>
			<g>
				<path class="st3" d="M472.4,243.9l-26.7-15.5c0,0,0-0.1,0-0.1l18.2-31.3c0,0,0.1,0,0.1,0l26.7,15.5c0,0,0,0.1,0,0.1L472.4,243.9
					C472.4,243.9,472.4,243.9,472.4,243.9z"/>
			</g>
		</g>
		<g>
			<g>
				<g>
					<path class="st2" d="M472.5,238.9c0,0.1-1.7-0.1-4-1.8c-1.1-0.9-2.4-2.2-3.3-4.2c-0.8-2-1.2-4.5-0.3-7.2
						c0.9-2.6,3.4-5.1,6.7-5.7c0.8-0.1,1.7-0.2,2.6,0c0.9,0.2,1.8,0.5,2.6,1.1s1.5,1.4,1.8,2.5c0.3,1.1,0.1,2.5-0.7,3.4
						c-0.8,0.9-1.8,1.4-2.7,1.6c-1,0.3-1.9,0.3-2.9,0.3c-1.9,0-3.8-0.5-5.6-1.4c-1.8-0.9-3.4-2.3-4.5-4.1c-1.1-1.8-1.6-3.9-1.5-6.1
						c0.1-2.2,1-4.3,2.5-5.9c1.5-1.6,3.4-2.6,5.5-2.8c1-0.1,2.1-0.1,3.1,0.2c1,0.3,2,0.8,2.8,1.5c0.8,0.7,1.5,1.7,1.7,2.8
						c0.2,1.1,0,2.3-0.6,3.2c-0.5,0.9-1.3,1.6-2.1,2.1c-0.8,0.5-1.7,0.8-2.6,1c-1.7,0.3-3.4,0.2-5-0.2s-3-1.1-4.2-2
						c-1.2-0.9-2.1-2.1-2.7-3.4c-1.2-2.5-1.2-5.2-0.3-7.2c0.9-2.1,2.5-3.2,3.8-3.8c1.4-0.6,2.6-0.6,3.3-0.5c0.8,0.1,1.1,0.3,1.1,0.4
						c0,0.1-0.4,0.1-1.1,0.1c-0.7,0.1-1.7,0.2-2.9,0.9c-1.1,0.6-2.4,1.8-3,3.4c-0.6,1.7-0.5,3.9,0.5,5.9c1,2,3.2,3.6,5.8,4.1
						c1.3,0.3,2.7,0.3,4,0c1.3-0.3,2.5-0.9,3.1-2c0.6-1.1,0.3-2.2-0.7-3.1c-0.5-0.4-1.1-0.8-1.8-0.9c-0.7-0.2-1.4-0.2-2.2-0.1
						c-1.5,0.2-2.9,1-4,2.1c-1.1,1.1-1.7,2.6-1.8,4.3c-0.1,1.6,0.3,3.3,1.1,4.7c0.8,1.4,2,2.5,3.4,3.2c1.4,0.8,3,1.1,4.5,1.2
						c0.8,0,1.5,0,2.2-0.2c0.7-0.2,1.2-0.5,1.5-0.8s0.4-0.8,0.3-1.2c-0.1-0.5-0.5-1-1-1.3c-0.5-0.4-1-0.6-1.6-0.8
						c-0.6-0.1-1.3-0.1-1.9,0c-1.2,0.2-2.4,0.7-3.3,1.5c-0.9,0.8-1.6,1.7-2,2.7c-0.8,2.1-0.7,4.3-0.1,6c0.6,1.7,1.7,3,2.6,4
						C471.1,238.1,472.6,238.7,472.5,238.9z"/>
				</g>
			</g>
		</g>
	</g>
	<g>
		<g>
			<g>
				<circle class="st2" cx="373.1" cy="349.8" r="2.5"/>
			</g>
			<g>
				<circle class="st2" cx="381.9" cy="359.1" r="2.5"/>
			</g>
			<g>
				<circle class="st2" cx="368.4" cy="363" r="2.5"/>
			</g>
		</g>
		<g>
			<g>
				<circle class="st2" cx="378.3" cy="371.4" r="2.5"/>
			</g>
			<g>
				<path class="st2" d="M389.5,380.7c0,1.4-1.1,2.5-2.5,2.5c-1.4,0-2.5-1.1-2.5-2.5s1.1-2.5,2.5-2.5
					C388.4,378.2,389.5,379.4,389.5,380.7z"/>
			</g>
			<g>
				<circle class="st2" cx="373.6" cy="384.6" r="2.5"/>
			</g>
		</g>
		<g>
			<g>
				<circle class="st2" cx="392.4" cy="334.5" r="2.5"/>
			</g>
			<g>
				<circle class="st2" cx="401.1" cy="343.9" r="2.5"/>
			</g>
			<g>
				<circle class="st2" cx="387.7" cy="347.7" r="2.5"/>
			</g>
		</g>
		<g>
			<g>
				<circle class="st2" cx="397.6" cy="356.1" r="2.5"/>
			</g>
			<g>
				<circle class="st2" cx="406.3" cy="365.5" r="2.5"/>
			</g>
			<g>
				<circle class="st2" cx="392.9" cy="369.3" r="2.5"/>
			</g>
		</g>
		<g>
			<g>
				<path class="st2" d="M402.9,379c0,1.4-1.1,2.5-2.5,2.5c-1.4,0-2.5-1.1-2.5-2.5c0-1.4,1.1-2.5,2.5-2.5
					C401.8,376.6,402.9,377.7,402.9,379z"/>
			</g>
			<g>
				<circle class="st2" cx="409.2" cy="388.4" r="2.5"/>
			</g>
			<g>
				<path class="st2" d="M398.2,392.3c0,1.4-1.1,2.5-2.5,2.5c-1.4,0-2.5-1.1-2.5-2.5c0-1.4,1.1-2.5,2.5-2.5
					C397.1,389.8,398.2,390.9,398.2,392.3z"/>
			</g>
		</g>
		<g>
			<g>
				<path class="st2" d="M408.1,400.6c0,1.4-1.1,2.5-2.5,2.5c-1.4,0-2.5-1.1-2.5-2.5c0-1.4,1.1-2.5,2.5-2.5S408.1,399.3,408.1,400.6
					z"/>
			</g>
			<g>
				<circle class="st2" cx="414.3" cy="410" r="2.5"/>
			</g>
			<g>
				<circle class="st2" cx="400.9" cy="413.9" r="2.5"/>
			</g>
		</g>
		<g>
			<g>
				<circle class="st2" cx="419.7" cy="363.8" r="2.5"/>
			</g>
			<g>
				<circle class="st2" cx="428.4" cy="373.1" r="2.5"/>
			</g>
			<g>
				<circle class="st2" cx="415" cy="377" r="2.5"/>
			</g>
		</g>
		<g>
			<g>
				<circle class="st2" cx="424.8" cy="385.4" r="2.5"/>
			</g>
			<g>
				<circle class="st2" cx="433.6" cy="394.7" r="2.5"/>
			</g>
			<g>
				<circle class="st2" cx="420.1" cy="398.6" r="2.5"/>
			</g>
		</g>
		<g>
			<g>
				<path class="st2" d="M411.6,318.8c0,1.4-1.1,2.5-2.5,2.5c-1.4,0-2.5-1.1-2.5-2.5c0-1.4,1.1-2.5,2.5-2.5
					C410.5,316.3,411.6,317.4,411.6,318.8z"/>
			</g>
			<g>
				<circle class="st2" cx="417.8" cy="328.2" r="2.5"/>
			</g>
			<g>
				<circle class="st2" cx="404.4" cy="332" r="2.5"/>
			</g>
		</g>
		<g>
			<g>
				<path class="st2" d="M416.7,340.4c0,1.4-1.1,2.5-2.5,2.5s-2.5-1.1-2.5-2.5c0-1.4,1.1-2.5,2.5-2.5S416.7,339,416.7,340.4z"/>
			</g>
			<g>
				<circle class="st2" cx="423" cy="349.8" r="2.5"/>
			</g>
			<g>
				<path class="st2" d="M412,353.6c0,1.4-1.1,2.5-2.5,2.5c-1.4,0-2.5-1.1-2.5-2.5s1.1-2.5,2.5-2.5C410.9,351.1,412,352.3,412,353.6
					z"/>
			</g>
		</g>
		<g>
			<g>
				<circle class="st2" cx="428.4" cy="303.6" r="2.5"/>
			</g>
			<g>
				<circle class="st2" cx="437.1" cy="312.9" r="2.5"/>
			</g>
			<g>
				<path class="st2" d="M426.2,316.8c0,1.4-1.1,2.5-2.5,2.5s-2.5-1.1-2.5-2.5c0-1.4,1.1-2.5,2.5-2.5S426.2,315.4,426.2,316.8z"/>
			</g>
		</g>
		<g>
			<g>
				<circle class="st2" cx="433.5" cy="325.2" r="2.5"/>
			</g>
			<g>
				<circle class="st2" cx="442.3" cy="334.5" r="2.5"/>
			</g>
			<g>
				<circle class="st2" cx="428.8" cy="338.4" r="2.5"/>
			</g>
		</g>
		<g>
			<g>
				<circle class="st2" cx="436.4" cy="348.1" r="2.5"/>
			</g>
			<g>
				<circle class="st2" cx="445.1" cy="357.4" r="2.5"/>
			</g>
			<g>
				<circle class="st2" cx="431.7" cy="361.3" r="2.5"/>
			</g>
		</g>
		<g>
			<g>
				<path class="st2" d="M444,369.7c0,1.4-1.1,2.5-2.5,2.5c-1.4,0-2.5-1.1-2.5-2.5c0-1.4,1.1-2.5,2.5-2.5
					C442.9,367.2,444,368.3,444,369.7z"/>
			</g>
			<g>
				<path class="st2" d="M452.8,379c0,1.4-1.1,2.5-2.5,2.5c-1.4,0-2.5-1.1-2.5-2.5c0-1.4,1.1-2.5,2.5-2.5
					C451.6,376.6,452.8,377.7,452.8,379z"/>
			</g>
			<g>
				<circle class="st2" cx="436.8" cy="382.9" r="2.5"/>
			</g>
		</g>
		<g>
			<g>
				<circle class="st2" cx="455.7" cy="332.8" r="2.5"/>
			</g>
			<g>
				<circle class="st2" cx="464.4" cy="342.2" r="2.5"/>
			</g>
			<g>
				<circle class="st2" cx="451" cy="346" r="2.5"/>
			</g>
		</g>
		<g>
			<g>
				<circle class="st2" cx="460.8" cy="354.4" r="2.5"/>
			</g>
			<g>
				<path class="st2" d="M472,363.8c0,1.4-1.1,2.5-2.5,2.5c-1.4,0-2.5-1.1-2.5-2.5s1.1-2.5,2.5-2.5C470.9,361.3,472,362.4,472,363.8
					z"/>
			</g>
			<g>
				<circle class="st2" cx="456.1" cy="367.6" r="2.5"/>
			</g>
		</g>
	</g>
	<g>
		<g>
			<path class="st1" d="M250.8,363.5c3.6-4.5,6.1-2,15.5-6.9c5.1-2.7,7.8-9.4,6.9-15.1c-0.9-5.7-5.7-11-11.5-11.2
				c-3.7-0.1-7.2,1.7-10.8,2.8c-3.6,1.1-8,1.2-10.5-1.6c-3.5-3.9-0.6-10.5,1.4-14.6c0.8-1.7,1.4-3.6,1.4-5.5c0-8.6-8.8-9-13.7-5.6
				c-3.8,2.6-6.1,6.8-8.9,10.4c-2.9,3.6-6.9,6.9-11.5,6.5c-4.9-0.4-8.4-4.8-11.9-8.3c-3.5-3.5-9.1-6.4-13.1-3.5
				c-3,2.2-3.4,6.5-2.8,10.2c0.6,3.6,1.9,7.3,1.2,11c-0.9,4.6-4.5,7.6-8.8,9.9c-4.6,2.4-4.4,9.2,0.5,11.1c0,0,0.1,0,0.1,0
				c3.6,1.4,7.6,1.9,11.2,3.5c3.5,1.6,6.8,5.1,6.2,9c-0.6,4.6-6.1,7.7-4.3,13c1,3,3.8,4.9,6.9,5.2c7,0.5,11.9-4.3,17.2-7.9
				c4.3-2.9,9.9-5.1,14.5-2.7c5.2,2.6,6.5,9.7,11.1,13.3c4.2,3.2,10.9,2.6,14.4-1.3s3.4-10.6-0.3-14.4
				C251.3,370.5,247.5,367.5,250.8,363.5z"/>
		</g>
	</g>
	<g>
		<g>
			<path class="st1" d="M15.4,90.3c-0.8,5.7-4.2,4.8-9.8,13.9c-3,4.9-1.9,12.1,1.8,16.5c3.7,4.5,10.5,6.5,15.6,3.7
				c3.3-1.8,5.3-5.2,7.8-7.9c2.5-2.8,6.3-5.1,9.8-4c5,1.6,5.9,8.7,6.3,13.3c0.2,1.9,0.7,3.8,1.6,5.5c4.4,7.4,12.2,3.3,14.6-2.3
				c1.9-4.2,1.7-9,2.3-13.5c0.6-4.6,2.4-9.5,6.5-11.5c4.4-2.2,9.7-0.1,14.4,1.1c4.8,1.2,11.1,0.8,13.1-3.7c1.5-3.4-0.4-7.3-2.8-10.1
				c-2.4-2.8-5.4-5.3-6.6-8.8c-1.6-4.4,0-8.9,2.5-13c2.7-4.4-0.9-10.1-6.1-9.3c0,0-0.1,0-0.1,0c-3.9,0.6-7.5,2.3-11.4,2.7
				c-3.9,0.4-8.4-0.9-10-4.5c-1.9-4.3,1.3-9.7-3-13.3c-2.4-2-5.8-2.3-8.6-0.9c-6.3,3.1-8,9.8-10.7,15.6c-2.2,4.7-5.9,9.4-11.1,9.8
				c-5.8,0.4-10.6-5-16.4-5.7C10.2,63.1,4.8,67,3.8,72.2c-1,5.2,2.5,10.9,7.6,12.3C11.4,84.5,16.1,85.1,15.4,90.3z"/>
		</g>
	</g>
	<g>
		<g>
			<g>
				<g>
					<g>
						<g>
							<g>
								<g>
									<g>
										<g>
											<g>
												<ellipse class="st5" cx="328" cy="389.3" rx="12.4" ry="12.4"/>
											</g>
										</g>
									</g>
								</g>
							</g>
						</g>
					</g>
				</g>
			</g>
			<g>
				<g>
					<g>
						<g>
							<g>
								<g>
									<g>
										<g>
											<g>
												<path class="st5" d="M323.9,388.5c-1.1,0.2-2.2-0.5-2.4-1.5s0.5-2.2,1.5-2.4s2.2,0.5,2.4,1.5
													C325.7,387.2,325,388.3,323.9,388.5z"/>
											</g>
										</g>
									</g>
								</g>
							</g>
						</g>
					</g>
				</g>
			</g>
			<g>
				<g>
					<g>
						<g>
							<g>
								<g>
									<g>
										<g>
											<g>
												<path class="st5" d="M329,384.5c-0.6,0.1-1.3-0.3-1.4-0.9c-0.1-0.6,0.3-1.3,0.9-1.4c0.6-0.1,1.3,0.3,1.4,0.9
													S329.7,384.3,329,384.5z"/>
											</g>
										</g>
									</g>
								</g>
							</g>
						</g>
					</g>
				</g>
			</g>
		</g>
		<g>
			<g>
				<g>
					<g>
						<g>
							<g>
								<g>
									<g>
										<g>
											<path class="st5" d="M322.6,378.2c-0.2,0.1-12.4-8.2-14-5s6.3,13.3,16.1,21.2c9.8,8,21.1,14.7,23.1,11.8
												c2-2.9-8-13.4-8-13.4l-0.6,1.6c0,0,6.2,6.3,4.9,9c-1.3,2.7-9.8-2.4-18.5-10.2c-8.7-7.8-15.4-15.7-13.8-17.5
												c1.5-1.8,9.1,3.4,9.1,3.4L322.6,378.2z"/>
										</g>
									</g>
								</g>
							</g>
						</g>
					</g>
				</g>
			</g>
		</g>
		<g>
			<g>
				<g>
					<g>
						<g>
							<g>
								<g>
									<g>
										<g>
											<g>
												<path class="st5" d="M335.1,380.8c-0.1,0.1-1-0.5-2.6-1.2c-1.6-0.6-4-1.1-6.5-0.6c-2.5,0.5-4.6,1.9-5.8,3
													c-1.3,1.2-1.8,2.1-1.9,2c-0.1,0,0.3-1.1,1.5-2.5c0.6-0.7,1.4-1.4,2.4-2.1c1-0.6,2.3-1.2,3.6-1.4c1.4-0.3,2.7-0.2,3.9,0
													s2.2,0.6,3,1C334.5,379.8,335.2,380.7,335.1,380.8z"/>
											</g>
										</g>
									</g>
								</g>
							</g>
						</g>
					</g>
				</g>
			</g>
		</g>
	</g>
</g>
<g id="Background_Simple" class="st6">
	<g class="st7">
		<path class="st3" d="M521.4,89l-2.7-4.5c-22.9-37.7-64.3-60.5-107.9-57.7c-5.6,0.3-11.2,1.1-16.7,2.3
			c-39.7,8.5-74.2,38.5-88.5,76.9c-8.4,22.6-10.8,48.6-26.7,66.6c-20.8,23.3-56.1,24.1-87.1,23.1s-66.3-0.1-87,23.3
			c-13,14.7-17.1,35.5-16,55.2c2.8,52,39,98.6,85.1,121.7c46.1,23.1,100.4,25.2,150.9,15c70.7-14.3,137.9-53.4,178.4-113.9
			S553.7,154.3,521.4,89z"/>
	</g>
	<g class="st7">
		<circle class="st3" cx="80.3" cy="50.4" r="45.4"/>
	</g>
</g>
<g id="Paint_Brush">
	<g>
		<g>
			<path class="st8" d="M448.2,255.1L448.2,255.1c-1.6,0.4-3.2-0.5-3.7-2l-48.1-161l9.1-2.5l44.8,161.8
				C450.7,253,449.8,254.6,448.2,255.1z"/>
		</g>
		<g>
			<path class="st2" d="M396.4,92.1c-0.3-1.1-3.8-26-3.8-26l2.8-0.8l10.1,24.3L396.4,92.1z"/>
		</g>
		<g>
			<polyline class="st9" points="395.4,65.3 393.6,44.8 386.6,46.5 389.8,58.2 385.3,46.8 384,47.2 392.6,66.1 394.4,65.6 			"/>
		</g>
	</g>
</g>
<g id="Plants">
	<g>
		<g>
			<g>
				<g>
					<path class="st10" d="M337.6,73c-1.2,0.8-1.7,2.3-1.8,3.8c0,1.5,0.3,2.9,0.4,4.3c0.1,1.4,0,2.8,0.4,4.1
						c0.7,2.4,2.9,4.1,4.9,5.7c0.9-1.1,1.7-2.3,2.3-3.5s0.9-2.7,0.6-4.1c-0.2-1.1-0.9-2.1-1.3-3.2c-0.5-1.3-0.7-2.8-1.2-4.1
						c-0.8-1.8-2.3-3.2-4.2-3.9"/>
				</g>
			</g>
			<g>
				<g>
					<g>
						<path class="st10" d="M340.9,90.2c-0.2,0,0-4.1-0.8-9.1c-0.8-5-2.3-8.8-2.1-8.8c0.1,0,0.5,0.9,1.1,2.4
							c0.6,1.6,1.2,3.8,1.6,6.3c0.4,2.5,0.5,4.8,0.5,6.5C341.1,89.2,340.9,90.2,340.9,90.2z"/>
					</g>
				</g>
			</g>
		</g>
		<g>
			<g>
				<g>
					<path class="st10" d="M338.6,73.1c0.8,1.3,2.3,1.8,3.7,2c1.4,0.1,2.9-0.2,4.4-0.2c1.4-0.1,2.8,0.1,4.2-0.2
						c2.5-0.6,4.3-2.7,5.9-4.6c-1.1-0.9-2.2-1.8-3.4-2.5c-1.3-0.7-2.7-1.1-4.1-0.8c-1.1,0.2-2.1,0.8-3.2,1.1c-1.3,0.4-2.8,0.5-4.1,1
						c-1.8,0.7-3.3,2.2-4.1,4"/>
				</g>
			</g>
			<g>
				<g>
					<g>
						<path class="st10" d="M355.9,70.8c0,0.2-4.1-0.2-9.1,0.4c-5,0.6-8.9,1.9-9,1.7c0-0.1,0.9-0.5,2.5-1s3.8-1,6.4-1.3
							c2.5-0.3,4.8-0.3,6.5-0.2C354.9,70.5,355.9,70.7,355.9,70.8z"/>
					</g>
				</g>
			</g>
		</g>
		<g>
			<g>
				<g>
					<path class="st10" d="M337.2,72c0.5-1.4,0-2.9-0.8-4.1c-0.8-1.2-1.9-2.2-2.9-3.3c-0.9-1.1-1.7-2.3-2.8-3.1
						c-2-1.6-4.8-1.7-7.3-1.8c-0.1,1.4-0.1,2.8,0.1,4.2c0.3,1.4,0.8,2.8,1.9,3.7c0.8,0.8,1.9,1.2,2.9,1.8c1.2,0.8,2.1,1.9,3.4,2.6
						c1.7,1,3.8,1.3,5.6,0.7"/>
				</g>
			</g>
			<g>
				<g>
					<g>
						<path class="st10" d="M324.6,59.9c0.2-0.1,2.4,3.4,5.9,6.9c3.5,3.6,7,5.8,6.9,6c0,0.1-1-0.4-2.3-1.3c-1.4-0.9-3.2-2.4-5-4.2
							c-1.8-1.8-3.2-3.6-4.1-5C325,60.9,324.5,60,324.6,59.9z"/>
					</g>
				</g>
			</g>
		</g>
		<g>
			<g>
				<g>
					<path class="st10" d="M336.5,72.8c-1.3-0.7-2.9-0.5-4.2,0.1c-1.3,0.6-2.5,1.6-3.7,2.3c-1.2,0.7-2.5,1.3-3.5,2.3
						c-1.9,1.8-2.4,4.4-2.9,6.9c1.4,0.3,2.8,0.5,4.2,0.5c1.4,0,2.9-0.4,4-1.3c0.9-0.7,1.5-1.7,2.3-2.6c1-1.1,2.2-1.8,3.1-2.9
						c1.3-1.5,1.8-3.5,1.6-5.5"/>
				</g>
			</g>
			<g>
				<g>
					<g>
						<path class="st10" d="M322.7,83.5c-0.1-0.2,3.7-1.8,7.7-4.8c4.1-2.9,6.8-6,6.9-5.9c0.1,0.1-0.5,0.9-1.7,2.1s-2.8,2.8-4.9,4.3
							c-2.1,1.5-4.1,2.6-5.6,3.3C323.7,83.2,322.7,83.6,322.7,83.5z"/>
					</g>
				</g>
			</g>
		</g>
		<g>
			<g>
				<g>
					<path class="st10" d="M338.8,71.5c1.5-0.2,2.6-1.3,3.3-2.6c0.7-1.3,1.1-2.7,1.6-4.1c0.5-1.3,1.2-2.5,1.5-3.9
						c0.5-2.5-0.7-5-1.8-7.3c-1.3,0.6-2.6,1.2-3.7,2.1c-1.1,0.9-2.1,2-2.4,3.4c-0.3,1.1-0.2,2.3-0.3,3.4c-0.2,1.4-0.7,2.8-0.8,4.2
						c-0.1,1.9,0.6,3.9,2,5.3"/>
				</g>
			</g>
			<g>
				<g>
					<g>
						<path class="st10" d="M343.7,54.7c0.2,0.1-1.9,3.7-3.4,8.4c-1.5,4.8-1.9,8.9-2.1,8.8c-0.1,0-0.1-1,0.1-2.7
							c0.2-1.7,0.6-3.9,1.4-6.4c0.8-2.4,1.8-4.5,2.5-6C343,55.5,343.6,54.7,343.7,54.7z"/>
					</g>
				</g>
			</g>
		</g>
		<g>
			<g>
				<path class="st10" d="M339.7,73.7c-0.6,0.8-1.7,1-2.5,0.4s-1-1.7-0.4-2.4c0.6-0.8,1.7-1,2.5-0.4
					C340.1,71.8,340.3,72.9,339.7,73.7z"/>
			</g>
		</g>
	</g>
	<g>
		<g>
			<g>
				<g>
					<path class="st10" d="M109.9,339c-0.6,2.7,0.6,5.5,2.4,7.5s4.1,3.6,6.1,5.4c1.9,1.7,3.6,3.8,5.9,5.1c4.1,2.4,9.3,2,14,1.5
						c-0.3-2.6-0.5-5.3-1.3-7.8c-0.8-2.5-2.3-4.9-4.4-6.5c-1.8-1.2-3.9-1.8-5.8-2.7c-2.4-1.2-4.5-2.9-6.9-4c-3.4-1.5-7.3-1.4-10.7,0
						"/>
				</g>
			</g>
			<g>
				<g>
					<g>
						<path class="st10" d="M136.4,358.3c-0.3,0.3-5.3-5.6-12.8-11.4c-7.5-5.8-14.5-9-14.3-9.4c0.1-0.1,1.9,0.5,4.7,1.9
							c2.8,1.4,6.5,3.6,10.3,6.5c3.8,2.9,6.9,6,9,8.3C135.4,356.6,136.5,358.3,136.4,358.3z"/>
					</g>
				</g>
			</g>
		</g>
		<g>
			<g>
				<g>
					<path class="st10" d="M111.4,337.9c2.6,0.8,5.5-0.4,7.6-2.1c2.1-1.7,3.8-3.9,5.7-5.9c1.8-1.9,4-3.5,5.4-5.6
						c2.6-4,2.5-9.2,2.2-13.9c-2.6,0.1-5.3,0.2-7.9,0.9c-2.6,0.7-5,2-6.7,4.1c-1.3,1.7-2,3.8-3,5.6c-1.3,2.3-3.2,4.3-4.3,6.7
						c-1.6,3.3-1.8,7.3-0.5,10.7"/>
				</g>
			</g>
			<g>
				<g>
					<g>
						<path class="st10" d="M132,312.4c0.2,0.3-5.9,5-12,12.2c-6.1,7.2-9.7,14-10.1,13.8c-0.1-0.1,0.6-1.9,2.1-4.6
							c1.5-2.7,3.9-6.4,7-10c3.1-3.6,6.3-6.6,8.7-8.5C130.3,313.3,132,312.3,132,312.4z"/>
					</g>
				</g>
			</g>
		</g>
		<g>
			<g>
				<g>
					<path class="st10" d="M108.1,338.1c-1-2.5-3.7-4.1-6.4-4.7c-2.7-0.6-5.4-0.5-8.2-0.9c-2.6-0.3-5.2-1-7.8-0.7
						c-4.8,0.4-8.7,3.8-12.3,6.9c1.7,2,3.5,4,5.6,5.6c2.1,1.6,4.7,2.7,7.4,2.7c2.1,0,4.2-0.8,6.3-1.1c2.6-0.4,5.4-0.2,8-0.8
						c3.6-0.8,6.8-3.1,8.7-6.2"/>
				</g>
			</g>
			<g>
				<g>
					<g>
						<path class="st10" d="M75.3,337.7c0.1-0.4,7.6,1.6,17,1.9c9.4,0.4,17-1,17.1-0.6c0,0.1-1.8,0.7-4.9,1.2
							c-3.1,0.5-7.4,0.9-12.2,0.7c-4.8-0.2-9.1-0.9-12.1-1.5C77,338.5,75.2,337.9,75.3,337.7z"/>
					</g>
				</g>
			</g>
		</g>
		<g>
			<g>
				<g>
					<path class="st10" d="M108.2,340.1c-2.7,0.6-4.6,3-5.6,5.6c-1,2.5-1.4,5.3-2.1,7.9c-0.7,2.5-1.7,5-1.9,7.6
						c-0.3,4.8,2.4,9.2,5,13.2c2.3-1.4,4.5-2.9,6.4-4.7c1.9-1.9,3.4-4.2,3.8-6.9c0.3-2.1-0.2-4.3-0.2-6.4c0-2.7,0.6-5.3,0.5-8
						c-0.2-3.7-2-7.2-4.9-9.5"/>
				</g>
			</g>
		</g>
		<g>
			<g>
				<g>
					<path class="st10" d="M109.5,335.4c1.8-2.1,1.9-5.1,1.3-7.8c-0.7-2.6-2-5.1-3-7.6c-0.9-2.4-1.5-5-2.9-7.2
						c-2.6-4-7.3-6-11.8-7.7c-1,2.5-2,5-2.4,7.6s-0.3,5.4,1,7.8c1,1.9,2.6,3.4,3.9,5.1c1.6,2.1,2.6,4.7,4.3,6.7
						c2.3,2.8,5.9,4.6,9.5,4.8"/>
				</g>
			</g>
			<g>
				<g>
					<g>
						<path class="st10" d="M94.8,306.1c0.4-0.1,2.1,7.4,6.2,15.9c4,8.5,8.7,14.6,8.4,14.9c-0.1,0.1-1.5-1.3-3.3-3.8
							c-1.9-2.5-4.2-6.2-6.2-10.5c-2-4.3-3.4-8.4-4.2-11.5C94.9,308.1,94.6,306.2,94.8,306.1z"/>
					</g>
				</g>
			</g>
		</g>
		<g>
			<g>
				<path class="st10" d="M113.6,337.2c0.2,1.8-1,3.5-2.9,3.7c-1.8,0.2-3.5-1-3.7-2.9c-0.2-1.8,1-3.5,2.9-3.7
					C111.7,334.1,113.4,335.4,113.6,337.2z"/>
			</g>
		</g>
	</g>
</g>
<g id="Device">
	<g>
		<g>
			<path class="st11" d="M378.5,357.6L66.9,314.8c-15.8-2.2-26.8-16.7-24.6-32.5L67.5,99c2.2-15.8,16.7-26.8,32.5-24.6l311.5,42.8
				c15.8,2.2,26.8,16.7,24.6,32.5L410.9,333C408.8,348.8,394.2,359.8,378.5,357.6z"/>
		</g>
		<g>
			
				<rect x="146.2" y="61.9" transform="matrix(0.1361 -0.9907 0.9907 0.1361 -0.3758 434.3434)" class="st3" width="205.4" height="311"/>
			<path class="st8" d="M389.4,340.8l-0.5-0.1L80.3,298.4l0.1-0.5l28-203.9l0.5,0.1l308.6,42.4l-0.1,0.5L389.4,340.8z M81.4,297.5
				l307.1,42.2l27.8-202.4L109.2,95.1L81.4,297.5z"/>
		</g>
		<g>
			<g>
				<path class="st8" d="M436.4,139.5c0,0.1-82.1-11-183.3-24.9C151.9,100.7,69.9,89.3,69.9,89.2c0-0.1,82.1,11,183.3,24.9
					C354.4,128,436.4,139.4,436.4,139.5z"/>
			</g>
		</g>
		<g>
			<g>
				<path class="st8" d="M408.5,343c0,0.1-82.1-11-183.3-24.9C124,304.1,42,292.8,42,292.6c0-0.1,82.1,11,183.3,24.9
					C326.5,331.4,408.5,342.8,408.5,343z"/>
			</g>
		</g>
		<g>
			<g>
				<path class="st8" d="M88.3,191.5c-0.1,0,0.2-1.2-0.1-3.3c-0.2-2.1-1.2-5.2-3.9-7.9c-1.3-1.3-3.1-2.5-5.2-3.2
					c-2.1-0.7-4.6-0.9-7-0.4c-1.2,0.3-2.4,0.7-3.6,1.3c-1.1,0.6-2.2,1.4-3.2,2.4c-1.9,1.9-3.2,4.6-3.6,7.4c-0.4,2.9,0.2,5.7,1.5,8.1
					c0.6,1.2,1.4,2.3,2.4,3.2c0.9,0.9,2,1.7,3.1,2.3c2.2,1.2,4.6,1.6,6.8,1.5c2.2-0.1,4.2-0.8,5.9-1.7c3.3-1.9,5.1-4.6,5.9-6.6
					C88.2,192.7,88.2,191.5,88.3,191.5c0,0,0,0.3-0.1,0.9c0,0.3-0.1,0.6-0.2,1c-0.1,0.4-0.2,0.9-0.4,1.4c-0.8,2-2.5,4.9-5.9,6.8
					c-1.7,1-3.8,1.7-6.1,1.8c-2.3,0.1-4.8-0.3-7.1-1.5c-1.1-0.6-2.2-1.4-3.2-2.3c-1-0.9-1.8-2-2.5-3.3c-1.4-2.5-1.9-5.5-1.6-8.4
					c0.4-2.9,1.8-5.7,3.8-7.7c1-1,2.1-1.9,3.3-2.5c1.2-0.6,2.4-1.1,3.7-1.4c2.5-0.6,5.1-0.3,7.2,0.4c2.2,0.7,4,2,5.3,3.4
					c2.8,2.8,3.6,6,3.8,8.2c0.1,0.5,0.1,1,0.1,1.4c0,0.4,0,0.8-0.1,1.1C88.4,191.2,88.3,191.5,88.3,191.5z"/>
			</g>
		</g>
		<g>
			<g>
				<path class="st8" d="M79.4,190.3c-0.1,0,0-0.4-0.1-1.1c-0.1-0.7-0.4-1.7-1.3-2.6c-0.9-0.9-2.4-1.5-4-1.1
					c-1.6,0.3-3.1,1.7-3.3,3.6c-0.3,1.9,0.8,3.6,2.2,4.4c1.4,0.8,3.1,0.6,4.1,0c1.1-0.6,1.7-1.5,2-2.1
					C79.3,190.7,79.4,190.3,79.4,190.3c0,0,0,0.1,0,0.3c0,0.2-0.1,0.5-0.2,0.8c-0.2,0.7-0.8,1.7-2,2.4c-1.1,0.7-2.9,1-4.5,0.1
					c-1.6-0.8-2.8-2.8-2.5-4.9c0.3-2.1,2-3.7,3.7-4c1.8-0.4,3.4,0.4,4.3,1.3c0.9,1,1.2,2.1,1.3,2.8c0,0.4,0,0.6,0,0.8
					C79.5,190.2,79.4,190.3,79.4,190.3z"/>
			</g>
		</g>
		<g>
			<g>
				<path class="st8" d="M87.2,184.1c0.1,0.1-1.7,1.1-4,2.1c-2.3,1-4.1,1.7-4.2,1.6s1.7-1.1,4-2.1C85.3,184.7,87.2,183.9,87.2,184.1
					z"/>
			</g>
		</g>
		<g>
			<g>
				<path class="st8" d="M80.2,161.8c0-0.1,0.6,0.1,1.7-0.1c1-0.2,2.6-1,3.5-2.7c0.5-0.9,0.5-1.9,0.7-3.1c0.1-0.6,0.2-1.2,0.2-1.8
					c0-0.6-0.1-1.2-0.3-1.8c-0.4-1.2-1.3-2.3-2.6-2.9c-0.6-0.3-1.3-0.4-2-0.5c-0.7-0.1-1.5-0.2-2.2-0.3c-1.4-0.2-2.9,0.3-3.9,1.2
					c-1.1,0.9-1.6,2.2-1.8,3.4c-0.1,0.6-0.2,1.3-0.3,1.9c-0.1,0.6-0.2,1.2-0.1,1.8c0.1,1.1,0.6,2.1,1.2,2.8c0.6,0.7,1.4,1.2,2.1,1.4
					c0.7,0.3,1.4,0.3,2,0.4C79.6,161.7,80.2,161.8,80.2,161.8c0,0-0.6,0-1.7-0.1c-0.6-0.1-1.2-0.1-2-0.3c-0.8-0.2-1.6-0.7-2.3-1.5
					c-0.7-0.8-1.3-1.8-1.4-3c-0.1-0.6,0-1.3,0.1-1.9c0.1-0.6,0.2-1.3,0.3-1.9c0.1-1.3,0.7-2.8,1.9-3.8c1.1-1,2.8-1.5,4.3-1.3
					c0.8,0.1,1.5,0.2,2.2,0.3c0.7,0.1,1.5,0.2,2.2,0.6c1.4,0.7,2.4,1.9,2.8,3.2c0.2,0.6,0.3,1.3,0.3,2c0,0.7-0.2,1.2-0.2,1.8
					c-0.2,1.1-0.3,2.3-0.8,3.2c-1,1.9-2.7,2.6-3.8,2.8C80.8,162.1,80.2,161.8,80.2,161.8z"/>
			</g>
		</g>
		<g>
			<g>
				<path class="st8" d="M83,141.7c0-0.1,0.6,0.1,1.7-0.1c1-0.2,2.6-1,3.5-2.7c0.5-0.9,0.5-1.9,0.7-3.1c0.1-0.6,0.2-1.2,0.2-1.8
					c0-0.6-0.1-1.2-0.3-1.8c-0.4-1.2-1.3-2.3-2.6-2.9c-0.6-0.3-1.3-0.4-2-0.5c-0.7-0.1-1.5-0.2-2.2-0.3c-1.4-0.2-2.9,0.3-3.9,1.2
					c-1.1,0.9-1.6,2.2-1.8,3.4c-0.1,0.6-0.2,1.3-0.3,1.9c-0.1,0.6-0.2,1.2-0.1,1.8c0.1,1.1,0.6,2.1,1.2,2.8c0.6,0.7,1.4,1.2,2.1,1.4
					c0.7,0.3,1.4,0.3,2,0.4C82.3,141.5,83,141.6,83,141.7s-0.6,0-1.7-0.1c-0.6-0.1-1.2-0.1-2-0.3c-0.8-0.2-1.6-0.7-2.3-1.5
					c-0.7-0.8-1.3-1.8-1.4-3c-0.1-0.6,0-1.3,0.1-1.9c0.1-0.6,0.2-1.3,0.3-1.9c0.1-1.3,0.7-2.8,1.9-3.8c1.1-1,2.8-1.5,4.3-1.3
					c0.8,0.1,1.5,0.2,2.2,0.3c0.7,0.1,1.5,0.2,2.2,0.6c1.4,0.7,2.4,1.9,2.8,3.2c0.2,0.6,0.3,1.3,0.3,2c0,0.7-0.2,1.2-0.2,1.8
					c-0.2,1.1-0.3,2.3-0.8,3.2c-1,1.9-2.7,2.6-3.8,2.8C83.6,141.9,83,141.7,83,141.7z"/>
			</g>
		</g>
		<g>
			<g>
				<path class="st8" d="M68.3,248.5c0-0.1,0.6,0.1,1.7-0.1c1-0.2,2.6-1,3.5-2.7c0.5-0.9,0.5-1.9,0.7-3.1c0.1-0.6,0.2-1.2,0.2-1.8
					c0-0.6-0.1-1.2-0.3-1.8c-0.4-1.2-1.3-2.3-2.6-2.9c-0.6-0.3-1.3-0.4-2-0.5c-0.7-0.1-1.5-0.2-2.2-0.3c-1.4-0.2-2.9,0.3-3.9,1.2
					c-1.1,0.9-1.6,2.2-1.8,3.5c-0.1,0.6-0.2,1.3-0.3,1.9c-0.1,0.6-0.2,1.2-0.1,1.8c0.1,1.1,0.6,2.1,1.2,2.8c0.6,0.7,1.4,1.2,2.1,1.4
					c0.7,0.3,1.4,0.3,2,0.4C67.7,248.4,68.3,248.5,68.3,248.5c0,0-0.6,0-1.7-0.1c-0.6-0.1-1.2-0.1-2-0.3c-0.8-0.2-1.6-0.7-2.3-1.5
					c-0.7-0.8-1.3-1.8-1.4-3c-0.1-0.6,0-1.3,0.1-1.9c0.1-0.6,0.2-1.3,0.3-1.9c0.1-1.3,0.7-2.8,1.9-3.8c1.1-1,2.7-1.5,4.3-1.3
					c0.8,0.1,1.5,0.2,2.2,0.3c0.7,0.1,1.5,0.2,2.2,0.6c1.4,0.7,2.4,1.9,2.8,3.2c0.2,0.6,0.3,1.3,0.3,2c-0.1,0.7-0.2,1.2-0.2,1.8
					c-0.2,1.1-0.3,2.3-0.8,3.2c-1,1.9-2.7,2.6-3.8,2.8C68.9,248.8,68.3,248.5,68.3,248.5z"/>
			</g>
		</g>
		<g>
			<g>
				<path class="st8" d="M71,228.4c0-0.1,0.6,0.1,1.7-0.1c1-0.2,2.6-1,3.5-2.7c0.5-0.9,0.5-1.9,0.7-3.1c0.1-0.6,0.2-1.2,0.2-1.8
					c0-0.6-0.1-1.2-0.3-1.8c-0.4-1.2-1.3-2.3-2.6-2.9c-0.6-0.3-1.3-0.4-2-0.5c-0.7-0.1-1.5-0.2-2.2-0.3c-1.4-0.2-2.9,0.3-3.9,1.2
					c-1.1,0.9-1.6,2.2-1.8,3.5c-0.1,0.6-0.2,1.3-0.3,1.9c-0.1,0.6-0.2,1.2-0.1,1.8c0.1,1.1,0.6,2.1,1.2,2.8c0.6,0.7,1.4,1.2,2.1,1.4
					c0.7,0.3,1.4,0.3,2,0.4C70.4,228.2,71,228.4,71,228.4s-0.6,0-1.7-0.1c-0.6-0.1-1.2-0.1-2-0.3c-0.8-0.2-1.6-0.7-2.3-1.5
					c-0.7-0.8-1.3-1.8-1.4-3c-0.1-0.6,0-1.3,0.1-1.9c0.1-0.6,0.2-1.3,0.3-1.9c0.1-1.3,0.7-2.8,1.9-3.8c1.1-1,2.8-1.5,4.3-1.3
					c0.8,0.1,1.5,0.2,2.2,0.3c0.7,0.1,1.5,0.2,2.2,0.6c1.4,0.7,2.4,1.9,2.8,3.2c0.2,0.6,0.3,1.3,0.3,2c-0.1,0.7-0.2,1.2-0.2,1.8
					c-0.2,1.1-0.3,2.3-0.8,3.2c-1,1.9-2.7,2.6-3.8,2.8C71.7,228.6,71,228.4,71,228.4z"/>
			</g>
		</g>
	</g>
	<g>
		<g>
			<g>
				<g>
					<path class="st2" d="M187.5,304.5c2.1-4.5,1.4-10-1.6-13.9s-8.3-5.9-13.1-5c0.8-5.2-1.4-10.7-5.6-13.8s-10.1-3.7-14.9-1.4
						c-1.8-5-7.9-7.9-12.9-6.1s-7.8,8-6,12.9c-3.6-1.5-8.2-0.3-10.7,2.7s-2.8,7.7-0.7,11c-7.1-4.4-17.9,0.9-18.9,9.2l91.7,12.6
						C194.4,311.4,192.9,305.5,187.5,304.5z"/>
				</g>
			</g>
		</g>
		<g>
			<g>
				<g>
					<path class="st2" d="M353,327.6c2.1-4.5,1.4-10-1.6-13.9s-8.3-5.9-13.1-5c0.8-5.2-1.4-10.7-5.6-13.8s-10.1-3.7-14.9-1.4
						c-1.8-5-7.9-7.9-12.9-6.1s-7.8,8-6,12.9c-3.6-1.5-8.2-0.3-10.7,2.7s-2.8,7.7-0.7,11c-7.1-4.4-17.9,0.9-18.9,9.2l91.7,12.6
						C359.9,334.5,358.5,328.6,353,327.6z"/>
				</g>
			</g>
		</g>
		<g>
			<g>
				<g>
					<g>
						<path class="st4" d="M262.1,322.1c2.4-4.7,3.1-10.1,1.9-15.3c-0.7-3.2-2.2-6.4-4.7-8.5c-2.5-2.1-6.2-3-9.3-1.7
							c0.6-4-0.8-8.2-3.6-11.1s-7-4.4-11-4c0.9-3.3,0.1-7-2.2-9.5s-5.8-3.9-9.1-3.4c2.3-5-1.4-10.9-6.6-12.7l-1.8-0.3
							c0,0-11.2-1.9-12.6-1.8c-5.5,0.3-10.7,4.9-9.9,10.4c-3.1-1.4-6.9-1-9.7,0.8c-2.8,1.8-4.6,5.2-4.7,8.5
							c-3.7-1.5-8.2-1.2-11.6,0.9c-3.5,2-6,5.7-6.5,9.7c-2.5-2.1-6.3-2.3-9.4-0.9c-3,1.3-5.3,4-6.9,6.9c-2.5,4.6-3.3,10.1-2.3,15.2
							L262.1,322.1z"/>
					</g>
				</g>
			</g>
		</g>
		<g>
			<g>
				<g>
					<g>
						<path class="st4" d="M320.3,330.2c2.4-4.7,3.1-10.1,1.9-15.3c-0.7-3.2-2.2-6.4-4.7-8.5c-2.5-2.1-6.2-3-9.3-1.7
							c0.6-4-0.8-8.2-3.6-11.1s-7-4.4-11-4c0.9-3.3,0.1-7-2.2-9.5c-2.2-2.5-5.8-3.9-9.1-3.4c2.3-5-1.4-10.9-6.6-12.7l-1.8-0.3
							c0,0-11.2-1.9-12.6-1.8c-5.5,0.3-10.7,4.9-9.9,10.4c-3.1-1.4-6.9-1-9.7,0.8c-2.8,1.8-4.6,5.2-4.7,8.5
							c-3.7-1.5-8.2-1.2-11.6,0.9c-3.5,2-6,5.7-6.5,9.7c-2.5-2.1-6.3-2.3-9.4-0.9c-3,1.3-5.3,4-6.9,6.9c-2.5,4.6-3.3,10.1-2.3,15.2
							L320.3,330.2z"/>
					</g>
				</g>
			</g>
		</g>
		<g>
			<g>
				<g>
					<g>
						<g>
							<polygon class="st12" points="216.7,251.6 204.6,250.3 207.7,227.7 219.9,229.1 							"/>
						</g>
					</g>
				</g>
				<g>
					<g>
						<g>
							<path class="st13" d="M219.5,236.5l-13.3-1.9c-0.5-0.1-0.8-0.5-0.8-1l0,0c0.1-0.5,0.5-0.8,1-0.8l13.3,1.9
								c0.5,0.1,0.8,0.5,0.8,1l0,0C220.5,236.2,220,236.6,219.5,236.5z"/>
						</g>
					</g>
				</g>
				<g>
					<g>
						<g>
							<path class="st13" d="M219.1,240l-13.3-1.9c-0.5-0.1-0.8-0.5-0.8-1l0,0c0.1-0.5,0.5-0.8,1-0.8l13.3,1.9
								c0.5,0.1,0.8,0.5,0.8,1l0,0C220,239.7,219.5,240.1,219.1,240z"/>
						</g>
					</g>
				</g>
				<g>
					<g>
						<g>
							<path class="st13" d="M218.6,243.5l-13.3-1.9c-0.5-0.1-0.8-0.5-0.8-1l0,0c0.1-0.5,0.5-0.8,1-0.8l13.3,1.9
								c0.5,0.1,0.8,0.5,0.8,1l0,0C219.5,243.3,219,243.6,218.6,243.5z"/>
						</g>
					</g>
				</g>
				<g>
					<g>
						<g>
							<path class="st13" d="M218.1,247l-13.3-1.9c-0.5-0.1-0.8-0.5-0.8-1l0,0c0.1-0.5,0.5-0.8,1-0.8l13.3,1.9
								c0.5,0.1,0.8,0.5,0.8,1l0,0C219,246.8,218.6,247.1,218.1,247z"/>
						</g>
					</g>
				</g>
				<g>
					<g>
						<g>
							<path class="st13" d="M217.6,250.6l-13.3-1.9c-0.5-0.1-0.8-0.5-0.8-1l0,0c0.1-0.5,0.5-0.8,1-0.8l13.3,1.9
								c0.5,0.1,0.8,0.5,0.8,1l0,0C218.5,250.3,218.1,250.6,217.6,250.6z"/>
						</g>
					</g>
				</g>
				<g>
					<g>
						<g>
							<polygon class="st12" points="201.8,253.8 204.6,250 216.7,251.6 218.8,256.2 							"/>
						</g>
					</g>
				</g>
				<g>
					<g>
						<g>
							<g>
								<path class="st11" d="M220.1,234.8c0,0.1-3.1-0.3-6.9-0.8s-6.9-1-6.9-1.1c0-0.1,3.1,0.3,6.9,0.8
									C217,234.2,220.1,234.7,220.1,234.8z"/>
							</g>
						</g>
					</g>
				</g>
				<g>
					<g>
						<g>
							<g>
								<path class="st11" d="M219.5,236.5c0,0.1-3.1-0.3-6.9-0.8s-6.8-1-6.8-1.1c0-0.1,3.1,0.3,6.9,0.8
									C216.5,235.9,219.6,236.4,219.5,236.5z"/>
							</g>
						</g>
					</g>
				</g>
				<g>
					<g>
						<g>
							<g>
								<path class="st11" d="M219.7,238.3c0,0.1-3.1-0.3-7-0.8c-3.9-0.5-7-1-7-1.1c0-0.1,3.1,0.3,7,0.8
									C216.6,237.7,219.7,238.2,219.7,238.3z"/>
							</g>
						</g>
					</g>
				</g>
				<g>
					<g>
						<g>
							<g>
								<path class="st11" d="M218.7,240c0,0.1-3-0.3-6.6-0.8s-6.6-1-6.6-1.1s3,0.3,6.6,0.8S218.8,239.9,218.7,240z"/>
							</g>
						</g>
					</g>
				</g>
				<g>
					<g>
						<g>
							<g>
								<path class="st11" d="M219,241.8c0,0.1-3.1-0.3-6.8-0.8c-3.8-0.5-6.8-1-6.8-1.1c0-0.1,3.1,0.3,6.8,0.8
									C216,241.3,219,241.7,219,241.8z"/>
							</g>
						</g>
					</g>
				</g>
				<g>
					<g>
						<g>
							<g>
								<path class="st11" d="M218.9,243.6c0,0.1-3.1-0.3-6.9-0.8s-6.9-1-6.9-1.1s3.1,0.3,6.9,0.8
									C215.9,243,218.9,243.5,218.9,243.6z"/>
							</g>
						</g>
					</g>
				</g>
				<g>
					<g>
						<g>
							<g>
								<path class="st11" d="M218.3,245.3c0,0.1-2.9-0.2-6.5-0.7c-3.6-0.5-6.5-1-6.5-1.1s2.9,0.2,6.5,0.7S218.3,245.2,218.3,245.3z
									"/>
							</g>
						</g>
					</g>
				</g>
				<g>
					<g>
						<g>
							<g>
								<path class="st11" d="M218.1,247c0,0.1-2.9-0.2-6.5-0.7c-3.6-0.5-6.5-1-6.5-1.1s2.9,0.2,6.5,0.7
									C215.3,246.5,218.1,247,218.1,247z"/>
							</g>
						</g>
					</g>
				</g>
				<g>
					<g>
						<g>
							<g>
								<path class="st11" d="M217.5,248.7c0,0.1-2.9-0.2-6.5-0.7s-6.4-1-6.4-1.1s2.9,0.2,6.5,0.7
									C214.6,248.1,217.5,248.6,217.5,248.7z"/>
							</g>
						</g>
					</g>
				</g>
				<g>
					<g>
						<g>
							<g>
								<path class="st13" d="M217.2,250.5c0,0.1-2.8-0.2-6.3-0.7c-3.5-0.5-6.2-1-6.2-1s2.8,0.2,6.3,0.7
									C214.4,250,217.2,250.4,217.2,250.5z"/>
							</g>
						</g>
					</g>
				</g>
			</g>
			<g>
				<g>
					<g>
						<g>
							<polygon class="st12" points="274.9,259.8 262.7,258.4 265.9,235.9 278,237.2 							"/>
						</g>
					</g>
				</g>
				<g>
					<g>
						<g>
							<path class="st13" d="M277.7,244.6l-13.3-1.9c-0.5-0.1-0.8-0.5-0.8-1l0,0c0.1-0.5,0.5-0.8,1-0.8l13.3,1.9
								c0.5,0.1,0.8,0.5,0.8,1l0,0C278.6,244.4,278.2,244.7,277.7,244.6z"/>
						</g>
					</g>
				</g>
				<g>
					<g>
						<g>
							<path class="st13" d="M277.2,248.1l-13.3-1.9c-0.5-0.1-0.8-0.5-0.8-1l0,0c0.1-0.5,0.5-0.8,1-0.8l13.3,1.9
								c0.5,0.1,0.8,0.5,0.8,1l0,0C278.1,247.9,277.7,248.2,277.2,248.1z"/>
						</g>
					</g>
				</g>
				<g>
					<g>
						<g>
							<path class="st13" d="M276.7,251.7l-13.3-1.9c-0.5-0.1-0.8-0.5-0.8-1l0,0c0.1-0.5,0.5-0.8,1-0.8l13.3,1.9
								c0.5,0.1,0.8,0.5,0.8,1l0,0C277.6,251.4,277.2,251.7,276.7,251.7z"/>
						</g>
					</g>
				</g>
				<g>
					<g>
						<g>
							<path class="st13" d="M276.2,255.2l-13.3-1.9c-0.5-0.1-0.8-0.5-0.8-1l0,0c0.1-0.5,0.5-0.8,1-0.8l13.3,1.9
								c0.5,0.1,0.8,0.5,0.8,1l0,0C277.1,254.9,276.7,255.3,276.2,255.2z"/>
						</g>
					</g>
				</g>
				<g>
					<g>
						<g>
							<path class="st13" d="M275.7,258.7l-13.3-1.9c-0.5-0.1-0.8-0.5-0.8-1l0,0c0.1-0.5,0.5-0.8,1-0.8L276,257
								c0.5,0.1,0.8,0.5,0.8,1l0,0C276.6,258.4,276.2,258.8,275.7,258.7z"/>
						</g>
					</g>
				</g>
				<g>
					<g>
						<g>
							<polygon class="st12" points="260,262 262.8,258.1 274.9,259.8 276.9,264.4 							"/>
						</g>
					</g>
				</g>
				<g>
					<g>
						<g>
							<g>
								<path class="st11" d="M278.2,242.9c0,0.1-3.1-0.3-6.9-0.8s-6.9-1-6.9-1.1c0-0.1,3.1,0.3,6.9,0.8
									C275.1,242.3,278.2,242.8,278.2,242.9z"/>
							</g>
						</g>
					</g>
				</g>
				<g>
					<g>
						<g>
							<g>
								<path class="st11" d="M277.7,244.6c0,0.1-3.1-0.3-6.9-0.8s-6.8-1-6.8-1.1c0-0.1,3.1,0.3,6.9,0.8S277.7,244.5,277.7,244.6z"
									/>
							</g>
						</g>
					</g>
				</g>
				<g>
					<g>
						<g>
							<g>
								<path class="st11" d="M277.8,246.5c0,0.1-3.1-0.3-7-0.8c-3.9-0.5-7-1-7-1.1c0-0.1,3.1,0.3,7,0.8
									C274.7,245.9,277.8,246.4,277.8,246.5z"/>
							</g>
						</g>
					</g>
				</g>
				<g>
					<g>
						<g>
							<g>
								<path class="st11" d="M276.9,248.1c0,0.1-3-0.3-6.6-0.8s-6.6-1-6.6-1.1s3,0.3,6.6,0.8C273.9,247.5,276.9,248,276.9,248.1z"
									/>
							</g>
						</g>
					</g>
				</g>
				<g>
					<g>
						<g>
							<g>
								<path class="st11" d="M277.1,250c0,0.1-3.1-0.3-6.8-0.8c-3.8-0.5-6.8-1-6.8-1.1s3.1,0.3,6.8,0.8
									C274.1,249.4,277.1,249.9,277.1,250z"/>
							</g>
						</g>
					</g>
				</g>
				<g>
					<g>
						<g>
							<g>
								<path class="st11" d="M277,251.7c0,0.1-3.1-0.3-6.9-0.8s-6.9-1-6.9-1.1s3.1,0.3,6.9,0.8C274,251.1,277.1,251.6,277,251.7z"
									/>
							</g>
						</g>
					</g>
				</g>
				<g>
					<g>
						<g>
							<g>
								<path class="st11" d="M276.4,253.4c0,0.1-2.9-0.2-6.5-0.7c-3.6-0.5-6.5-1-6.5-1.1s2.9,0.2,6.5,0.7
									C273.5,252.9,276.4,253.3,276.4,253.4z"/>
							</g>
						</g>
					</g>
				</g>
				<g>
					<g>
						<g>
							<g>
								<path class="st11" d="M276.3,255.2c0,0.1-2.9-0.2-6.5-0.7c-3.6-0.5-6.5-1-6.5-1.1s2.9,0.2,6.5,0.7
									C273.4,254.6,276.3,255.1,276.3,255.2z"/>
							</g>
						</g>
					</g>
				</g>
				<g>
					<g>
						<g>
							<g>
								<path class="st11" d="M275.6,256.9c0,0.1-2.9-0.2-6.5-0.7s-6.4-1-6.4-1.1s2.9,0.2,6.5,0.7
									C272.7,256.3,275.6,256.8,275.6,256.9z"/>
							</g>
						</g>
					</g>
				</g>
				<g>
					<g>
						<g>
							<g>
								<path class="st11" d="M275.3,258.6c0,0.1-2.8-0.2-6.3-0.7c-3.5-0.5-6.2-1-6.2-1s2.8,0.2,6.3,0.7
									C272.5,258.1,275.3,258.5,275.3,258.6z"/>
							</g>
						</g>
					</g>
				</g>
			</g>
			<g>
				<g>
					<g>
						<g>
							<g>
								<g>
									<path class="st12" d="M243.4,93.1L228,205l-14.1-2l15.6-111.3c0.3-2,0.8-4,1.6-5.8l8.9-20.7c0.4-0.8,1.3-0.7,1.4,0.9
										l2.2,21.7C243.7,89.6,243.7,91.4,243.4,93.1z"/>
								</g>
							</g>
						</g>
						<g>
							<g>
								<g>
									<g>
										<path class="st11" d="M239.3,120.7c0,0.1-3-0.3-6.8-0.8s-6.8-1-6.7-1.1s3,0.3,6.8,0.8
											C236.3,120.1,239.3,120.6,239.3,120.7z"/>
									</g>
								</g>
							</g>
						</g>
						<g>
							<g>
								<g>
									<g>
										<path class="st11" d="M229.5,116.3c-0.1,0-0.1-0.4,0-0.9c0.1-0.5,0.2-0.9,0.3-0.9c0.1,0,0.1,0.4,0,0.9
											C229.7,115.9,229.5,116.3,229.5,116.3z"/>
									</g>
								</g>
							</g>
						</g>
						<g>
							<g>
								<g>
									<g>
										<path class="st11" d="M230.9,116.3c-0.1,0-0.1-0.4-0.1-0.8c0.1-0.4,0.2-0.7,0.3-0.7s0.1,0.4,0.1,0.8
											C231.1,116,230.9,116.3,230.9,116.3z"/>
									</g>
								</g>
							</g>
						</g>
						<g>
							<g>
								<g>
									<g>
										<path class="st11" d="M234.7,156.8c0,0.1-3.1-0.3-7-0.8s-6.9-1.1-6.9-1.1s3.1,0.3,7,0.8S234.7,156.7,234.7,156.8z"/>
									</g>
								</g>
							</g>
						</g>
						<g>
							<g>
								<g>
									<g>
										<path class="st11" d="M223.5,159.5c-0.1,0-0.1-0.4,0-0.9c0.1-0.5,0.2-0.9,0.3-0.9c0.1,0,0.1,0.4,0,0.9
											C223.7,159.1,223.6,159.6,223.5,159.5z"/>
									</g>
								</g>
							</g>
						</g>
						<g>
							<g>
								<g>
									<g>
										<path class="st11" d="M224.5,159.9c-0.1,0-0.1-0.4,0-1c0.1-0.5,0.2-0.9,0.3-0.9c0.1,0,0.1,0.4,0,1
											C224.7,159.4,224.6,159.9,224.5,159.9z"/>
									</g>
								</g>
							</g>
						</g>
						<g>
							<g>
								<g>
									<g>
										<path class="st11" d="M225.2,191.1c0,0.1-2.2-0.1-4.8-0.5c-2.6-0.4-4.8-0.7-4.8-0.8s2.2,0.1,4.8,0.5
											C223.1,190.6,225.2,191,225.2,191.1z"/>
									</g>
								</g>
							</g>
						</g>
					</g>
					<g>
						<g>
							<g>
								<g>
									<path class="st11" d="M243.4,91.7c0,0.1-3.1-0.3-6.8-0.8c-3.8-0.5-6.8-1-6.8-1.1s3.1,0.3,6.8,0.8
										C240.4,91.1,243.4,91.6,243.4,91.7z"/>
								</g>
							</g>
						</g>
					</g>
					<g>
						<g>
							<g>
								<g>
									<g>
										<path class="st11" d="M231,90.8c0,0,0.2,0,0.2,0.2c0,0.1,0,0.2-0.1,0.3c-0.1,0.1-0.3,0.1-0.5,0.1
											c-0.1-0.1-0.3-0.2-0.2-0.4c0-0.2,0.1-0.2,0.2-0.3C230.9,90.6,231,90.7,231,90.8c-0.1,0-0.1,0-0.2,0.1c0,0.1,0,0.1,0,0.2
											c0.1,0,0.1,0,0.1-0.1C231,90.9,231,90.8,231,90.8z"/>
									</g>
								</g>
							</g>
						</g>
						<g>
							<g>
								<g>
									<g>
										<path class="st11" d="M236.6,91.6c0,0,0.2,0,0.2,0.2c0,0.1,0,0.2-0.1,0.3c-0.1,0.1-0.3,0.1-0.5,0.1
											c-0.1-0.1-0.3-0.2-0.2-0.4c0-0.2,0.1-0.2,0.2-0.3C236.5,91.4,236.6,91.5,236.6,91.6c-0.1,0-0.1,0-0.2,0.1
											c0,0.1,0,0.1,0,0.2c0.1,0,0.1,0,0.1-0.1C236.6,91.7,236.6,91.6,236.6,91.6z"/>
									</g>
								</g>
							</g>
						</g>
						<g>
							<g>
								<g>
									<g>
										<path class="st11" d="M242.2,92.4c0,0,0.2,0,0.2,0.2c0,0.1,0,0.2-0.1,0.3c-0.1,0.1-0.3,0.1-0.5,0.1
											c-0.1-0.1-0.3-0.2-0.2-0.4c0-0.2,0.1-0.2,0.2-0.3C242.1,92.2,242.2,92.3,242.2,92.4c-0.1,0-0.1,0-0.2,0.1
											c0,0.1,0,0.1,0,0.2c0.1,0,0.1,0,0.1-0.1C242.2,92.5,242.2,92.4,242.2,92.4z"/>
									</g>
								</g>
							</g>
						</g>
					</g>
					<g>
						<g>
							<g>
								<g>
									<g>
										<path class="st11" d="M226.9,120.2c0,0,0.2,0,0.2,0.2c0,0.1,0,0.2-0.1,0.3c-0.1,0.1-0.3,0.1-0.5,0.1
											c-0.1-0.1-0.3-0.2-0.2-0.4c0-0.2,0.1-0.2,0.2-0.3C226.8,120,226.9,120.1,226.9,120.2c-0.1,0-0.1,0-0.2,0.1
											c0,0.1,0,0.1,0,0.2c0.1,0,0.1,0,0.1-0.1C226.9,120.3,226.9,120.2,226.9,120.2z"/>
									</g>
								</g>
							</g>
						</g>
						<g>
							<g>
								<g>
									<g>
										<path class="st11" d="M232.5,121c0,0,0.2,0,0.2,0.2c0,0.1,0,0.2-0.1,0.3c-0.1,0.1-0.3,0.1-0.5,0.1
											c-0.1-0.1-0.3-0.2-0.2-0.4c0-0.2,0.1-0.2,0.2-0.3C232.4,120.8,232.5,120.9,232.5,121c-0.1,0-0.1,0-0.2,0.1
											c0,0.1,0,0.1,0,0.2c0.1,0,0.1,0,0.1-0.1C232.5,121.1,232.5,121,232.5,121z"/>
									</g>
								</g>
							</g>
						</g>
						<g>
							<g>
								<g>
									<g>
										<path class="st11" d="M238.1,121.7c0,0,0.2,0,0.2,0.2c0,0.1,0,0.2-0.1,0.3c-0.1,0.1-0.3,0.1-0.5,0.1
											c-0.1-0.1-0.3-0.2-0.2-0.4c0-0.2,0.1-0.2,0.2-0.3C237.9,121.6,238,121.7,238.1,121.7c-0.1,0-0.1,0-0.2,0.1
											c0,0.1,0,0.1,0,0.2c0.1,0,0.1,0,0.1-0.1C238.1,121.8,238.1,121.8,238.1,121.7z"/>
									</g>
								</g>
							</g>
						</g>
					</g>
					<g>
						<g>
							<g>
								<g>
									<g>
										<path class="st11" d="M222.4,152.4c0,0,0.2,0,0.2,0.2c0,0.1,0,0.2-0.1,0.3c-0.1,0.1-0.3,0.1-0.5,0.1
											c-0.1-0.1-0.3-0.2-0.2-0.4c0-0.2,0.1-0.2,0.2-0.3C222.3,152.2,222.4,152.4,222.4,152.4c-0.1,0-0.1,0-0.2,0.1
											c0,0.1,0,0.1,0,0.2c0.1,0,0.1,0,0.1-0.1C222.4,152.5,222.4,152.4,222.4,152.4z"/>
									</g>
								</g>
							</g>
						</g>
						<g>
							<g>
								<g>
									<g>
										<path class="st11" d="M228,153.2c0,0,0.2,0,0.2,0.2c0,0.1,0,0.2-0.1,0.3c-0.1,0.1-0.3,0.1-0.5,0.1
											c-0.1-0.1-0.3-0.2-0.2-0.4c0-0.2,0.1-0.2,0.2-0.3C227.8,153,228,153.1,228,153.2c-0.1,0-0.1,0-0.2,0.1c0,0.1,0,0.1,0,0.2
											c0.1,0,0.1,0,0.1-0.1C228,153.3,228,153.2,228,153.2z"/>
									</g>
								</g>
							</g>
						</g>
						<g>
							<g>
								<g>
									<g>
										<path class="st11" d="M233.6,154c0,0,0.2,0,0.2,0.2c0,0.1,0,0.2-0.1,0.3c-0.1,0.1-0.3,0.1-0.5,0.1
											c-0.1-0.1-0.3-0.2-0.2-0.4c0-0.2,0.1-0.2,0.2-0.3C233.4,153.8,233.5,153.9,233.6,154c-0.1,0-0.1,0-0.2,0.1
											c0,0.1,0,0.1,0,0.2c0.1,0,0.1,0,0.1-0.1C233.6,154.1,233.5,154,233.6,154z"/>
									</g>
								</g>
							</g>
						</g>
					</g>
					<g>
						<g>
							<g>
								<g>
									<g>
										<path class="st11" d="M217.5,187.6c0,0,0.2,0,0.2,0.2c0,0.1,0,0.2-0.1,0.3c-0.1,0.1-0.3,0.1-0.5,0.1
											c-0.1-0.1-0.3-0.2-0.2-0.4c0-0.2,0.1-0.2,0.2-0.3C217.3,187.4,217.5,187.5,217.5,187.6c-0.1,0-0.1,0-0.2,0.1
											c0,0.1,0,0.1,0,0.2c0.1,0,0.1,0,0.1-0.1C217.5,187.7,217.5,187.6,217.5,187.6z"/>
									</g>
								</g>
							</g>
						</g>
						<g>
							<g>
								<g>
									<g>
										<path class="st11" d="M223.1,188.3c0,0,0.2,0,0.2,0.2c0,0.1,0,0.2-0.1,0.3c-0.1,0.1-0.3,0.1-0.5,0.1
											c-0.1-0.1-0.3-0.2-0.2-0.4c0-0.2,0.1-0.2,0.2-0.3C222.9,188.2,223,188.3,223.1,188.3c-0.1,0-0.1,0-0.2,0.1
											c0,0.1,0,0.1,0,0.2c0.1,0,0.1,0,0.1-0.1C223.1,188.4,223,188.4,223.1,188.3z"/>
									</g>
								</g>
							</g>
						</g>
					</g>
				</g>
				<g>
					<g>
						<g>
							<g>
								<g>
									<path class="st12" d="M281.6,98.5l-15.9,111.8l14.1,2L295.5,101c0.3-2,0.3-4,0-6l-2.9-22.4c-0.1-0.9-1.1-1-1.6,0.5
										L283,93.3C282.4,95,281.9,96.7,281.6,98.5z"/>
								</g>
							</g>
						</g>
						<g>
							<g>
								<g>
									<g>
										<path class="st11" d="M278.1,126.1c0-0.1,3,0.3,6.8,0.8s6.8,1,6.7,1.1c0,0.1-3-0.3-6.8-0.8
											C281.1,126.7,278,126.2,278.1,126.1z"/>
									</g>
								</g>
							</g>
						</g>
						<g>
							<g>
								<g>
									<g>
										<path class="st11" d="M288.7,124.6c-0.1,0-0.1-0.4,0-0.9c0.1-0.5,0.2-0.9,0.3-0.9c0.1,0,0.1,0.4,0,0.9
											C289,124.2,288.8,124.6,288.7,124.6z"/>
									</g>
								</g>
							</g>
						</g>
						<g>
							<g>
								<g>
									<g>
										<path class="st11" d="M287.4,124.2c-0.1,0-0.1-0.4-0.1-0.8c0.1-0.4,0.2-0.7,0.3-0.7s0.1,0.4,0.1,0.8
											C287.6,123.9,287.5,124.2,287.4,124.2z"/>
									</g>
								</g>
							</g>
						</g>
						<g>
							<g>
								<g>
									<g>
										<path class="st11" d="M272.6,162.1c0-0.1,3.1,0.3,7,0.8s6.9,1.1,6.9,1.1s-3.1-0.3-7-0.8
											C275.7,162.7,272.6,162.2,272.6,162.1z"/>
									</g>
								</g>
							</g>
						</g>
						<g>
							<g>
								<g>
									<g>
										<path class="st11" d="M282.6,167.8c-0.1,0-0.1-0.4,0-0.9c0.1-0.5,0.2-0.9,0.3-0.9c0.1,0,0.1,0.4,0,0.9
											C282.8,167.4,282.7,167.8,282.6,167.8z"/>
									</g>
								</g>
							</g>
						</g>
						<g>
							<g>
								<g>
									<g>
										<path class="st11" d="M281.5,167.8c-0.1,0-0.1-0.4,0-1c0.1-0.5,0.2-0.9,0.3-0.9c0.1,0,0.1,0.4,0,1
											C281.8,167.4,281.6,167.8,281.5,167.8z"/>
									</g>
								</g>
							</g>
						</g>
						<g>
							<g>
								<g>
									<g>
										<path class="st11" d="M272.3,197.7c0-0.1,2.2,0.1,4.8,0.5c2.6,0.4,4.8,0.7,4.8,0.8s-2.2-0.1-4.8-0.5
											C274.4,198.1,272.3,197.8,272.3,197.7z"/>
									</g>
								</g>
							</g>
						</g>
					</g>
					<g>
						<g>
							<g>
								<g>
									<path class="st11" d="M282,97.1c0-0.1,3.1,0.3,6.8,0.8c3.8,0.5,6.8,1,6.8,1.1s-3.1-0.3-6.8-0.8
										C285.1,97.6,282,97.1,282,97.1z"/>
								</g>
							</g>
						</g>
					</g>
					<g>
						<g>
							<g>
								<g>
									<g>
										<path class="st11" d="M294.2,99.6c0,0.1,0,0.1,0,0.2c0,0.1,0,0.1,0.1,0.1c0.1,0,0.1-0.1,0.1-0.2
											C294.3,99.7,294.3,99.7,294.2,99.6c0,0,0.2-0.1,0.3,0c0.1,0.1,0.1,0.2,0.1,0.3c0,0.2-0.2,0.3-0.3,0.3
											c-0.1,0-0.3-0.1-0.4-0.2c-0.1-0.1,0-0.3,0-0.4C294.1,99.6,294.2,99.6,294.2,99.6z"/>
									</g>
								</g>
							</g>
						</g>
						<g>
							<g>
								<g>
									<g>
										<path class="st11" d="M288.6,98.9c0,0.1,0,0.1,0,0.2c0,0.1,0,0.1,0.1,0.1c0.1,0,0.1-0.1,0.1-0.2
											C288.8,98.9,288.7,98.9,288.6,98.9c0,0,0.2-0.1,0.3,0c0.1,0.1,0.1,0.2,0.1,0.3c0,0.2-0.2,0.3-0.3,0.3
											c-0.1,0-0.3-0.1-0.4-0.2c-0.1-0.1,0-0.3,0-0.4C288.5,98.8,288.7,98.8,288.6,98.9z"/>
									</g>
								</g>
							</g>
						</g>
						<g>
							<g>
								<g>
									<g>
										<path class="st11" d="M283.1,98.1c0,0.1,0,0.1,0,0.2c0,0.1,0,0.1,0.1,0.1c0.1,0,0.1-0.1,0.1-0.2
											C283.2,98.2,283.1,98.1,283.1,98.1c0,0,0.2-0.1,0.3,0c0.1,0.1,0.1,0.2,0.1,0.3c0,0.2-0.2,0.3-0.3,0.3
											c-0.1,0-0.3-0.1-0.4-0.2c-0.1-0.1,0-0.3,0-0.4C282.9,98,283.1,98,283.1,98.1z"/>
									</g>
								</g>
							</g>
						</g>
					</g>
					<g>
						<g>
							<g>
								<g>
									<g>
										<path class="st11" d="M290.1,129c0,0.1,0,0.1,0,0.2c0,0.1,0,0.1,0.1,0.1c0.1,0,0.1-0.1,0.1-0.2
											C290.2,129.1,290.2,129.1,290.1,129c0,0,0.2-0.1,0.3,0c0.1,0.1,0.1,0.2,0.1,0.3c0,0.2-0.2,0.3-0.3,0.3
											c-0.1,0-0.3-0.1-0.4-0.2c-0.1-0.1,0-0.3,0-0.4C290,128.9,290.1,129,290.1,129z"/>
									</g>
								</g>
							</g>
						</g>
						<g>
							<g>
								<g>
									<g>
										<path class="st11" d="M284.5,128.2c0,0.1,0,0.1,0,0.2c0,0.1,0,0.1,0.1,0.1c0.1,0,0.1-0.1,0.1-0.2
											C284.7,128.3,284.6,128.3,284.5,128.2c0,0,0.2-0.1,0.3,0c0.1,0.1,0.1,0.2,0.1,0.3c0,0.2-0.2,0.3-0.3,0.3
											c-0.1,0-0.3-0.1-0.4-0.2c-0.1-0.1,0-0.3,0-0.4C284.4,128.2,284.5,128.2,284.5,128.2z"/>
									</g>
								</g>
							</g>
						</g>
						<g>
							<g>
								<g>
									<g>
										<path class="st11" d="M279,127.5c0,0.1,0,0.1,0,0.2c0,0.1,0,0.1,0.1,0.1c0.1,0,0.1-0.1,0.1-0.2
											C279.1,127.5,279,127.5,279,127.5c0,0,0.2-0.1,0.3,0c0.1,0.1,0.1,0.2,0.1,0.3c0,0.2-0.2,0.3-0.3,0.3
											c-0.1,0-0.3-0.1-0.4-0.2c-0.1-0.1,0-0.3,0-0.4C278.8,127.4,279,127.4,279,127.5z"/>
									</g>
								</g>
							</g>
						</g>
					</g>
					<g>
						<g>
							<g>
								<g>
									<g>
										<path class="st11" d="M285.6,161.3c0,0.1,0,0.1,0,0.2c0,0.1,0,0.1,0.1,0.1c0.1,0,0.1-0.1,0.1-0.2
											C285.7,161.3,285.7,161.3,285.6,161.3c0,0,0.2-0.1,0.3,0c0.1,0.1,0.1,0.2,0.1,0.3c0,0.2-0.2,0.3-0.3,0.3
											c-0.1,0-0.3-0.1-0.4-0.2c-0.1-0.1,0-0.3,0-0.4C285.5,161.2,285.6,161.2,285.6,161.3z"/>
									</g>
								</g>
							</g>
						</g>
						<g>
							<g>
								<g>
									<g>
										<path class="st11" d="M280,160.5c0,0.1,0,0.1,0,0.2c0,0.1,0,0.1,0.1,0.1c0.1,0,0.1-0.1,0.1-0.2
											C280.1,160.6,280.1,160.5,280,160.5c0,0,0.2-0.1,0.3,0c0.1,0.1,0.1,0.2,0.1,0.3c0,0.2-0.2,0.3-0.3,0.3
											c-0.1,0-0.3-0.1-0.4-0.2c-0.1-0.1,0-0.3,0-0.4C279.9,160.4,280,160.4,280,160.5z"/>
									</g>
								</g>
							</g>
						</g>
						<g>
							<g>
								<g>
									<g>
										<path class="st11" d="M274.4,159.7c0,0.1,0,0.1,0,0.2c0,0.1,0,0.1,0.1,0.1c0.1,0,0.1-0.1,0.1-0.2
											C274.6,159.8,274.5,159.7,274.4,159.7c0,0,0.2-0.1,0.3,0c0.1,0.1,0.1,0.2,0.1,0.3c0,0.2-0.2,0.3-0.3,0.3
											c-0.1,0-0.3-0.1-0.4-0.2c-0.1-0.1,0-0.3,0-0.4C274.3,159.6,274.4,159.6,274.4,159.7z"/>
									</g>
								</g>
							</g>
						</g>
					</g>
					<g>
						<g>
							<g>
								<g>
									<g>
										<path class="st11" d="M280.7,196.4c0,0.1,0,0.1,0,0.2c0,0.1,0,0.1,0.1,0.1c0.1,0,0.1-0.1,0.1-0.2
											C280.8,196.5,280.8,196.4,280.7,196.4c0,0,0.2-0.1,0.3,0c0.1,0.1,0.1,0.2,0.1,0.3c0,0.2-0.2,0.3-0.3,0.3
											c-0.1,0-0.3-0.1-0.4-0.2c-0.1-0.1,0-0.3,0-0.4C280.5,196.3,280.7,196.4,280.7,196.4z"/>
									</g>
								</g>
							</g>
						</g>
						<g>
							<g>
								<g>
									<g>
										<path class="st11" d="M275.1,195.6c0,0.1,0,0.1,0,0.2c0,0.1,0,0.1,0.1,0.1c0.1,0,0.1-0.1,0.1-0.2
											C275.2,195.7,275.2,195.7,275.1,195.6c0,0,0.2-0.1,0.3,0c0.1,0.1,0.1,0.2,0.1,0.3c0,0.2-0.2,0.3-0.3,0.3
											c-0.1,0-0.3-0.1-0.4-0.2c-0.1-0.1,0-0.3,0-0.4C275,195.5,275.1,195.6,275.1,195.6z"/>
									</g>
								</g>
							</g>
						</g>
					</g>
				</g>
				<g>
					<g>
						<g>
							<path class="st12" d="M272,26c0,0-19.6,17.4-22.7,35.7c-2.9,17.8-9.4,67.3-9.4,67.3l-8.4,60.2l34.7,4.9l15.3-109.4l1.9-13.5
								c0,0,0.7-7.3-0.9-18.9C281,41.7,272,26,272,26z"/>
						</g>
					</g>
				</g>
				<g class="st14">
					<g>
						<g>
							<path d="M272,26c0,0-19.6,17.4-22.7,35.7c-2.9,17.8-9.4,67.3-9.4,67.3l-8.4,60.2l34.7,4.9l15.3-109.4l1.9-13.5
								c0,0,0.7-7.3-0.9-18.9C281,41.7,272,26,272,26z"/>
						</g>
					</g>
				</g>
				<g>
					<g>
						<g>
							<g>
								<path class="st11" d="M281.8,82.2c0,0.1-7.8-0.9-17.5-2.3c-9.6-1.3-17.4-2.5-17.4-2.6s7.8,0.9,17.4,2.3
									C274.1,80.9,281.9,82.1,281.8,82.2z"/>
							</g>
						</g>
					</g>
				</g>
				<g>
					<g>
						<g>
							<g>
								<path class="st11" d="M244.3,111.7C244.3,111.7,244.4,111.7,244.3,111.7v0.1v0c0,0,0,0,0,0v0L244.3,111.7L244.3,111.7
									L244.3,111.7L244.3,111.7L244.3,111.7L244.3,111.7L244.3,111.7L244.3,111.7L244.3,111.7L244.3,111.7v0.1l0,0.1l0,0
									c0.1-1.3,1-8.4,2.2-17c0.7-4.8,1.3-9,1.8-12.2c0.2-1.5,0.4-2.8,0.6-3.7c0.1-0.4,0.1-0.7,0.2-1c0-0.2,0.1-0.3,0.1-0.3
									c0,0,0,0.1,0,0.4c0,0.3-0.1,0.6-0.1,1c-0.1,0.9-0.3,2.2-0.5,3.7c-0.4,3.2-1,7.5-1.7,12.2c-1.2,8.6-2.3,15.7-2.5,17l0,0
									l0-0.1L244.3,111.7L244.3,111.7L244.3,111.7L244.3,111.7L244.3,111.7L244.3,111.7L244.3,111.7L244.3,111.7L244.3,111.7
									L244.3,111.7l0,0.1v0c-0.1,0,0,0,0,0v0L244.3,111.7C244.3,111.7,244.3,111.7,244.3,111.7z"/>
							</g>
						</g>
					</g>
				</g>
				<g>
					<g>
						<g>
							<g>
								<path class="st11" d="M246.8,112.2c-0.1,0,0.9-7.7,2.2-17.1s2.5-17.1,2.6-17.1s-0.9,7.7-2.2,17.1
									C248,104.6,246.9,112.2,246.8,112.2z"/>
							</g>
						</g>
					</g>
				</g>
				<g>
					<g>
						<g>
							<g>
								<path class="st11" d="M249.4,112.6c-0.1,0,0.9-7.7,2.2-17.2c1.3-9.5,2.4-17.1,2.5-17.1c0.1,0-0.9,7.7-2.2,17.2
									C250.6,104.9,249.5,112.6,249.4,112.6z"/>
							</g>
						</g>
					</g>
				</g>
				<g>
					<g>
						<g>
							<g>
								<path class="st11" d="M251.8,112.9c-0.1,0,0.9-7.7,2.2-17.1s2.5-17.1,2.6-17.1s-0.9,7.7-2.2,17.1
									C253,105.3,251.9,112.9,251.8,112.9z"/>
							</g>
						</g>
					</g>
				</g>
				<g>
					<g>
						<g>
							<g>
								<path class="st11" d="M254.2,114.1c-0.1,0,0.9-7.9,2.3-17.6c1.4-9.7,2.5-17.5,2.6-17.5s-0.9,7.9-2.3,17.5
									C255.4,106.2,254.3,114.1,254.2,114.1z"/>
							</g>
						</g>
					</g>
				</g>
				<g>
					<g>
						<g>
							<g>
								<path class="st11" d="M256.7,114.4c-0.1,0,0.9-7.9,2.3-17.6c1.4-9.7,2.5-17.5,2.6-17.5s-0.9,7.9-2.3,17.5
									C257.9,106.6,256.7,114.4,256.7,114.4z"/>
							</g>
						</g>
					</g>
				</g>
				<g>
					<g>
						<g>
							<g>
								<path class="st11" d="M259.1,114.8c-0.1,0,0.9-7.9,2.3-17.6c1.4-9.7,2.5-17.5,2.6-17.5s-0.9,7.9-2.3,17.5
									C260.4,106.9,259.2,114.8,259.1,114.8z"/>
							</g>
						</g>
					</g>
				</g>
				<g>
					<g>
						<g>
							<g>
								<path class="st11" d="M261.6,115.1c-0.1,0,0.9-7.9,2.3-17.6c1.4-9.7,2.5-17.5,2.6-17.5s-0.9,7.9-2.3,17.5
									C262.9,107.3,261.7,115.1,261.6,115.1z"/>
							</g>
						</g>
					</g>
				</g>
				<g>
					<g>
						<g>
							<g>
								<path class="st11" d="M264.1,115.4c-0.1,0,0.9-7.9,2.3-17.6c1.4-9.7,2.5-17.5,2.6-17.5s-0.9,7.9-2.3,17.5
									C265.4,107.6,264.2,115.5,264.1,115.4z"/>
							</g>
						</g>
					</g>
				</g>
				<g>
					<g>
						<g>
							<g>
								<path class="st11" d="M266.8,115c-0.1,0,0.9-7.7,2.2-17.2c1.3-9.5,2.4-17.1,2.5-17.1c0.1,0-0.9,7.7-2.2,17.2
									C268.1,107.4,266.9,115,266.8,115z"/>
							</g>
						</g>
					</g>
				</g>
				<g>
					<g>
						<g>
							<g>
								<path class="st11" d="M269.2,115.3c0,0,0-0.1,0-0.4c0-0.3,0.1-0.6,0.1-1c0.1-0.9,0.3-2.2,0.5-3.7c0.4-3.1,1-7.4,1.6-12.1
									c0.7-4.7,1.3-9,1.7-12.1c0.2-1.5,0.4-2.8,0.6-3.7c0.1-0.4,0.1-0.7,0.2-1c0-0.2,0.1-0.3,0.1-0.3c0,0,0,0.1,0,0.3
									c0,0.3-0.1,0.6-0.1,1c-0.1,0.9-0.3,2.2-0.5,3.7c-0.4,3.1-1,7.4-1.6,12.1c-0.7,4.7-1.3,9-1.7,12.1c-0.2,1.5-0.4,2.8-0.6,3.7
									c-0.1,0.4-0.1,0.7-0.2,1C269.3,115.2,269.2,115.3,269.2,115.3z"/>
							</g>
						</g>
					</g>
				</g>
				<g>
					<g>
						<g>
							<g>
								<path class="st11" d="M271.7,115.7c-0.1,0,0.9-7.7,2.2-17.1c1.3-9.5,2.5-17.1,2.6-17.1s-0.9,7.7-2.2,17.1
									C272.9,108,271.8,115.7,271.7,115.7z"/>
							</g>
						</g>
					</g>
				</g>
				<g>
					<g>
						<g>
							<g>
								<path class="st11" d="M274.2,116c-0.1,0,0.9-7.7,2.2-17.1c1.3-9.5,2.5-17.1,2.6-17.1s-0.9,7.7-2.2,17.1
									S274.3,116.1,274.2,116z"/>
							</g>
						</g>
					</g>
				</g>
				<g>
					<g>
						<g>
							<g>
								<path class="st11" d="M276.7,116.4c-0.1,0,0.9-7.7,2.2-17.1c1.3-9.5,2.5-17.1,2.6-17.1s-0.9,7.7-2.2,17.1
									C277.9,108.7,276.8,116.4,276.7,116.4z"/>
							</g>
						</g>
					</g>
				</g>
				<g>
					<g>
						<g>
							<g>
								<path class="st11" d="M277,116.4c0,0.1-7.8-0.9-17.4-2.3c-9.6-1.3-17.4-2.5-17.3-2.6c0-0.1,7.8,0.9,17.4,2.3
									C269.3,115.2,277.1,116.4,277,116.4z"/>
							</g>
						</g>
					</g>
				</g>
				<g>
					<g>
						<path class="st0" d="M289.7,224.1c-0.4-1.4-23.3-32.9-23.3-33.6l2.1-59.9c-0.1-2-4.3-26.8-4.3-26.8s-0.9-2.4-2.8-2.5
							c-2-0.1-2.5,1-3,1.4c-0.5,0.5-10.8,20.8-11.4,22.5c-0.6,1.6-13.4,59.3-13.4,59.3s-30.1,23.5-31.9,24.8c-1.2,0.9-4,16.8-4,16.8
							l32,6.4l25.5,3.4l33.5,2C288.9,238.1,290.1,225.5,289.7,224.1z"/>
						<path class="st11" d="M289.3,238.6l-34-2.1l-25.5-3.4l-32.5-6.5l0.1-0.5c0.7-3.8,2.9-16.1,4.2-17.1
							c1.7-1.3,29.5-22.9,31.7-24.7c0.9-4.1,12.8-57.6,13.4-59.2c0.5-1.2,10.9-22,11.5-22.6c0.1-0.1,0.1-0.1,0.2-0.2
							c0.5-0.6,1.3-1.5,3.1-1.4c2.3,0.2,3.2,2.7,3.2,2.8c0.2,1.1,4.2,24.9,4.3,26.9l-2.1,59.8c0.5,1,6,8.8,10.9,15.7
							c7.5,10.6,12.1,17.1,12.3,17.9l0,0c0.4,1.5-0.7,12.9-0.8,14.2L289.3,238.6z M198.4,225.8l31.5,6.3l25.5,3.4l33,2
							c0.5-4.8,1.1-12.3,0.8-13.3c-0.3-0.8-6.9-10.1-12.2-17.6C267,192.5,266,191,266,190.5l2.1-59.9c-0.1-1.9-4.2-26.3-4.3-26.7
							l0,0c0,0-0.8-2-2.4-2.1c-1.4-0.1-1.9,0.5-2.3,1c-0.1,0.1-0.2,0.2-0.3,0.3c-0.6,0.8-10.7,20.6-11.3,22.3
							c-0.5,1.3-9,39.3-13.4,59.2l0,0.2L234,185c-0.3,0.2-30.1,23.5-31.9,24.8C201.5,210.5,199.7,218.4,198.4,225.8z"/>
					</g>
					<g>
						<g>
							<g>
								<path class="st0" d="M268.7,129.9c-0.5-4.2-4.2-26.2-4.2-26.2s-0.9-2.4-2.8-2.5c-2-0.1-2.5,1-3,1.4
									c-0.5,0.5-10.8,20.8-11.4,22.5c-0.1,0.1-0.2,0.8-0.5,1.8L268.7,129.9z"/>
							</g>
						</g>
					</g>
					<g>
						<g>
							<g>
								<path class="st0" d="M230.3,236.3l2-16.4l2.8-5.9l6.8-49.6l4.9-37.7l21.9,3.1l-12.6,87.2l1.4,6.1l-3.4,24.3l-11.4-1.6
									l3.3-25c0.1-0.6-0.4-1.2-1-1.3l0,0c-0.6-0.1-1.2,0.4-1.3,1l-3.5,25l-10.9-1.5L230.3,236.3z"/>
							</g>
						</g>
					</g>
					<g>
						<g>
							<g>
								<g>
									<path class="st12" d="M227.3,214.8c-0.3,2.4-2.6,4.1-5,3.7c-2.4-0.3-4.1-2.6-3.8-5c0.3-2.4,2.6-4.1,5-3.8
										C226,210.2,227.7,212.4,227.3,214.8z"/>
								</g>
							</g>
						</g>
					</g>
					<g>
						<g>
							<g>
								<g>
									<path class="st11" d="M255.8,139.7c0.1,0-2.3,17.9-5.4,39.9c-3.1,22-5.6,39.8-5.7,39.8c-0.1,0,2.3-17.9,5.4-39.9
										C253.1,157.5,255.7,139.7,255.8,139.7z"/>
								</g>
							</g>
						</g>
					</g>
					<g>
						<g>
							<g>
								
									<rect x="254.1" y="133.6" transform="matrix(0.1386 -0.9903 0.9903 0.1386 86.915 368.7686)" class="st12" width="2.7" height="1.6"/>
							</g>
						</g>
					</g>
					<g>
						<g>
							<g>
								
									<rect x="257.5" y="134.1" transform="matrix(0.1386 -0.9903 0.9903 0.1386 89.3972 372.6068)" class="st12" width="2.7" height="1.6"/>
							</g>
						</g>
					</g>
					<g>
						<g>
							<g>
								<path class="st11" d="M251.8,125.4l1.7,2.4l8.5,1.2l2.3-1.7c0,0-1.8-2.4-6-3C254.6,123.7,251.8,125.4,251.8,125.4z"/>
							</g>
						</g>
					</g>
					<g>
						<g>
							<g>
								<g>
									<path class="st11" d="M267.2,140.4c0,0.1-4.9-0.5-10.9-1.4c-6-0.8-10.8-1.6-10.8-1.7c0-0.1,4.9,0.5,10.9,1.4
										C262.3,139.6,267.2,140.4,267.2,140.4z"/>
								</g>
							</g>
						</g>
					</g>
					<g>
						<g>
							<g>
								<g>
									<path class="st11" d="M266.9,118c0,0.1-3.3-0.3-7.4-0.9c-4-0.6-7.3-1.1-7.3-1.2s3.3,0.3,7.4,0.9
										C263.6,117.3,266.9,117.9,266.9,118z"/>
								</g>
							</g>
						</g>
					</g>
					<g>
						<g>
							<g>
								<g>
									<path class="st11" d="M247,139.5c0,0.1-0.1,0.1-0.1,0.2c0,0.1,0,0.2,0.1,0.2c0.1,0,0.2-0.1,0.2-0.2
										C247.2,139.6,247.1,139.6,247,139.5c0.1,0,0.2,0,0.3,0.2c0,0.1,0.1,0.2,0,0.4c-0.1,0.2-0.3,0.2-0.5,0.2
										c-0.2,0-0.3-0.2-0.4-0.4c0-0.2,0.1-0.3,0.1-0.4C246.9,139.4,247.1,139.5,247,139.5z"/>
								</g>
							</g>
						</g>
					</g>
					<g>
						<g>
							<g>
								<g>
									<path class="st11" d="M249.2,139.8c0,0.1-0.1,0.1-0.1,0.2c0,0.1,0,0.2,0.1,0.2c0.1,0,0.2-0.1,0.2-0.2
										C249.3,139.9,249.3,139.9,249.2,139.8c0.1,0,0.2,0,0.3,0.2c0,0.1,0.1,0.2,0,0.4c-0.1,0.2-0.3,0.2-0.5,0.2
										c-0.2,0-0.3-0.2-0.4-0.4c0-0.2,0.1-0.3,0.1-0.4C249.1,139.7,249.2,139.8,249.2,139.8z"/>
								</g>
							</g>
						</g>
					</g>
					<g>
						<g>
							<g>
								<g>
									<path class="st11" d="M251.6,140.1c0,0.1-0.1,0.1-0.1,0.2c0,0.1,0,0.2,0.1,0.2c0.1,0,0.2-0.1,0.2-0.2
										C251.7,140.3,251.6,140.2,251.6,140.1c0.1,0,0.2,0,0.3,0.2c0,0.1,0.1,0.2,0,0.4c-0.1,0.2-0.3,0.2-0.5,0.2
										c-0.2,0-0.3-0.2-0.4-0.4c0-0.2,0.1-0.3,0.1-0.4C251.5,140,251.6,140.1,251.6,140.1z"/>
								</g>
							</g>
						</g>
					</g>
					<g>
						<g>
							<g>
								<g>
									<path class="st11" d="M254,140.5c0,0.1-0.1,0.1-0.1,0.2c0,0.1,0,0.2,0.1,0.2c0.1,0,0.2-0.1,0.2-0.2
										C254.1,140.6,254,140.5,254,140.5c0.1,0,0.2,0,0.3,0.2c0,0.1,0.1,0.2,0,0.4c-0.1,0.2-0.3,0.2-0.5,0.2
										c-0.2,0-0.3-0.2-0.4-0.4c0-0.2,0.1-0.3,0.1-0.4C253.8,140.4,254,140.4,254,140.5z"/>
								</g>
							</g>
						</g>
					</g>
					<g>
						<g>
							<g>
								<g>
									<path class="st11" d="M258.7,198.6c0,0.1-4.8-0.5-10.6-1.3c-5.9-0.8-10.6-1.6-10.6-1.6c0-0.1,4.8,0.5,10.6,1.3
										C253.9,197.8,258.7,198.5,258.7,198.6z"/>
								</g>
							</g>
						</g>
					</g>
					<g>
						<g>
							<g>
								<g>
									<path class="st11" d="M264.1,161c0,0.1-4.8-0.5-10.7-1.3c-5.9-0.8-10.7-1.6-10.7-1.7c0-0.1,4.8,0.5,10.7,1.3
										C259.4,160.2,264.1,160.9,264.1,161z"/>
								</g>
							</g>
						</g>
					</g>
					<g>
						<g>
							<g>
								<g>
									<path class="st11" d="M261.3,181.3c0,0.1-4.8-0.5-10.6-1.3c-5.8-0.8-10.5-1.6-10.5-1.6c0-0.1,4.8,0.5,10.6,1.3
										C256.6,180.5,261.3,181.2,261.3,181.3z"/>
								</g>
							</g>
						</g>
					</g>
					<g>
						<g>
							<g>
								<g>
									<path class="st11" d="M243.2,221.7c0,0.1-2.5-0.2-5.5-0.6s-5.5-0.8-5.5-0.9c0-0.1,2.5,0.2,5.5,0.6
										C240.8,221.2,243.2,221.6,243.2,221.7z"/>
								</g>
							</g>
						</g>
					</g>
					<g>
						<g>
							<g>
								<g>
									<path class="st11" d="M242.7,226.2c0,0.1-2.4-0.2-5.4-0.6c-2.9-0.4-5.3-0.8-5.3-0.9s2.4,0.2,5.4,0.6
										C240.3,225.7,242.7,226.1,242.7,226.2z"/>
								</g>
							</g>
						</g>
					</g>
					<g>
						<g>
							<g>
								<g>
									<path class="st11" d="M242.3,230c0,0.1-2.5-0.2-5.5-0.6s-5.5-0.8-5.5-0.9c0-0.1,2.5,0.2,5.5,0.6
										C239.9,229.5,242.4,229.9,242.3,230z"/>
								</g>
							</g>
						</g>
					</g>
					<g>
						<g>
							<g>
								<g>
									<path class="st11" d="M241.6,234.1c0,0.1-2.4-0.2-5.4-0.6c-3-0.4-5.4-0.8-5.3-0.9s2.4,0.2,5.4,0.6
										C239.2,233.6,241.6,234,241.6,234.1z"/>
								</g>
							</g>
						</g>
					</g>
					<g>
						<g>
							<g>
								<g>
									<path class="st11" d="M241.1,237.9c0,0.1-2.4-0.2-5.4-0.6c-3-0.4-5.4-0.8-5.3-0.9s2.4,0.2,5.4,0.6
										C238.7,237.4,241.1,237.8,241.1,237.9z"/>
								</g>
							</g>
						</g>
					</g>
					<g>
						<g>
							<g>
								<g>
									<path class="st11" d="M240.6,241.7c0,0.1-2.4-0.2-5.4-0.6c-3-0.4-5.4-0.8-5.3-0.9s2.4,0.2,5.4,0.6
										C238.2,241.2,240.6,241.6,240.6,241.7z"/>
								</g>
							</g>
						</g>
					</g>
					<g>
						<g>
							<g>
								<g>
									<path class="st11" d="M256.9,223.6c0,0.1-2.5-0.2-5.5-0.6s-5.5-0.8-5.5-0.9s2.5,0.2,5.5,0.6S256.9,223.5,256.9,223.6z"/>
								</g>
							</g>
						</g>
					</g>
					<g>
						<g>
							<g>
								<g>
									<path class="st11" d="M256.4,228.1c0,0.1-2.4-0.2-5.3-0.6c-2.9-0.4-5.3-0.8-5.3-0.9c0-0.1,2.4,0.2,5.4,0.6
										C254,227.6,256.4,228,256.4,228.1z"/>
								</g>
							</g>
						</g>
					</g>
					<g>
						<g>
							<g>
								<g>
									<path class="st11" d="M256.1,232c0,0.1-2.5-0.2-5.5-0.6s-5.5-0.8-5.5-0.9c0-0.1,2.5,0.2,5.5,0.6
										C253.6,231.5,256.1,231.9,256.1,232z"/>
								</g>
							</g>
						</g>
					</g>
					<g>
						<g>
							<g>
								<g>
									<path class="st11" d="M255.3,236.1c0,0.1-2.4-0.2-5.4-0.6c-3-0.4-5.4-0.8-5.3-0.9s2.4,0.2,5.4,0.6
										C253,235.6,255.3,236,255.3,236.1z"/>
								</g>
							</g>
						</g>
					</g>
					<g>
						<g>
							<g>
								<g>
									<path class="st11" d="M254.8,239.8c0,0.1-2.4-0.2-5.4-0.6c-3-0.4-5.4-0.8-5.3-0.9s2.4,0.2,5.4,0.6
										C252.4,239.3,254.8,239.7,254.8,239.8z"/>
								</g>
							</g>
						</g>
					</g>
					<g>
						<g>
							<g>
								<g>
									<path class="st11" d="M254.3,243.6c0,0.1-2.4-0.2-5.4-0.6c-3-0.4-5.4-0.8-5.3-0.9s2.4,0.2,5.4,0.6
										C251.9,243.1,254.3,243.5,254.3,243.6z"/>
								</g>
							</g>
						</g>
					</g>
					<g>
						<g>
							<g>
								<path class="st0" d="M247.1,125.3"/>
							</g>
						</g>
					</g>
					<g>
						<g>
							<g>
								<g>
									<g>
										<path class="st4" d="M259.1,125.6c0,0.1-0.6,0.4-1.5,0.8c-0.9,0.4-1.6,0.6-1.6,0.5c0-0.1,0.6-0.4,1.5-0.8
											C258.3,125.7,259,125.5,259.1,125.6z"/>
									</g>
								</g>
							</g>
						</g>
						<g>
							<g>
								<g>
									<g>
										<path class="st4" d="M260.1,125.8c0.1,0.1-0.5,0.4-1.3,0.8s-1.4,0.5-1.4,0.4s0.5-0.4,1.3-0.7
											C259.4,126,260,125.8,260.1,125.8z"/>
									</g>
								</g>
							</g>
						</g>
					</g>
				</g>
				<g>
					<g>
						<g>
							<g>
								<path class="st11" d="M247.1,125.6c0.1,0-2.5,19.8-5.9,44.2c-3.3,24.4-6.1,44.2-6.2,44.1c-0.1,0,2.5-19.8,5.9-44.2
									C244.2,145.3,247,125.5,247.1,125.6z"/>
							</g>
						</g>
					</g>
				</g>
				<g>
					<g>
						<g>
							<g>
								<path class="st11" d="M256.1,216.6c-0.1,0,2.5-18.6,5.8-41.5c3.3-22.9,6.1-41.5,6.2-41.5c0.1,0-2.5,18.6-5.8,41.5
									C259,198.1,256.2,216.6,256.1,216.6z"/>
							</g>
						</g>
					</g>
				</g>
				<g>
					<g>
						<g>
							
								<rect x="265.2" y="215.7" transform="matrix(0.1386 -0.9903 0.9903 0.1386 9.9851 455.6623)" class="st12" width="3.4" height="12.8"/>
						</g>
					</g>
				</g>
				<g>
					<g>
						<g>
							<g>
								<path class="st11" d="M272,26c0.1,0-1.5,12-3.5,26.7c-2,14.7-3.8,26.7-3.9,26.6c-0.1,0,1.5-12,3.5-26.7
									C270.2,38,271.9,26,272,26z"/>
							</g>
						</g>
					</g>
				</g>
				<g>
					<g>
						<g>
							<g>
								<path class="st11" d="M266.2,76.3c0,0,0.2-0.1,0.4,0.1c0.1,0.1,0.2,0.3,0.1,0.4c0,0.2-0.2,0.4-0.4,0.4
									c-0.2,0-0.4-0.1-0.5-0.2c-0.1-0.2-0.1-0.3,0-0.5c0.1-0.3,0.3-0.2,0.3-0.2c0,0-0.1,0.1-0.1,0.3c0,0.2,0.1,0.3,0.3,0.3
									c0.2,0,0.2-0.2,0.2-0.4C266.4,76.4,266.2,76.4,266.2,76.3z"/>
							</g>
						</g>
					</g>
				</g>
				<g>
					<g>
						<g>
							<g>
								<path class="st11" d="M267.5,67.4c0,0,0.2-0.1,0.4,0.1c0.1,0.1,0.2,0.3,0.1,0.4c0,0.2-0.2,0.4-0.4,0.4
									c-0.2,0-0.4-0.1-0.5-0.2c-0.1-0.2-0.1-0.3,0-0.5c0.1-0.3,0.3-0.2,0.3-0.2c0,0-0.1,0.1-0.1,0.3c0,0.2,0.1,0.3,0.3,0.3
									c0.2,0,0.2-0.2,0.2-0.4C267.6,67.5,267.5,67.4,267.5,67.4z"/>
							</g>
						</g>
					</g>
				</g>
				<g>
					<g>
						<g>
							<g>
								<path class="st11" d="M268.7,58.4c0,0,0.2-0.1,0.4,0.1c0.1,0.1,0.2,0.3,0.1,0.4c0,0.2-0.2,0.4-0.4,0.4
									c-0.2,0-0.4-0.1-0.5-0.2c-0.1-0.2-0.1-0.3,0-0.5c0.1-0.3,0.3-0.2,0.3-0.2c0,0-0.1,0.1-0.1,0.3c0,0.2,0.1,0.3,0.3,0.3
									c0.2,0,0.2-0.2,0.2-0.4C268.9,58.5,268.7,58.5,268.7,58.4z"/>
							</g>
						</g>
					</g>
				</g>
				<g>
					<g>
						<g>
							<g>
								<path class="st11" d="M270,49.5c0,0,0.2-0.1,0.4,0.1c0.1,0.1,0.2,0.3,0.1,0.4c0,0.2-0.2,0.4-0.4,0.4c-0.2,0-0.4-0.1-0.5-0.2
									c-0.1-0.2-0.1-0.3,0-0.5c0.1-0.3,0.3-0.2,0.3-0.2c0,0-0.1,0.1-0.1,0.3c0,0.2,0.1,0.3,0.3,0.3c0.2,0,0.2-0.2,0.2-0.4
									C270.1,49.6,270,49.6,270,49.5z"/>
							</g>
						</g>
					</g>
				</g>
				<g>
					<g>
						<g>
							<g>
								<path class="st11" d="M271.2,40.6c0,0,0.2-0.1,0.4,0.1c0.1,0.1,0.2,0.3,0.1,0.4c0,0.2-0.2,0.4-0.4,0.4
									c-0.2,0-0.4-0.1-0.5-0.2c-0.1-0.2-0.1-0.3,0-0.5c0.1-0.3,0.3-0.2,0.3-0.2c0,0-0.1,0.1-0.1,0.3c0,0.2,0.1,0.3,0.3,0.3
									c0.2,0,0.2-0.2,0.2-0.4C271.4,40.6,271.2,40.6,271.2,40.6z"/>
							</g>
						</g>
					</g>
				</g>
				<g>
					<g>
						<g>
							<g>
								<path class="st11" d="M272.5,31.6c0,0,0.2-0.1,0.4,0.1c0.1,0.1,0.2,0.3,0.1,0.4c0,0.2-0.2,0.4-0.4,0.4
									c-0.2,0-0.4-0.1-0.5-0.2c-0.1-0.2-0.1-0.3,0-0.5c0.1-0.3,0.3-0.2,0.3-0.2c0,0.1-0.1,0.1-0.1,0.3c0,0.2,0.1,0.3,0.3,0.3
									c0.2,0,0.2-0.2,0.2-0.4C272.6,31.7,272.5,31.7,272.5,31.6z"/>
							</g>
						</g>
					</g>
				</g>
				<g>
					<g>
						<g>
							<g>
								<path class="st4" d="M261.5,40.1c0,0-0.2,0.3-0.6,0.9c-0.4,0.6-1,1.4-1.8,2.4s-1.5,2.3-2.4,3.7c-0.8,1.4-1.7,3-2.4,4.8
									c-0.8,1.7-1.4,3.4-1.9,5c-0.5,1.6-0.9,3-1.1,4.2c-0.3,1.2-0.5,2.2-0.6,2.9c-0.1,0.7-0.2,1.1-0.2,1.1c0,0,0-0.4,0.1-1.1
									c0.1-0.7,0.2-1.7,0.5-2.9c0.2-1.2,0.6-2.7,1.1-4.3c0.5-1.6,1.1-3.3,1.9-5.1c0.8-1.8,1.6-3.4,2.5-4.8
									c0.9-1.4,1.7-2.7,2.4-3.7c0.8-1,1.4-1.8,1.9-2.3C261.2,40.4,261.5,40.1,261.5,40.1z"/>
							</g>
						</g>
					</g>
				</g>
				<g>
					<g>
						<g>
							<g>
								<path class="st4" d="M265.2,35.3c0.1,0.1-0.2,0.5-0.6,1.1c-0.4,0.5-0.8,0.9-0.9,0.9c-0.1-0.1,0.2-0.5,0.6-1.1
									C264.7,35.6,265.1,35.2,265.2,35.3z"/>
							</g>
						</g>
					</g>
				</g>
				<g>
					<g>
						<g>
							<g>
								<path class="st4" d="M245.4,110.6c-0.1,0,0.8-7,2-15.7s2.3-15.7,2.4-15.7s-0.8,7-2,15.7
									C246.5,103.6,245.4,110.6,245.4,110.6z"/>
							</g>
						</g>
					</g>
				</g>
				<g>
					<g>
						<g>
							<g>
								<path class="st4" d="M249.1,101.1c-0.1,0,0.1-2.1,0.5-4.8c0.4-2.6,0.7-4.7,0.8-4.7s-0.1,2.1-0.5,4.8
									S249.2,101.1,249.1,101.1z"/>
							</g>
						</g>
					</g>
				</g>
				<g>
					<g>
						<g>
							<g>
								<path class="st4" d="M252.2,98.2c-0.1,0-0.1-0.8,0.1-1.8c0.1-1,0.3-1.7,0.4-1.7s0.1,0.8-0.1,1.8
									C252.5,97.4,252.3,98.2,252.2,98.2z"/>
							</g>
						</g>
					</g>
				</g>
				<g>
					<g>
						<g>
							<g>
								<path class="st4" d="M238.1,152.6c-0.1,0,1-8.3,2.4-18.5c1.4-10.2,2.7-18.5,2.8-18.5s-1,8.3-2.4,18.5
									C239.4,144.4,238.2,152.6,238.1,152.6z"/>
							</g>
						</g>
					</g>
				</g>
				<g>
					<g>
						<g>
							<g>
								<path class="st15" d="M259.5,125.6"/>
							</g>
						</g>
					</g>
				</g>
			</g>
		</g>
	</g>
	<g>
		<g>
			<g>
				<path class="st11" d="M191.4,232.1l2.7,1l-2.3,0.7c-0.8,0.2-1.4,0.8-1.6,1.6l-0.8,2.6l-1-2.6c-0.3-0.6-0.8-1.1-1.4-1.4l-2.3-0.9
					l2.5-1c0.6-0.3,1.1-0.7,1.3-1.4l0.9-2.4l0.7,2.2C190.2,231.3,190.7,231.9,191.4,232.1z"/>
			</g>
		</g>
		<g>
			<g>
				<path class="st11" d="M139,230.6l1.5,0.6l-1.3,0.4c-0.4,0.1-0.8,0.5-0.9,0.9l-0.5,1.5l-0.6-1.5c-0.1-0.4-0.4-0.6-0.8-0.8
					l-1.3-0.5l1.5-0.6c0.4-0.1,0.6-0.4,0.8-0.8l0.5-1.4l0.4,1.3C138.3,230.1,138.6,230.4,139,230.6z"/>
			</g>
		</g>
		<g>
			<g>
				<path class="st8" d="M149.6,166c-8.5,0-15.4-6.9-15.4-15.4c0-4.9,2.3-9.3,5.9-12.1c-5.8,2.2-9.9,7.8-9.9,14.4
					c0,8.5,6.9,15.4,15.4,15.4c3.6,0,6.9-1.2,9.5-3.3C153.4,165.7,151.6,166,149.6,166z"/>
			</g>
		</g>
		<g>
			<g>
				<g>
					<g>
						
							<ellipse transform="matrix(0.4112 -0.9115 0.9115 0.4112 -1.9086 473.7498)" class="st0" cx="365.8" cy="238.4" rx="25.6" ry="25.6"/>
					</g>
				</g>
			</g>
			<g>
				<g>
					<g>
						<path class="st4" d="M387.4,234.7c-0.5,3.6-3.8,6.1-7.4,5.6c-3.6-0.5-6.1-3.8-5.6-7.4s3.8-6.1,7.4-5.6
							C385.4,227.9,387.9,231.2,387.4,234.7z"/>
					</g>
				</g>
			</g>
			<g>
				<g>
					<g>
						<path class="st4" d="M377.8,222.9c-0.2,1.4-1.5,2.5-3,2.3s-2.5-1.5-2.3-3s1.5-2.5,3-2.3C377,220.1,378,221.5,377.8,222.9z"/>
					</g>
				</g>
			</g>
			<g>
				<g>
					<g>
						<path class="st3" d="M379.8,256c-0.2,1.1-1.1,1.8-2.2,1.7s-1.8-1.1-1.7-2.2c0.2-1.1,1.1-1.8,2.2-1.7
							C379.2,253.9,379.9,254.9,379.8,256z"/>
					</g>
				</g>
			</g>
		</g>
		<g>
			<g>
				<g>
					<polygon class="st2" points="373.1,148.4 374.1,151.1 376.4,152.8 373.7,153.9 372,156.1 371,153.5 368.7,151.8 371.3,150.7 
											"/>
				</g>
			</g>
		</g>
		<g>
			<g>
				<g>
					<polygon class="st2" points="179.1,179.7 180.1,182.4 182.4,184.1 179.7,185.1 178,187.4 177,184.7 174.7,183 177.4,182 					
						"/>
				</g>
			</g>
		</g>
		<g>
			<g>
				<g>
					<polygon class="st2" points="159.2,223.5 159.7,224.7 160.7,225.4 159.5,225.9 158.8,226.9 158.3,225.7 157.3,225 158.5,224.5 
											"/>
				</g>
			</g>
		</g>
		<g>
			<g>
				<g>
					<g>
						<path class="st4" d="M165.1,126.1c0.5-1.9-2-3.9-4-4.4c-1-0.2-2-0.2-2.9-0.7c-1.9-1-2.4-3.7-4.2-4.8c-1.4-0.8-3.2-0.5-4.7,0
							c-1.5,0.5-3.1,1.2-4.7,1.1c-1.4-0.1-2.9-0.8-4.2-0.3c-1,0.4-1.6,1.4-2.5,1.9c-0.9,0.5-2,0.5-3,0.4c-1-0.1-2.1-0.2-3.1,0.1
							c-1,0.3-1.9,1.2-1.8,2.2L165.1,126.1z"/>
					</g>
				</g>
			</g>
		</g>
		<g>
			<g>
				<g>
					<g>
						<path class="st4" d="M178.4,209.8c1-3.6-3.7-7.2-7.5-8.1c-1.8-0.4-3.8-0.4-5.4-1.2c-3.6-1.8-4.4-6.9-7.8-9
							c-2.6-1.5-5.9-0.9-8.7,0c-2.8,1-5.7,2.3-8.7,2.1c-2.6-0.2-5.3-1.6-7.7-0.6c-1.8,0.7-3,2.5-4.7,3.4c-1.7,0.9-3.7,0.9-5.6,0.7
							c-1.9-0.2-3.9-0.4-5.7,0.1c-1.8,0.6-3.5,2.2-3.4,4.1L178.4,209.8z"/>
					</g>
				</g>
			</g>
		</g>
		<g>
			<g>
				<g>
					<g>
						<path class="st16" d="M395.3,193.9c0.8-2.9-3-6-6.2-6.7c-1.5-0.3-3.1-0.3-4.5-1c-3-1.5-3.6-5.7-6.5-7.4
							c-2.1-1.3-4.9-0.8-7.2,0c-2.3,0.8-4.7,1.9-7.2,1.7c-2.2-0.2-4.4-1.3-6.4-0.5c-1.5,0.6-2.5,2.1-3.9,2.9c-1.4,0.8-3,0.7-4.6,0.6
							c-1.6-0.1-3.2-0.3-4.7,0.1c-1.5,0.4-2.9,1.8-2.8,3.4L395.3,193.9z"/>
					</g>
				</g>
			</g>
		</g>
		<g>
			<g>
				<g>
					<g>
						<g>
							<g>
								<g>
									<g>
										<g>
											<path class="st2" d="M103.4,257.5l0.3,0.6c0.3,0.6,0.7,1.2,1.3,1.6l0.5,0.4l-0.6,0.3c-0.6,0.3-1.2,0.7-1.6,1.3l-0.4,0.5
												l-0.3-0.6c-0.3-0.6-0.7-1.2-1.3-1.6l-0.5-0.4l0.6-0.3c0.6-0.3,1.2-0.7,1.6-1.3L103.4,257.5z"/>
										</g>
									</g>
								</g>
							</g>
						</g>
					</g>
				</g>
			</g>
		</g>
		<g>
			<g>
				<g>
					<g>
						<g>
							<g>
								<g>
									<g>
										<g>
											<g>
												<g>
													<ellipse class="st2" cx="326.6" cy="161.6" rx="13.6" ry="13.6"/>
												</g>
											</g>
										</g>
									</g>
								</g>
							</g>
						</g>
					</g>
				</g>
				<g>
					<g>
						<g>
							<g>
								<g>
									<g>
										<g>
											<g>
												<g>
													<path class="st4" d="M324.2,165.6c-0.2,1.2-1.3,2.1-2.5,1.9s-2.1-1.3-1.9-2.5c0.2-1.2,1.3-2.1,2.5-1.9
														C323.6,163.3,324.4,164.4,324.2,165.6z"/>
												</g>
											</g>
										</g>
									</g>
								</g>
							</g>
						</g>
					</g>
				</g>
				<g>
					<g>
						<g>
							<g>
								<g>
									<g>
										<g>
											<g>
												<g>
													<path class="st4" d="M322,158.8c-0.1,0.7-0.8,1.2-1.5,1.1c-0.7-0.1-1.2-0.8-1.1-1.5s0.8-1.2,1.5-1.1
														C321.6,157.4,322.1,158.1,322,158.8z"/>
												</g>
											</g>
										</g>
									</g>
								</g>
							</g>
						</g>
					</g>
				</g>
			</g>
			<g>
				<g>
					<g>
						<g>
							<g>
								<g>
									<g>
										<g>
											<g>
												<path class="st16" d="M313.1,163.1c0,0.2-13.1,9.7-10.5,12.5c2.7,2.8,16.1-1.5,28-8.7c11.9-7.1,23.2-16.3,20.9-19.4
													c-2.3-3.2-16.8,3.2-16.8,3.2l1.5,1.2c0,0,8.8-4.1,11.1-1.7c2.3,2.4-6.1,9.2-17.5,15.3s-22,10-23.3,7.7
													c-1.3-2.3,7-8.1,7-8.1L313.1,163.1z"/>
											</g>
										</g>
									</g>
								</g>
							</g>
						</g>
					</g>
				</g>
			</g>
			<g>
				<g>
					<g>
						<g>
							<g>
								<g>
									<g>
										<g>
											<g>
												<g>
													<path class="st4" d="M320.5,151.1c0.1,0.1-0.9,0.8-2.2,2.2c-1.3,1.4-2.7,3.7-3.1,6.5c-0.5,2.8,0.2,5.4,0.9,7.1
														c0.8,1.7,1.5,2.7,1.4,2.8c-0.1,0.1-1.1-0.7-2-2.4c-0.5-0.9-0.9-2-1.2-3.3c-0.3-1.3-0.4-2.8-0.1-4.3
														c0.3-1.5,0.8-2.9,1.5-4.1c0.7-1.1,1.4-2.1,2.2-2.8C319.3,151.4,320.4,151,320.5,151.1z"/>
												</g>
											</g>
										</g>
									</g>
								</g>
							</g>
						</g>
					</g>
				</g>
			</g>
		</g>
		<g>
			<g>
				<g>
					<polygon class="st11" points="307.7,251.2 308.7,253.9 311,255.6 308.3,256.6 306.6,258.9 305.6,256.2 303.3,254.5 306,253.5 
											"/>
				</g>
			</g>
		</g>
		<g>
			<g>
				<g>
					<polygon class="st11" points="327.3,241.7 327.7,242.9 328.8,243.7 327.6,244.2 326.8,245.2 326.3,244 325.3,243.2 
						326.5,242.8 					"/>
				</g>
			</g>
		</g>
		<g>
			<g>
				<g>
					<polygon class="st11" points="204.2,161.4 205.2,164 207.5,165.7 204.8,166.8 203.1,169.1 202.1,166.4 199.8,164.7 
						202.5,163.6 					"/>
				</g>
			</g>
		</g>
		<g>
			<g>
				<g>
					<polygon class="st11" points="305.7,203.2 306.7,205.9 309,207.6 306.3,208.6 304.6,210.9 303.6,208.2 301.3,206.5 304,205.5 
											"/>
				</g>
			</g>
		</g>
		<g>
			<g>
				<g>
					<polygon class="st11" points="176.8,142 177.3,143.2 178.3,144 177.1,144.5 176.3,145.5 175.8,144.3 174.8,143.5 176,143.1 
											"/>
				</g>
			</g>
		</g>
		<g>
			<g>
				<g>
					<polygon class="st11" points="196.5,128.9 197,130.2 198.1,130.9 196.8,131.4 196.1,132.5 195.6,131.2 194.5,130.5 195.8,130 
											"/>
				</g>
			</g>
		</g>
	</g>
</g>
<g id="Character">
	<g>
		<path class="st10" d="M65.8,68.3c-1.3-1.8-4.2-1.5-5.8,0c-1.6,1.5-2.3,3.7-3.1,5.7s-1.6,4.2-3.5,5.4c2.9-1.2,6.4-3.5,9-4.6
			C65.1,73.8,67.5,70.6,65.8,68.3z"/>
	</g>
	<g>
		<path class="st10" d="M51.9,83.5c1.6-0.8,5.1-1.6,6.9-1.2s3.5,1.4,4.6,2.8c0.3,0.4,0.6,0.9,0.7,1.4c0.1,0.5-0.1,1.1-0.5,1.4
			c-0.4,0.3-0.9,0.3-1.4,0.3c-1.7-0.2-3.1-1.3-4.5-2.4C56.4,84.8,53.6,83.6,51.9,83.5"/>
	</g>
</g>
</svg>
