<?xml version="1.0" encoding="utf-8"?>
<!-- Generator: Adobe Illustrator 22.0.1, SVG Export Plug-In . SVG Version: 6.00 Build 0)  -->
<svg version="1.1" id="Capa_1" xmlns="http://www.w3.org/2000/svg" xmlns:xlink="http://www.w3.org/1999/xlink" x="0px" y="0px"
	 viewBox="0 0 105.3 94.9" style="enable-background:new 0 0 105.3 94.9;" xml:space="preserve">
<style type="text/css">
	.st0{fill:#FFFFFF;}
</style>
<g>
	<g>
		<path class="st0" d="M18.1,47.1h14.7c3.3,0,8.9,1.4,8.9,7.7c0,3.3-2.6,7.1-5.8,7.1H18.1V47.1z M65.3,17.7h26.5v8.9H65.3V17.7z
			 M88.3,47.1H68.8c0.7-5.3,4.6-8.8,9.8-8.8C83.7,38.4,87.4,42,88.3,47.1L88.3,47.1z M68.2,53h32.4c0-0.5,0-1,0-1.5
			c0-12.2-8.8-22-22-22c-13.4,0-22.1,9.8-22.1,22c0,12.3,8.8,22.1,22.1,22.1c13.3,0,19.6-7.6,21.6-17.7H88.3
			c-1.1,5.2-4.2,8.8-9.7,8.8C73,64.8,68.6,59.6,68.2,53L68.2,53z M53.5,56c0-6.4-4.3-11.9-10-13.9c4.2-2.6,7-7.3,7-12.5
			c0-8.2-6.6-14.8-14.7-14.8H6.3v58.9h29.5C45.5,73.7,53.5,65.7,53.5,56L53.5,56z M32.8,38.4H18.1V26.5h14.7c3.3,0,5.9,2.7,5.9,5.9
			C38.7,35.7,36.1,38.4,32.8,38.4L32.8,38.4z"/>
	</g>
</g>
</svg>
