<?xml version="1.0" encoding="utf-8"?>
<!-- Generator: Adobe Illustrator 22.0.1, SVG Export Plug-In . SVG Version: 6.00 Build 0)  -->
<svg version="1.1" id="Capa_1" xmlns="http://www.w3.org/2000/svg" xmlns:xlink="http://www.w3.org/1999/xlink" x="0px" y="0px"
	 viewBox="0 0 105.3 94.9" style="enable-background:new 0 0 105.3 94.9;" xml:space="preserve">
<style type="text/css">
	.st0{fill:#FFFFFF;}
</style>
<g>
	<path class="st0" d="M68.5,80.2H31.8c-8.4,0-15.2-6.8-15.2-15.2V28.3c0-8.4,6.8-15.2,15.2-15.2h36.7c8.4,0,15.2,6.8,15.2,15.2V65
		C83.7,73.3,76.9,80.2,68.5,80.2z M31.8,19.8c-4.7,0-8.5,3.8-8.5,8.5V65c0,4.7,3.8,8.5,8.5,8.5h36.7c4.7,0,8.5-3.8,8.5-8.5V28.3
		c0-4.7-3.8-8.5-8.5-8.5H31.8z M50.2,64.2c-9.6,0-17.3-7.8-17.3-17.3c0-9.6,7.8-17.3,17.3-17.3s17.3,7.8,17.3,17.3
		C67.5,56.4,59.8,64.2,50.2,64.2z M50.2,36.2c-5.9,0-10.7,4.8-10.7,10.7c0,5.9,4.8,10.7,10.7,10.7s10.7-4.8,10.7-10.7
		C60.9,41,56.1,36.2,50.2,36.2z M68.2,25.2c-2.4,0-4.4,2-4.4,4.4c0,2.4,2,4.4,4.4,4.4c2.4,0,4.4-2,4.4-4.4
		C72.6,27.2,70.6,25.2,68.2,25.2z"/>
</g>
</svg>
