<?xml version="1.0" encoding="utf-8"?>
<!-- Generator: Adobe Illustrator 22.0.1, SVG Export Plug-In . SVG Version: 6.00 Build 0)  -->
<svg version="1.1" id="Capa_1" xmlns="http://www.w3.org/2000/svg" xmlns:xlink="http://www.w3.org/1999/xlink" x="0px" y="0px"
	 viewBox="0 0 595.3 442.9" style="enable-background:new 0 0 595.3 442.9;" xml:space="preserve">
<g>
	<g>
		<path d="M270.3,37.1c-70.9-24.7-154-1.6-203.5,54.6c-52,59-63.2,147.6-33.1,219.5c14.4,34.7,38.5,60.7,74.1,73.8
			c36.6,13.2,77.3,12.5,115.5,8.7c32.1-3.2,69.3-9.9,90.2-36.9c21.8-28.2,14.1-67.1-8-92.4c-26.3-30.5-78.9-50.7-119.1-44.6
			c-39.1,5.8-56.5,49.4-30.8,79.9c6.7,8,18-3.5,11.2-11.2c-12.2-14.4-10.3-37.2,6.4-47.5c15.7-9.6,36.9-6.1,53.6-1.6
			c31.4,8.3,65.8,24.1,78.6,56.2c30.2,75.4-76.7,85-125.2,85c-30.5,0-62.6-3.9-89.2-19.9c-27.6-16.7-42.7-46.5-51-76.7
			C22.8,222.2,35.4,150.4,79,102.2c46.2-51,121.3-71.6,186.4-48.8C275.7,55.7,279.9,40.3,270.3,37.1L270.3,37.1z"/>
	</g>
</g>
<g>
	<g>
		<path d="M282.1,146.5c50.4,22.8,74.4,64.2,90.5,115.2c17.3,54.9,24.1,107.8,8.3,164c-2.9,9.9,12.5,14.1,15.4,4.2
			c17.3-61.3,9-118.7-9.9-178.1c-17-52.3-44.6-95.6-96.3-119.1C280.8,128.5,272.8,142.3,282.1,146.5L282.1,146.5z"/>
	</g>
</g>
<g>
	<g>
		<path d="M412.4,295.7c29.5-16.7,64.2,24.1,84.1,41.7c23.7,20.9,47.2,42.4,69.6,64.2c1.3-4.5,2.2-9,3.5-13.5
			c-1.3-0.6-2.6-1.3-3.9-1.9c-5.5-8.7-19.6-0.6-13.8,8c5.5,8.3,12.2,10.9,22.1,9.3c6.1-1,7.7-9.6,3.5-13.5
			c-30.2-29.2-61-57.4-93.1-84.4c-22.5-18.9-50.1-41.4-80.2-24.1C395.4,286.7,403.4,300.9,412.4,295.7L412.4,295.7z"/>
	</g>
</g>
<g>
	<g>
		<path d="M411.5,295.1c10.3,0,10.3-16,0-16C400.9,279,400.9,295.1,411.5,295.1L411.5,295.1z"/>
	</g>
</g>
<g>
	<g>
		<path d="M417.2,293.5c35.3-44,22.5-109.4,13.2-160.4c-1.9-10.3-17.3-5.8-15.4,4.2c8,43.6,21.5,106.9-9,144.7
			C399.6,290.3,410.8,301.5,417.2,293.5L417.2,293.5z"/>
	</g>
</g>
<g>
	<g>
		<path d="M162.8,301.5c10.3,0,10.3-16,0-16C152.2,285.5,152.2,301.5,162.8,301.5L162.8,301.5z"/>
	</g>
</g>
<g>
	<g>
		<path d="M169.8,297.7c8.3-10.9,13.2-24.4,23.1-34c10.3-9.9,24.1-15.4,38.5-16.4c9-0.6,10.9-12.8,2.2-15.7
			c-18.9-5.8-39.1-5.1-57.1,3.5c-15.4,7.4-29.2,20.9-23.4,39.1c1.6,5.1,7.1,7.1,11.9,4.8c4.8-2.2,8.3-5.8,11.6-9.9
			c2.2-3.2,6.1-13.8,9.9-14.8c-2.9-1.3-6.1-2.6-9-3.5c0,0.3,0.3,0.3,0.3,0.6c0-2.6,0-5.5,0-8c0,0.3-0.3,0.3-0.3,0.6
			c-5.5,9,8.3,17,13.8,8c0-0.3,0.3-0.3,0.3-0.6c1.3-2.2,1.6-5.8,0-8c0-0.3-0.3-0.3-0.3-0.6c-1.9-2.9-5.5-4.8-9-3.5
			c-13.2,3.9-13.8,21.2-25.4,26.3c3.9,1.6,7.7,3.2,11.9,4.8c-4.5-14.1,16.4-22.1,26.6-24.4c11.6-2.9,23.1-1.9,34.3,1.6
			c0.6-5.1,1.3-10.6,2.2-15.7c-16,1-30.8,5.8-43.6,15.7c-14.8,11.6-20.9,27.9-31.8,42.7C149.6,298,163.4,306,169.8,297.7
			L169.8,297.7z"/>
	</g>
</g>
<g>
	<g>
		<path d="M224.7,246.3c11.6-0.3,23.1,0.3,34.3,2.2c9.9,1.9,14.4-13.8,4.2-15.4c-12.8-2.2-25.7-3.2-38.5-2.9
			C214.4,230.6,214.4,246.6,224.7,246.3L224.7,246.3z"/>
	</g>
</g>
<g>
	<g>
		<path d="M232.7,245.3h1.6c-0.3,0-0.6,0-1,0c0.3,0,0.6,0.3,1,0.3c0.6-5.1,1.3-10.6,2.2-15.7c-0.6,0-1.3,0-1.9,0
			c-4.2,0.3-8.3,3.5-8,8s3.5,7.7,8,8c1,0,1.9,0,2.6,0c-1.3-5.1-2.6-9.9-4.2-15.1c1-0.6,2.2-1,3.5-0.3c-0.6,5.1-1.3,10.6-2.2,15.7
			c-0.6,0-1.3-0.3-1.9-0.6c1.9-4.8,4.2-9.6,6.1-14.8c-2.9-0.3-5.5-0.6-8,0.3c1.3,5.1,2.9,10.3,4.2,15.4c1-0.3,1.6-0.6,2.6-1
			c3.9-1.6,7.1-5.5,5.5-9.9c-1.3-3.9-5.8-7.1-9.9-5.5c-1,0.3-1.6,0.6-2.6,1c-3.9,1.6-7.1,5.5-5.5,9.9c1.3,3.9,5.5,7.1,9.9,5.5
			c0.3,0,1.9-0.3,0.6-0.3c-0.6,0-0.6,0-0.3,0c0.6,0,0.3,0-0.6-0.3c2.2,0.3,4.2,0.3,6.1-1c1.6-1,2.6-2.2,3.2-3.9
			c1.6-3.5,0.3-8-3.2-9.9c-1.9-1.3-3.9-1.6-6.1-1.6c-3.9-0.3-7.4,3.2-8,7.1c-0.3,3.5,1.9,8.3,5.8,8.7c1.9,0.3,3.2,0.3,5.5,0
			c1.3-0.3,2.2-0.6,3.5-1.3c3.2-1.3,4.8-6.1,3.5-9c-1.3-3.5-4.2-5.8-7.7-5.8c-1,0-1.9,0-2.6,0c0,5.5,0,10.6,0,16c0.6,0,1.3,0,1.9,0
			c4.2-0.3,7.4-2.9,8-7.1c0.6-4.2-1.9-7.4-5.8-8.7c-1.9-0.6-3.9-1-6.1-0.6c-2.2,0.3-4.2,0.6-5.8,2.2c-1.3,1.3-2.6,3.5-2.2,5.8
			C225,241.5,228.2,246,232.7,245.3L232.7,245.3z"/>
	</g>
</g>
<g>
	<g>
		<path d="M570.3,386.5c-9.9,0-18.9-9.6-26-15.1c-6.1-4.8-12.5-9.9-18.3-15.4c-10.6-9.9-13.5-23.1-22.5-33.7
			c-6.7-7.7-18,3.5-11.2,11.2c5.8,6.4,7.7,16.4,13.2,23.4c5.5,7.4,12.5,13.2,19.6,18.9c12.8,10.6,27.9,26.6,45.6,26.6
			C580.6,402.9,580.6,386.9,570.3,386.5L570.3,386.5z"/>
	</g>
</g>
<g>
	<g>
		<path d="M422.7,145.2c10.3,0,10.3-16,0-16S412.4,145.2,422.7,145.2L422.7,145.2z"/>
	</g>
</g>
<g>
	<g>
		<path d="M411.8,137.8c3.5,26,5.1,51.7,13.2,76.7c3.2,9.9,18.6,5.8,15.4-4.2c-8-25-9.6-51-13.2-76.7
			C425.9,123.4,410.5,127.6,411.8,137.8L411.8,137.8z"/>
	</g>
</g>
<g>
	<g>
		<path d="M154.4,142.3c20.5-35,75.4-51,113.3-54.2c43.3-3.5,89.5,10.6,108.8,52.9c4.2,9.3,18,1.3,13.8-8
			c-21.5-46.9-73.8-64.8-122.6-61C224.4,75.6,164,93.9,140.6,134C135.2,143.3,149,151.3,154.4,142.3L154.4,142.3z"/>
	</g>
</g>
</svg>
