<?xml version="1.0" encoding="utf-8"?>
<!-- Generator: Adobe Illustrator 22.0.1, SVG Export Plug-In . SVG Version: 6.00 Build 0)  -->
<svg version="1.1" id="Capa_1" xmlns="http://www.w3.org/2000/svg" xmlns:xlink="http://www.w3.org/1999/xlink" x="0px" y="0px"
	 viewBox="0 0 595.3 841.9" style="enable-background:new 0 0 595.3 841.9;" xml:space="preserve">
<g>
	<g>
		<path d="M241.2,409.9c-22.1-7.7-48-0.5-63.4,17c-16.2,18.4-19.7,46-10.3,68.4c4.5,10.8,12,18.9,23.1,23c11.4,4.1,24.1,3.9,36,2.7
			c10-1,21.6-3.1,28.1-11.5c6.8-8.8,4.4-20.9-2.5-28.8c-8.2-9.5-24.6-15.8-37.1-13.9c-12.2,1.8-17.6,15.4-9.6,24.9
			c2.1,2.5,5.6-1.1,3.5-3.5c-3.8-4.5-3.2-11.6,2-14.8c4.9-3,11.5-1.9,16.7-0.5c9.8,2.6,20.5,7.5,24.5,17.5
			c9.4,23.5-23.9,26.5-39,26.5c-9.5,0-19.5-1.2-27.8-6.2c-8.6-5.2-13.3-14.5-15.9-23.9c-5.4-19.2-1.5-41.6,12.1-56.6
			c14.4-15.9,37.8-22.3,58.1-15.2C242.9,415.7,244.2,410.9,241.2,409.9L241.2,409.9z"/>
	</g>
</g>
<g>
	<g>
		<path d="M244.9,444c15.7,7.1,23.2,20,28.2,35.9c5.4,17.1,7.5,33.6,2.6,51.1c-0.9,3.1,3.9,4.4,4.8,1.3c5.4-19.1,2.8-37-3.1-55.5
			c-5.3-16.3-13.9-29.8-30-37.1C244.5,438.4,242,442.7,244.9,444L244.9,444z"/>
	</g>
</g>
<g>
	<g>
		<path d="M285.5,490.5c9.2-5.2,20,7.5,26.2,13c7.4,6.5,14.7,13.2,21.7,20c0.4-1.4,0.7-2.8,1.1-4.2c-0.4-0.2-0.8-0.4-1.2-0.6
			c-1.7-2.7-6.1-0.2-4.3,2.5c1.7,2.6,3.8,3.4,6.9,2.9c1.9-0.3,2.4-3,1.1-4.2c-9.4-9.1-19-17.9-29-26.3c-7-5.9-15.6-12.9-25-7.5
			C280.2,487.7,282.7,492.1,285.5,490.5L285.5,490.5z"/>
	</g>
</g>
<g>
	<g>
		<path d="M285.2,490.3c3.2,0,3.2-5,0-5C281.9,485.3,281.9,490.3,285.2,490.3L285.2,490.3z"/>
	</g>
</g>
<g>
	<g>
		<path d="M287,489.8c11-13.7,7-34.1,4.1-50c-0.6-3.2-5.4-1.8-4.8,1.3c2.5,13.6,6.7,33.3-2.8,45.1C281.5,488.8,285,492.3,287,489.8
			L287,489.8z"/>
	</g>
</g>
<g>
	<g>
		<path d="M207.7,492.3c3.2,0,3.2-5,0-5C204.4,487.3,204.4,492.3,207.7,492.3L207.7,492.3z"/>
	</g>
</g>
<g>
	<g>
		<path d="M209.9,491.1c2.6-3.4,4.1-7.6,7.2-10.6c3.2-3.1,7.5-4.8,12-5.1c2.8-0.2,3.4-4,0.7-4.9c-5.9-1.8-12.2-1.6-17.8,1.1
			c-4.8,2.3-9.1,6.5-7.3,12.2c0.5,1.6,2.2,2.2,3.7,1.5c1.5-0.7,2.6-1.8,3.6-3.1c0.7-1,1.9-4.3,3.1-4.6c-0.9-0.4-1.9-0.8-2.8-1.1
			c0,0.1,0.1,0.1,0.1,0.2c0-0.8,0-1.7,0-2.5c0,0.1-0.1,0.1-0.1,0.2c-1.7,2.8,2.6,5.3,4.3,2.5c0-0.1,0.1-0.1,0.1-0.2
			c0.4-0.7,0.5-1.8,0-2.5c0-0.1-0.1-0.1-0.1-0.2c-0.6-0.9-1.7-1.5-2.8-1.1c-4.1,1.2-4.3,6.6-7.9,8.2c1.2,0.5,2.4,1,3.7,1.5
			c-1.4-4.4,5.1-6.9,8.3-7.6c3.6-0.9,7.2-0.6,10.7,0.5c0.2-1.6,0.4-3.3,0.7-4.9c-5,0.3-9.6,1.8-13.6,4.9c-4.6,3.6-6.5,8.7-9.9,13.3
			C203.6,491.2,207.9,493.7,209.9,491.1L209.9,491.1z"/>
	</g>
</g>
<g>
	<g>
		<path d="M227,475.1c3.6-0.1,7.2,0.1,10.7,0.7c3.1,0.6,4.5-4.3,1.3-4.8c-4-0.7-8-1-12-0.9C223.8,470.2,223.8,475.2,227,475.1
			L227,475.1z"/>
	</g>
</g>
<g>
	<g>
		<path d="M229.5,474.8c0,0,0.5,0,0.5,0c-0.1,0-0.2,0-0.3,0c0.1,0,0.2,0.1,0.3,0.1c0.2-1.6,0.4-3.3,0.7-4.9c-0.2,0-0.4,0-0.6,0
			c-1.3,0.1-2.6,1.1-2.5,2.5c0.1,1.4,1.1,2.4,2.5,2.5c0.3,0,0.6,0,0.8,0c-0.4-1.6-0.8-3.1-1.3-4.7c0.3-0.2,0.7-0.3,1.1-0.1
			c-0.2,1.6-0.4,3.3-0.7,4.9c-0.2,0-0.4-0.1-0.6-0.2c0.6-1.5,1.3-3,1.9-4.6c-0.9-0.1-1.7-0.2-2.5,0.1c0.4,1.6,0.9,3.2,1.3,4.8
			c0.3-0.1,0.5-0.2,0.8-0.3c1.2-0.5,2.2-1.7,1.7-3.1c-0.4-1.2-1.8-2.2-3.1-1.7c-0.3,0.1-0.5,0.2-0.8,0.3c-1.2,0.5-2.2,1.7-1.7,3.1
			c0.4,1.2,1.7,2.2,3.1,1.7c0.1,0,0.6-0.1,0.2-0.1c-0.2,0-0.2,0-0.1,0c0.2,0,0.1,0-0.2-0.1c0.7,0.1,1.3,0.1,1.9-0.3
			c0.5-0.3,0.8-0.7,1-1.2c0.5-1.1,0.1-2.5-1-3.1c-0.6-0.4-1.2-0.5-1.9-0.5c-1.2-0.1-2.3,1-2.5,2.2c-0.1,1.1,0.6,2.6,1.8,2.7
			c0.6,0.1,1,0.1,1.7,0c0.4-0.1,0.7-0.2,1.1-0.4c1-0.4,1.5-1.9,1.1-2.8c-0.4-1.1-1.3-1.8-2.4-1.8c-0.3,0-0.6,0-0.8,0
			c0,1.7,0,3.3,0,5c0.2,0,0.4,0,0.6,0c1.3-0.1,2.3-0.9,2.5-2.2c0.2-1.3-0.6-2.3-1.8-2.7c-0.6-0.2-1.2-0.3-1.9-0.2
			c-0.7,0.1-1.3,0.2-1.8,0.7c-0.4,0.4-0.8,1.1-0.7,1.8C227.1,473.6,228.1,475,229.5,474.8L229.5,474.8z"/>
	</g>
</g>
<g>
	<g>
		<path d="M334.7,518.8c-3.1,0-5.9-3-8.1-4.7c-1.9-1.5-3.9-3.1-5.7-4.8c-3.3-3.1-4.2-7.2-7-10.5c-2.1-2.4-5.6,1.1-3.5,3.5
			c1.8,2,2.4,5.1,4.1,7.3c1.7,2.3,3.9,4.1,6.1,5.9c4,3.3,8.7,8.3,14.2,8.3C337.9,523.9,337.9,518.9,334.7,518.8L334.7,518.8z"/>
	</g>
</g>
<g>
	<g>
		<path d="M288.7,443.6c3.2,0,3.2-5,0-5C285.5,438.6,285.5,443.6,288.7,443.6L288.7,443.6z"/>
	</g>
</g>
<g>
	<g>
		<path d="M285.3,441.3c1.1,8.1,1.6,16.1,4.1,23.9c1,3.1,5.8,1.8,4.8-1.3c-2.5-7.8-3-15.9-4.1-23.9
			C289.7,436.8,284.9,438.1,285.3,441.3L285.3,441.3z"/>
	</g>
</g>
<g>
	<g>
		<path d="M205.1,442.7c6.4-10.9,23.5-15.9,35.3-16.9c13.5-1.1,27.9,3.3,33.9,16.5c1.3,2.9,5.6,0.4,4.3-2.5
			c-6.7-14.6-23-20.2-38.2-19c-13.5,1.1-32.3,6.8-39.6,19.3C199.1,443,203.4,445.5,205.1,442.7L205.1,442.7z"/>
	</g>
</g>
</svg>
