<?xml version="1.0" encoding="utf-8"?>
<!-- Generator: Adobe Illustrator 22.0.1, SVG Export Plug-In . SVG Version: 6.00 Build 0)  -->
<svg version="1.1" id="Capa_1" xmlns="http://www.w3.org/2000/svg" xmlns:xlink="http://www.w3.org/1999/xlink" x="0px" y="0px"
	 viewBox="0 0 105.3 94.9" style="enable-background:new 0 0 105.3 94.9;" xml:space="preserve">
<style type="text/css">
	.st0{fill:#FFFFFF;}
</style>
<g>
	<path class="st0" d="M92.8,49.9v28H76.6V51.7c0-6.5-2.3-11-8.2-11c-4.5,0-7.1,3-8.3,5.9c-0.4,1-0.5,2.5-0.5,4v27.2H43.4
		c0,0,0.2-44.2,0-48.7h16.2V36c0,0.1-0.1,0.1-0.1,0.2h0.1V36c2.2-3.3,6-8.1,14.6-8.1C84.8,27.9,92.8,34.9,92.8,49.9L92.8,49.9z
		 M26.4,5.6c-5.5,0-9.2,3.6-9.2,8.4c0,4.7,3.5,8.4,9,8.4h0.1c5.7,0,9.2-3.7,9.2-8.4C35.4,9.2,32,5.6,26.4,5.6L26.4,5.6z M18.2,77.8
		h16.2V29.1H18.2V77.8z M18.2,77.8"/>
</g>
</svg>
