<?xml version="1.0" encoding="utf-8"?>
<!-- Generator: Adobe Illustrator 22.0.1, SVG Export Plug-In . SVG Version: 6.00 Build 0)  -->
<svg version="1.1" id="Capa_1" xmlns="http://www.w3.org/2000/svg" xmlns:xlink="http://www.w3.org/1999/xlink" x="0px" y="0px"
	 viewBox="0 0 203.8 153.4" style="enable-background:new 0 0 203.8 153.4;" xml:space="preserve">
<g>
	<g>
		<path d="M94.2,16.9c-22.1-7.7-48-0.5-63.4,17c-16.2,18.4-19.7,46-10.3,68.4c4.5,10.8,12,18.9,23.1,23c11.4,4.1,24.1,3.9,36,2.7
			c10-1,21.6-3.1,28.1-11.5c6.8-8.8,4.4-20.9-2.5-28.8C97.1,78,80.6,71.7,68.2,73.5C56,75.3,50.5,89,58.6,98.4
			c2.1,2.5,5.6-1.1,3.5-3.5c-3.8-4.5-3.2-11.6,2-14.8c4.9-3,11.5-1.9,16.7-0.5c9.8,2.6,20.5,7.5,24.5,17.5
			c9.4,23.5-23.9,26.5-39,26.5c-9.5,0-19.5-1.2-27.8-6.2c-8.6-5.2-13.3-14.5-15.9-23.9c-5.4-19.2-1.5-41.6,12.1-56.6
			C49.2,21,72.6,14.6,92.9,21.7C95.9,22.8,97.2,17.9,94.2,16.9L94.2,16.9z"/>
	</g>
</g>
<g>
	<g>
		<path d="M97.9,51c15.7,7.1,23.2,20,28.2,35.9c5.4,17.1,7.5,33.6,2.6,51.1c-0.9,3.1,3.9,4.4,4.8,1.3c5.4-19.1,2.8-37-3.1-55.5
			c-5.3-16.3-13.9-29.8-30-37.1C97.5,45.4,95,49.7,97.9,51L97.9,51z"/>
	</g>
</g>
<g>
	<g>
		<path d="M138.5,97.5c9.2-5.2,20,7.5,26.2,13c7.4,6.5,14.7,13.2,21.7,20c0.4-1.4,0.7-2.8,1.1-4.2c-0.4-0.2-0.8-0.4-1.2-0.6
			c-1.7-2.7-6.1-0.2-4.3,2.5c1.7,2.6,3.8,3.4,6.9,2.9c1.9-0.3,2.4-3,1.1-4.2c-9.4-9.1-19-17.9-29-26.3c-7-5.9-15.6-12.9-25-7.5
			C133.2,94.8,135.7,99.1,138.5,97.5L138.5,97.5z"/>
	</g>
</g>
<g>
	<g>
		<path d="M138.2,97.4c3.2,0,3.2-5,0-5C135,92.4,135,97.4,138.2,97.4L138.2,97.4z"/>
	</g>
</g>
<g>
	<g>
		<path d="M140,96.8c11-13.7,7-34.1,4.1-50c-0.6-3.2-5.4-1.8-4.8,1.3c2.5,13.6,6.7,33.3-2.8,45.1C134.5,95.8,138,99.4,140,96.8
			L140,96.8z"/>
	</g>
</g>
<g>
	<g>
		<path d="M60.7,99.4c3.2,0,3.2-5,0-5C57.5,94.4,57.5,99.4,60.7,99.4L60.7,99.4z"/>
	</g>
</g>
<g>
	<g>
		<path d="M62.9,98.1c2.6-3.4,4.1-7.6,7.2-10.6c3.2-3.1,7.5-4.8,12-5.1c2.8-0.2,3.4-4,0.7-4.9c-5.9-1.8-12.2-1.6-17.8,1.1
			c-4.8,2.3-9.1,6.5-7.3,12.2c0.5,1.6,2.2,2.2,3.7,1.5c1.5-0.7,2.6-1.8,3.6-3.1c0.7-1,1.9-4.3,3.1-4.6c-0.9-0.4-1.9-0.8-2.8-1.1
			c0,0.1,0.1,0.1,0.1,0.2c0-0.8,0-1.7,0-2.5c0,0.1-0.1,0.1-0.1,0.2c-1.7,2.8,2.6,5.3,4.3,2.5c0-0.1,0.1-0.1,0.1-0.2
			c0.4-0.7,0.5-1.8,0-2.5c0-0.1-0.1-0.1-0.1-0.2c-0.6-0.9-1.7-1.5-2.8-1.1c-4.1,1.2-4.3,6.6-7.9,8.2c1.2,0.5,2.4,1,3.7,1.5
			c-1.4-4.4,5.1-6.9,8.3-7.6c3.6-0.9,7.2-0.6,10.7,0.5c0.2-1.6,0.4-3.3,0.7-4.9c-5,0.3-9.6,1.8-13.6,4.9c-4.6,3.6-6.5,8.7-9.9,13.3
			C56.6,98.2,60.9,100.7,62.9,98.1L62.9,98.1z"/>
	</g>
</g>
<g>
	<g>
		<path d="M80,82.1c3.6-0.1,7.2,0.1,10.7,0.7c3.1,0.6,4.5-4.3,1.3-4.8c-4-0.7-8-1-12-0.9C76.8,77.2,76.8,82.2,80,82.1L80,82.1z"/>
	</g>
</g>
<g>
	<g>
		<path d="M82.5,81.9c0,0,0.5,0,0.5,0c-0.1,0-0.2,0-0.3,0c0.1,0,0.2,0.1,0.3,0.1c0.2-1.6,0.4-3.3,0.7-4.9c-0.2,0-0.4,0-0.6,0
			c-1.3,0.1-2.6,1.1-2.5,2.5c0.1,1.4,1.1,2.4,2.5,2.5c0.3,0,0.6,0,0.8,0c-0.4-1.6-0.8-3.1-1.3-4.7c0.3-0.2,0.7-0.3,1.1-0.1
			c-0.2,1.6-0.4,3.3-0.7,4.9c-0.2,0-0.4-0.1-0.6-0.2c0.6-1.5,1.3-3,1.9-4.6c-0.9-0.1-1.7-0.2-2.5,0.1c0.4,1.6,0.9,3.2,1.3,4.8
			c0.3-0.1,0.5-0.2,0.8-0.3c1.2-0.5,2.2-1.7,1.7-3.1c-0.4-1.2-1.8-2.2-3.1-1.7c-0.3,0.1-0.5,0.2-0.8,0.3c-1.2,0.5-2.2,1.7-1.7,3.1
			c0.4,1.2,1.7,2.2,3.1,1.7c0.1,0,0.6-0.1,0.2-0.1c-0.2,0-0.2,0-0.1,0c0.2,0,0.1,0-0.2-0.1c0.7,0.1,1.3,0.1,1.9-0.3
			c0.5-0.3,0.8-0.7,1-1.2c0.5-1.1,0.1-2.5-1-3.1c-0.6-0.4-1.2-0.5-1.9-0.5c-1.2-0.1-2.3,1-2.5,2.2c-0.1,1.1,0.6,2.6,1.8,2.7
			c0.6,0.1,1,0.1,1.7,0c0.4-0.1,0.7-0.2,1.1-0.4c1-0.4,1.5-1.9,1.1-2.8c-0.4-1.1-1.3-1.8-2.4-1.8c-0.3,0-0.6,0-0.8,0
			c0,1.7,0,3.3,0,5c0.2,0,0.4,0,0.6,0c1.3-0.1,2.3-0.9,2.5-2.2c0.2-1.3-0.6-2.3-1.8-2.7c-0.6-0.2-1.2-0.3-1.9-0.2
			c-0.7,0.1-1.3,0.2-1.8,0.7C80.3,78,80,78.7,80,79.4C80.1,80.6,81.1,82,82.5,81.9L82.5,81.9z"/>
	</g>
</g>
<g>
	<g>
		<path d="M187.7,125.9c-3.1,0-5.9-3-8.1-4.7c-1.9-1.5-3.9-3.1-5.7-4.8c-3.3-3.1-4.2-7.2-7-10.5c-2.1-2.4-5.6,1.1-3.5,3.5
			c1.8,2,2.4,5.1,4.1,7.3c1.7,2.3,3.9,4.1,6.1,5.9c4,3.3,8.7,8.3,14.2,8.3C190.9,130.9,190.9,125.9,187.7,125.9L187.7,125.9z"/>
	</g>
</g>
<g>
	<g>
		<path d="M141.7,50.6c3.2,0,3.2-5,0-5C138.5,45.6,138.5,50.6,141.7,50.6L141.7,50.6z"/>
	</g>
</g>
<g>
	<g>
		<path d="M138.3,48.3c1.1,8.1,1.6,16.1,4.1,23.9c1,3.1,5.8,1.8,4.8-1.3c-2.5-7.8-3-15.9-4.1-23.9C142.7,43.8,137.9,45.2,138.3,48.3
			L138.3,48.3z"/>
	</g>
</g>
<g>
	<g>
		<path d="M58.1,49.7c6.4-10.9,23.5-15.9,35.3-16.9c13.5-1.1,27.9,3.3,33.9,16.5c1.3,2.9,5.6,0.4,4.3-2.5c-6.7-14.6-23-20.2-38.2-19
			C79.8,29,61.1,34.7,53.8,47.2C52.1,50,56.5,52.5,58.1,49.7L58.1,49.7z"/>
	</g>
</g>
</svg>
