<?xml version="1.0" encoding="utf-8"?>
<!-- Generator: Adobe Illustrator 22.0.1, SVG Export Plug-In . SVG Version: 6.00 Build 0)  -->
<svg version="1.1" xmlns="http://www.w3.org/2000/svg" xmlns:xlink="http://www.w3.org/1999/xlink" x="0px" y="0px"
	 viewBox="0 0 416 442.7" style="enable-background:new 0 0 416 442.7;" xml:space="preserve">
<style type="text/css">
	.st0{fill:#5981C1;stroke:#263238;stroke-linecap:round;stroke-linejoin:round;stroke-miterlimit:10;}
	.st1{opacity:0.7;fill:#FFFFFF;}
	.st2{display:none;}
	.st3{fill:none;stroke:#263238;stroke-linecap:round;stroke-linejoin:round;stroke-miterlimit:10;}
	.st4{fill:#FFFFFF;stroke:#263238;stroke-linecap:round;stroke-linejoin:round;stroke-miterlimit:10;}
	.st5{fill:none;stroke:#263238;stroke-width:2;stroke-linecap:round;stroke-linejoin:round;stroke-miterlimit:10;}
	.st6{fill:none;stroke:#263238;stroke-linecap:round;stroke-linejoin:round;}
	.st7{fill:none;stroke:#263238;stroke-linecap:round;stroke-linejoin:round;stroke-dasharray:0.9984,2.9953;}
	.st8{fill:none;stroke:#263238;stroke-linecap:round;stroke-linejoin:round;stroke-dasharray:0.9981,2.9944;}
	.st9{fill:none;stroke:#263238;stroke-linecap:round;stroke-linejoin:round;stroke-dasharray:0.978,2.9341;}
	.st10{fill:none;stroke:#263238;stroke-linecap:round;stroke-linejoin:round;stroke-dasharray:1,3;}
	.st11{fill:#92E3A9;stroke:#263238;stroke-linecap:round;stroke-linejoin:round;stroke-miterlimit:10;}
</style>
<g id="Background_Simple">
	<g>
		<path class="st0" d="M23,379c20.9,24.5,82,63,114.1,60c28.4-2.7,78.4-38.5,97.2-60c1.1-1.2,1.7-2.7,2.6-4.1
			c22.7-34.6,59.1-59.2,98.8-70.8c17.8-5.2,37.1-8.3,51.4-20.1c14.7-12.1,21.5-31.5,24.4-50.3c3.5-22.8,1.6-48.4-13.9-65.5
			c-18.2-20.1-48.7-22.4-72.4-35.6c-40.8-22.7-56.6-74.4-93.7-102.7C208,12,176.4,5.1,148,9c-40.2,5.6-78,32.5-89.4,72
			c-3.2,11-4.4,22.8-3.4,35.4c1.8,23.6,6.9,47.4,2.1,70.5c-5.3,25.5-21.9,47-31.8,71.1c-12.3,30-18.3,64.8-13,96.8
			C14,363.4,17.3,372.4,23,379z"/>
		<path class="st1" d="M22.9,379.6c18.2,24.4,79.3,59.7,109.6,59.9c32.5,0.2,74-34.4,99.9-56.5c1.2-1.1,1.8-2.6,2.7-4
			c22.9-35.6,59.3-62.2,99.4-74.1c18-5.3,37.7-8,52.2-20.2c16.7-14,22.5-31.5,25.4-50.9c3.6-23.5,0.9-49.9-14.7-67.6
			c-18.4-20.7-50.5-20.7-73.9-35.2C283.9,106.7,268.5,55.7,230,28c-19.7-14.2-53.7-25-82.2-20.2C113.5,13.6,70.2,37,58.7,77.6
			c-3.2,11.3-5.7,22.9-4.7,35.9c1.8,24.2,6.2,48.8,2.5,72.8C52.5,211.8,34,235,24,259.8c-12.5,30.8-17,64.6-11.6,97.5
			C13.8,366.2,17.5,372.5,22.9,379.6z"/>
	</g>
</g>
<g id="Floor" class="st2">
</g>
<g id="Graphics">
	<g>
		<path class="st3" d="M233,60.7V45l-11.8-1c-0.7-2.5-1.7-4.8-2.9-7l7.6-9l-11.1-11.1l-9,7.6c-2.2-1.2-4.6-2.2-7-2.9l-1-11.8H182
			l-1,11.8c-2.5,0.7-4.8,1.7-7,2.9l-9-7.6l-11.1,11.1l7.6,9c-1.2,2.2-2.2,4.6-2.9,7l-11.8,1v15.7l11.8,1c0.7,2.5,1.7,4.8,2.9,7
			l-7.6,9l11.1,11.1l9-7.6c2.2,1.2,4.6,2.2,7,2.9l1,11.8h15.7l1-11.8c2.5-0.7,4.8-1.7,7-2.9l9,7.6l11.1-11.1l-7.6-9
			c1.2-2.2,2.2-4.6,2.9-7L233,60.7z M189.9,71.1c-10.1,0-18.2-8.2-18.2-18.2c0-10.1,8.2-18.2,18.2-18.2c10.1,0,18.2,8.2,18.2,18.2
			C208.1,62.9,199.9,71.1,189.9,71.1z"/>
		<path class="st3" d="M401.7,214.2v-7.5l-5.6-0.5c-0.3-1.2-0.8-2.3-1.4-3.4l3.6-4.3l-5.3-5.3l-4.3,3.6c-1.1-0.6-2.2-1.1-3.4-1.4
			l-0.5-5.6h-7.5l-0.5,5.6c-1.2,0.3-2.3,0.8-3.4,1.4l-4.3-3.6l-5.3,5.3l3.6,4.3c-0.6,1.1-1.1,2.2-1.4,3.4l-5.6,0.5v7.5l5.6,0.5
			c0.3,1.2,0.8,2.3,1.4,3.4l-3.6,4.3l5.3,5.3l4.3-3.6c1.1,0.6,2.2,1.1,3.4,1.4l0.5,5.6h7.5l0.5-5.6c1.2-0.3,2.3-0.8,3.4-1.4l4.3,3.6
			l5.3-5.3l-3.6-4.3c0.6-1.1,1.1-2.2,1.4-3.4L401.7,214.2z M381,219.2c-4.8,0-8.7-3.9-8.7-8.7c0-4.8,3.9-8.7,8.7-8.7
			c4.8,0,8.7,3.9,8.7,8.7C389.8,215.2,385.8,219.2,381,219.2z"/>
		<g>
			<path class="st3" d="M396,77.1c0.3-1.5,0.5-3,0.5-4.6c0-11.3-9.2-20.5-20.5-20.5c-1.9,0-3.6,0.3-5.4,0.7c-3.4-6-9.8-10-17.2-10
				c-10.5,0-19,8.2-19.7,18.5c-1-0.2-2-0.3-3-0.3c-8.3,0-15.1,6.2-16,14.3c-4.9,0.1-8.8,4.1-8.8,9c0,5,4,9,9,9h75.3c5,0,9-4,9-9
				C399.3,81.3,398,78.8,396,77.1z"/>
			<g>
				<line class="st3" x1="354.6" y1="86.2" x2="354.6" y2="106.9"/>
				<line class="st3" x1="354.6" y1="73.7" x2="354.6" y2="82"/>
				<line class="st3" x1="354.6" y1="66" x2="354.6" y2="70.4"/>
				<polyline class="st3" points="350.7,104.5 354.6,109.3 358.5,104.5 				"/>
			</g>
		</g>
		<g>
			<path class="st3" d="M166.6,320.5c0.3-1.5,0.5-3,0.5-4.6c0-11.3-9.2-20.5-20.5-20.5c-1.9,0-3.6,0.3-5.4,0.7
				c-3.4-6-9.8-10-17.2-10c-10.5,0-19,8.2-19.7,18.5c-1-0.2-2-0.3-3-0.3c-8.3,0-15.1,6.2-16,14.3c-4.9,0.1-8.8,4.1-8.8,9
				c0,5,4,9,9,9H161c5,0,9-4,9-9C169.9,324.6,168.6,322.1,166.6,320.5z"/>
			<g>
				<line class="st3" x1="125.2" y1="332.5" x2="125.2" y2="311.7"/>
				<line class="st3" x1="125.2" y1="344.9" x2="125.2" y2="336.6"/>
				<line class="st3" x1="125.2" y1="352.7" x2="125.2" y2="348.3"/>
				<polyline class="st3" points="129.2,314.2 125.2,309.3 121.3,314.2 				"/>
			</g>
		</g>
	</g>
</g>
<g id="Interface">
	<g>
		<path class="st0" d="M263.2,73.3H3.2V61.5c0-2.3,1.9-4.2,4.2-4.2h251.5c2.3,0,4.2,1.9,4.2,4.2V73.3z"/>
		<rect x="14.6" y="76.3" class="st4" width="262.7" height="184.9"/>
		<path class="st4" d="M281.4,65.3c0,2.2-1.8,4-4,4s-4-1.8-4-4c0-2.2,1.8-4,4-4S281.4,63.1,281.4,65.3z"/>
		<path class="st4" d="M267.2,65.3c0,2.2-1.8,4-4,4c-2.2,0-4-1.8-4-4c0-2.2,1.8-4,4-4C265.4,61.3,267.2,63.1,267.2,65.3z"/>
		<path class="st4" d="M253,65.3c0,2.2-1.8,4-4,4c-2.2,0-4-1.8-4-4c0-2.2,1.8-4,4-4C251.2,61.3,253,63.1,253,65.3z"/>
		<g>
			<line class="st5" x1="269.4" y1="84.2" x2="259" y2="84.2"/>
			<line class="st5" x1="269.4" y1="88.4" x2="259" y2="88.4"/>
			<line class="st5" x1="269.4" y1="92.7" x2="259" y2="92.7"/>
		</g>
		<g>
			<line class="st5" x1="32.8" y1="193.3" x2="111.5" y2="193.3"/>
			<line class="st5" x1="32.8" y1="199.5" x2="111.5" y2="199.5"/>
			<line class="st5" x1="32.8" y1="205.8" x2="94.9" y2="205.8"/>
		</g>
		<g>
			<g>
				<g>
					<line class="st6" x1="199.8" y1="78.4" x2="199.8" y2="78.9"/>
					<line class="st7" x1="199.8" y1="81.9" x2="199.8" y2="256.1"/>
					<line class="st6" x1="199.8" y1="257.6" x2="199.8" y2="258.1"/>
				</g>
			</g>
			<g>
				<g>
					<line class="st6" x1="17.8" y1="219.7" x2="18.3" y2="219.7"/>
					<line class="st8" x1="21.3" y1="219.7" x2="271.3" y2="219.7"/>
					<line class="st6" x1="272.8" y1="219.7" x2="273.3" y2="219.7"/>
				</g>
			</g>
			<rect x="198" y="218" class="st4" width="3.4" height="3.4"/>
		</g>
		<g>
			<path class="st0" d="M121,5.3H71.7c-1.2,0-2.2,1-2.2,2.2v22.9c0,1.2,1,2.2,2.2,2.2h22.1l2.5,9l2.5-9H121c1.2,0,2.2-1,2.2-2.2V7.5
				C123.1,6.3,122.2,5.3,121,5.3z"/>
			<g>
				<line class="st0" x1="77.7" y1="11.9" x2="114.9" y2="11.9"/>
				<line class="st0" x1="77.7" y1="16.6" x2="114.9" y2="16.6"/>
				<line class="st0" x1="77.7" y1="21.4" x2="114.9" y2="21.4"/>
				<line class="st0" x1="77.7" y1="26.1" x2="105.8" y2="26.1"/>
			</g>
		</g>
		<g>
			<rect x="47.2" y="248.9" class="st0" width="53.7" height="33.6"/>
			<rect x="47.2" y="248.9" class="st0" width="53.7" height="5.1"/>
			<g>
				<line class="st0" x1="52.7" y1="258.3" x2="66.4" y2="258.3"/>
				<line class="st0" x1="59.5" y1="262.2" x2="83.3" y2="262.2"/>
				<line class="st0" x1="56.5" y1="265.7" x2="63.5" y2="265.7"/>
				<line class="st0" x1="59.5" y1="270" x2="75.5" y2="270"/>
				<line class="st0" x1="52.7" y1="273.8" x2="66.4" y2="273.8"/>
			</g>
		</g>
		<g>
			<line class="st3" x1="186" y1="186.6" x2="139.9" y2="186.6"/>
			<path class="st3" d="M186.9,207.9c0,0,0-21.4-23.9-21.4S139,207.9,139,207.9"/>
			<circle class="st0" cx="186.9" cy="207.9" r="2"/>
			<path class="st0" d="M137,207.9c0-1.1,0.9-2,2-2c1.1,0,2,0.9,2,2c0,1.1-0.9,2-2,2C137.9,209.9,137,209,137,207.9z"/>
			<g>
				
					<rect x="185.1" y="184.7" transform="matrix(-1 -1.224647e-16 1.224647e-16 -1 373.7553 372.9312)" class="st0" width="3.5" height="3.5"/>
				
					<rect x="161.2" y="184.7" transform="matrix(-1 -1.224647e-16 1.224647e-16 -1 325.9178 372.9312)" class="st0" width="3.5" height="3.5"/>
				
					<rect x="137.3" y="184.7" transform="matrix(-1 -1.224647e-16 1.224647e-16 -1 278.0803 372.9312)" class="st0" width="3.5" height="3.5"/>
			</g>
		</g>
		<path class="st0" d="M61.4,122.2v-7.1l-5.3-0.5c-0.3-1.1-0.8-2.2-1.3-3.2l3.4-4.1l-5-5l-4.1,3.4c-1-0.6-2.1-1-3.2-1.3l-0.5-5.3
			h-7.1l-0.5,5.3c-1.1,0.3-2.2,0.8-3.2,1.3l-4.1-3.4l-5,5l3.4,4.1c-0.6,1-1,2.1-1.3,3.2l-5.3,0.5v7.1l5.3,0.5
			c0.3,1.1,0.8,2.2,1.3,3.2l-3.4,4.1l5,5l4.1-3.4c1,0.6,2.1,1,3.2,1.3l0.5,5.3h7.1l0.5-5.3c1.1-0.3,2.2-0.8,3.2-1.3l4.1,3.4l5-5
			l-3.4-4.1c0.6-1,1-2.1,1.3-3.2L61.4,122.2z M42,126.9c-4.5,0-8.2-3.7-8.2-8.2c0-4.5,3.7-8.2,8.2-8.2s8.2,3.7,8.2,8.2
			C50.2,123.2,46.6,126.9,42,126.9z"/>
		<path class="st0" d="M85.5,138.1v-4.8l-3.6-0.3c-0.2-0.8-0.5-1.5-0.9-2.2l2.3-2.8l-3.4-3.4l-2.8,2.3c-0.7-0.4-1.4-0.7-2.2-0.9
			l-0.3-3.6h-4.8l-0.3,3.6c-0.8,0.2-1.5,0.5-2.2,0.9l-2.8-2.3l-3.4,3.4l2.3,2.8c-0.4,0.7-0.7,1.4-0.9,2.2l-3.6,0.3v4.8l3.6,0.3
			c0.2,0.8,0.5,1.5,0.9,2.2l-2.3,2.8l3.4,3.4l2.8-2.3c0.7,0.4,1.4,0.7,2.2,0.9l0.3,3.6h4.8l0.3-3.6c0.8-0.2,1.5-0.5,2.2-0.9l2.8,2.3
			l3.4-3.4l-2.3-2.8c0.4-0.7,0.7-1.4,0.9-2.2L85.5,138.1z M72.2,141.3c-3.1,0-5.6-2.5-5.6-5.6s2.5-5.6,5.6-5.6
			c3.1,0,5.6,2.5,5.6,5.6S75.3,141.3,72.2,141.3z"/>
		<g>
			<line class="st5" x1="209.6" y1="231.5" x2="248.4" y2="231.5"/>
			<line class="st5" x1="209.6" y1="237.7" x2="248.4" y2="237.7"/>
			<line class="st5" x1="209.6" y1="244" x2="231.7" y2="244"/>
		</g>
		<path class="st0" d="M158.6,246.6h-20.4c-2.8,0-5-2.2-5-5l0,0c0-2.8,2.2-5,5-5h20.4c2.8,0,5,2.2,5,5l0,0
			C163.6,244.3,161.4,246.6,158.6,246.6z"/>
		<path class="st0" d="M196.6,246.6h-20.4c-2.8,0-5-2.2-5-5l0,0c0-2.8,2.2-5,5-5h20.4c2.8,0,5,2.2,5,5l0,0
			C201.6,244.3,199.4,246.6,196.6,246.6z"/>
		<g>
			<rect x="212.5" y="139.3" class="st4" width="43.2" height="43.2"/>
			<line class="st4" x1="212.5" y1="139.3" x2="255.7" y2="182.5"/>
			<line class="st4" x1="255.7" y1="139.3" x2="212.5" y2="182.5"/>
		</g>
		<g>
			<rect x="249" y="113.6" class="st0" width="53.7" height="33.6"/>
			<rect x="249" y="113.6" class="st0" width="53.7" height="5.1"/>
			<g>
				<line class="st0" x1="254.5" y1="123" x2="268.2" y2="123"/>
				<line class="st0" x1="261.3" y1="126.9" x2="285.1" y2="126.9"/>
				<line class="st0" x1="258.3" y1="130.4" x2="265.3" y2="130.4"/>
				<line class="st0" x1="261.3" y1="134.6" x2="277.3" y2="134.6"/>
				<line class="st0" x1="254.5" y1="138.5" x2="268.2" y2="138.5"/>
			</g>
		</g>
		<g>
			<polygon class="st4" points="229.4,90.2 229.4,100.3 225,104.8 214.9,104.8 214.9,90.2 			"/>
			<polygon class="st4" points="229.4,100.3 225,104.8 225,100.3 			"/>
		</g>
		<g>
			<polygon class="st4" points="74.8,168.2 74.8,178.3 70.3,182.8 60.3,182.8 60.3,168.2 			"/>
			<polygon class="st4" points="74.8,178.3 70.3,182.8 70.3,178.3 			"/>
		</g>
		<g>
			<polygon class="st4" points="19.9,230.4 19.9,240.5 15.4,245 5.3,245 5.3,230.4 			"/>
			<polygon class="st4" points="19.9,240.5 15.4,245 15.4,240.5 			"/>
		</g>
	</g>
</g>
<g id="Character">
	<g>
		<g>
			<g>
				<g>
					<polyline class="st6" points="94.9,89.2 94.9,88.7 95.4,88.7 					"/>
					<line class="st9" x1="98.3" y1="88.7" x2="182.9" y2="88.7"/>
					<polyline class="st6" points="184.4,88.7 184.9,88.7 184.9,89.2 					"/>
					<line class="st10" x1="184.9" y1="92.2" x2="184.9" y2="146.7"/>
					<polyline class="st6" points="184.9,148.2 184.9,148.7 184.4,148.7 					"/>
					<line class="st9" x1="181.5" y1="148.7" x2="96.9" y2="148.7"/>
					<polyline class="st6" points="95.4,148.7 94.9,148.7 94.9,148.2 					"/>
					<line class="st10" x1="94.9" y1="145.2" x2="94.9" y2="90.7"/>
				</g>
			</g>
			<circle class="st11" cx="139.9" cy="88.7" r="1.5"/>
			<circle class="st11" cx="94.9" cy="118.7" r="1.5"/>
			<circle class="st11" cx="139.9" cy="148.7" r="1.5"/>
			<circle class="st11" cx="184.9" cy="118.7" r="1.5"/>
			<rect x="183.2" y="147" class="st11" width="3.4" height="3.4"/>
			<rect x="183.2" y="87" class="st11" width="3.4" height="3.4"/>
			<rect x="93.2" y="147" class="st11" width="3.4" height="3.4"/>
			<rect x="93.2" y="87" class="st11" width="3.4" height="3.4"/>
		</g>
		<g>
			<rect x="100.9" y="94" class="st4" width="78.3" height="49.8"/>
			<polygon class="st0" points="179.2,129.1 170.5,137.8 146.9,114.3 137,124.2 121.2,108.4 100.9,128.7 100.9,143.8 179.2,143.8 
							"/>
			<circle class="st0" cx="163" cy="108.2" r="5.5"/>
		</g>
	</g>
</g>
</svg>
