<?xml version="1.0" encoding="utf-8"?>
<!-- Generator: Adobe Illustrator 22.0.1, SVG Export Plug-In . SVG Version: 6.00 Build 0)  -->
<svg version="1.1" id="Capa_1" xmlns="http://www.w3.org/2000/svg" xmlns:xlink="http://www.w3.org/1999/xlink" x="0px" y="0px"
	 viewBox="0 0 412.3 819.7" style="enable-background:new 0 0 412.3 819.7;" xml:space="preserve">
<style type="text/css">
	.st0{fill:#263239;}
	.st1{fill:#F8BC9E;}
	.st2{fill:#EC9A6E;}
	.st3{fill:#5981C1;}
	.st4{fill:#E5A342;}
	.st5{fill:#E9505B;}
	.st6{fill:#CC8E3A;}
	.st7{fill:#F2B25F;}
	.st8{fill:#8D8CC4;}
	.st9{opacity:0.2;}
	.st10{fill:#FFFFFF;}
	.st11{fill:#455A64;}
	.st12{fill:#E0E0E0;}
	.st13{fill:#FBFBFB;}
	.st14{opacity:0.4;}
	.st15{fill:#010202;}
</style>
<g>
	<g>
		<path class="st0" d="M141.6,534.8c-2.4-0.5-21.6,89.9-19.1,125.1c2.5,35.2,19.1,157.4,19.1,157.4h197.8c0,0,24.7-118.9,20.3-154.9
			c-4.4-36-27.9-130.7-27.9-130.7L141.6,534.8z"/>
		<g>
			<g>
				<g>
					<g>
						<g>
							<g>
								<path class="st1" d="M116.3,363.8L88,236.5l-1.6-21.1c0,0-6.5-47.2-6.5-51.9c-0.1-5.3-2.6-6.6-4.6-6.4
									c-3.1,0.2-5.2,4-5.3,8.6c0,1.6,0.4,26.6,0.4,26.6s-1.2-2.1-4.9-6.7c-3.7-4.6-12.5-7.2-21.4-6.8c-8.9,0.4-11.4,1.3-11.4,4.7
									c0,1.4,0.8,2.5,1.8,3.3c1.6,1.4,3.8,2,5.9,2c14.3-0.4,18.2,7.2,18.2,7.2l0.2,2.8c0,0-8.7-6.1-15.6-3.4c-1.1,0.4-2,1-2.7,1.7
									c-3.8,0.1-7.5,2.2-9.4,5.5c-2,3.4-2,7.9-0.1,11.3c0.9,1.6,2.7,3.1,4.5,2.8c1-0.2,1.8-0.9,2.5-1.6c0.4-0.3,0.8-0.7,1.3-1
									l1.7,7.6c0,0,4.7,17,5.9,24.6l7.6,126.1c1,17.5,16.2,30.7,33.7,29.4h0C107.1,400.3,120.4,382.4,116.3,363.8z"/>
							</g>
						</g>
					</g>
				</g>
				<g>
					<g>
						<g>
							<g>
								<g>
									<path class="st1" d="M83.9,234.9c-2.6,0.7-5.3-1.1-6.8-3.4c-1.4-2.3-2.1-5-3.3-7.4c-3.8-7.2-12.8-10.5-16.3-17.9
										c-0.5-1-0.8-2.4,0.1-3.1c0.8-0.6,2-0.2,2.9,0.3c7.9,4.3,15.8,8.5,23.7,12.8"/>
								</g>
							</g>
						</g>
					</g>
					<g>
						<g>
							<g>
								<g>
									<g>
										<path class="st2" d="M84.3,216.1c0.1-0.1-0.8-0.7-2.4-1.6c-1.6-1-4-2.3-6.9-4c-3-1.7-6.5-3.6-10.3-5.7c-1-0.5-2-1.1-3-1.6
											c-1-0.4-2.1-1.5-3.9-1.1c-0.9,0.2-1.5,1.2-1.5,2c-0.1,0.8,0.1,1.5,0.4,2.2c0.6,1.2,1.2,2.3,2.1,3.4
											c3.3,4.2,7.5,6.8,10.6,9.9c1.6,1.5,2.9,3.1,3.8,4.7c0.9,1.7,1.5,3.4,2.2,5c1.3,3.2,3.6,5.3,5.5,5.8c1.9,0.6,3-0.1,3-0.1
											c0-0.2-1.1,0.3-2.8-0.4c-1.7-0.7-3.6-2.6-4.7-5.7c-0.6-1.5-1.1-3.3-2.1-5.1c-0.9-1.8-2.3-3.6-3.9-5.1
											c-3.2-3.2-7.3-5.9-10.4-9.8c-0.8-1-1.4-2-1.9-3.1c-0.5-1-0.4-2.1,0.2-2.2c0.6-0.2,1.7,0.4,2.7,0.9c1,0.5,2,1.1,3,1.6
											c3.8,2,7.3,3.8,10.4,5.4c3,1.5,5.4,2.7,7.1,3.6C83.3,215.8,84.3,216.2,84.3,216.1z"/>
									</g>
								</g>
							</g>
						</g>
					</g>
				</g>
				<g>
					<g>
						<g>
							<g>
								<g>
									<path class="st2" d="M59.2,198.9c-0.2,0,0.1-2.2-1.7-4.8c-0.9-1.3-2.4-2.5-4.4-3.1c-2-0.7-4.3-0.9-6.8-0.9
										c-2.5,0-4.9,0-7.1-0.5c-2.2-0.5-4-1.4-5.3-2.6c-1.3-1.2-1.6-2.8-1.4-3.7c0.1-0.9,0.4-1.4,0.5-1.4c0.1,0-0.1,0.5-0.1,1.4
										c0,0.9,0.3,2.1,1.5,3.1c1.2,1,2.9,1.8,5,2.2c2.1,0.4,4.4,0.4,6.9,0.4c2.5,0,4.9,0.3,7,1c2.1,0.7,3.8,2.1,4.7,3.6
										c0.9,1.4,1.2,2.8,1.2,3.7C59.4,198.4,59.3,198.9,59.2,198.9z"/>
								</g>
							</g>
						</g>
					</g>
				</g>
				<g>
					<g>
						<g>
							<g>
								<g>
									<path class="st2" d="M70.1,164c0.1,0,0.1,1.9,0.1,5c0,3.4,0,7.5,0,12c0.1,4.5,0.1,8.6,0.2,12c0.1,3.1,0.1,5-0.1,5
										c-0.1,0-0.4-1.9-0.6-4.9c-0.2-3.1-0.4-7.3-0.5-12c0-4.7,0.1-8.9,0.3-12C69.7,165.9,69.9,164,70.1,164z"/>
								</g>
							</g>
						</g>
					</g>
				</g>
				<g>
					<g>
						<g>
							<g>
								<g>
									<path class="st2" d="M53.6,204.6c0,0.1-0.5-0.2-1.5-0.5c-0.9-0.3-2.4-0.9-3.8-0.1c-0.7,0.4-1.2,1.1-1.3,2.1
										c-0.1,1,0.1,2,0.3,3.2c0.2,1.2,0.3,2.6-0.6,3.9c-0.8,1.2-2.3,2-3.8,2c-1.5,0.1-3-0.7-3.9-1.7c-1-1-1.6-2.2-1.9-3.5
										c-0.4-2.4-0.2-4.6,0-6.4c0.3-1.8,0.7-3.2,1.2-4.1c0.5-0.9,1-1.3,1-1.2c0.1,0.1-0.3,0.5-0.7,1.4c-0.4,0.9-0.7,2.3-0.9,4
										c-0.1,1.7-0.2,3.9,0.2,6.1c0.4,2.1,2.4,4.4,4.9,4.3c1.2,0,2.4-0.6,3-1.6c0.6-0.9,0.6-2.1,0.5-3.3c-0.1-1.1-0.3-2.3-0.2-3.5
										c0.1-1.1,0.8-2.2,1.8-2.6c1.9-0.8,3.5,0,4.3,0.4C53.2,204.2,53.7,204.6,53.6,204.6z"/>
								</g>
							</g>
						</g>
					</g>
				</g>
				<g>
					<g>
						<g>
							<g>
								<g>
									<path class="st2" d="M39.5,212.8c0,0,0.2,0.5-0.1,1.4c-0.3,0.9-1.2,2.1-2.9,2.6c-1.7,0.5-3.9,0-5.5-1.6
										c-1.6-1.6-2.5-4-2.5-6.5c0-2.5,0.8-4.9,2.1-6.7c1.3-1.8,2.9-3,4.4-3.6c1.5-0.7,2.8-0.9,3.7-0.9c0.9,0,1.4,0.1,1.4,0.1
										c0,0.2-2,0-4.8,1.4c-1.4,0.7-2.9,1.8-4,3.5c-1.1,1.7-1.9,3.8-1.8,6.2c0,2.3,0.8,4.5,2.2,5.9c1.3,1.4,3.3,1.9,4.7,1.6
										c1.4-0.3,2.3-1.3,2.7-2.1C39.4,213.3,39.4,212.8,39.5,212.8z"/>
								</g>
							</g>
						</g>
					</g>
				</g>
				<g>
					<g>
						<g>
							<g>
								<g>
									<path class="st2" d="M56.9,229.3c0-0.1,0.9-0.3,2.4,0c1.5,0.3,3.6,1.2,5.2,3.1l-0.8,0.3c0.1-1,0.3-2.2,0.5-3.3
										c1.4-6.5,4.9-10.7,5-10.5c0.3,0.2-2.8,4.5-4.1,10.7c-0.2,1.1-0.4,2.2-0.5,3.2l-0.1,1.1l-0.7-0.9c-1.4-1.8-3.3-2.7-4.7-3.1
										C57.7,229.5,56.9,229.4,56.9,229.3z"/>
								</g>
							</g>
						</g>
					</g>
				</g>
				<g>
					<g>
						<g>
							<g>
								<g>
									<path class="st2" d="M55.9,186.8c0.2,0.1-0.7,1.9-2.9,2.9c-2.2,1-4.1,0.5-4.1,0.2c0-0.3,1.8-0.3,3.7-1.1
										C54.5,187.9,55.7,186.6,55.9,186.8z"/>
								</g>
							</g>
						</g>
					</g>
				</g>
			</g>
		</g>
		<path class="st3" d="M343,255.7c10.4,0,35.2,29.4,39.6,74.1c2,20.5,12.2,104.3,17.2,144.5c1.8,14.5-4.5,28.8-16.4,37.4
			c-26.8,19.4-80.4,50-151.7,49.2l-43.2-36.2l140.2-59.1l0.1-3.2l6.1-6.7l-17.5-107.3C317.4,348.4,301.1,255.7,343,255.7z"/>
		<g>
			<g>
				<path class="st4" d="M306.5,66.9c0.5,14.4,19.9,23.3,19.6,37.8c-0.1,6.2-4,11.8-4.7,18c-1,8.3,3.6,16.2,5.3,24.4
					c3.5,16.9-6.3,34.7-20.9,44c-14.6,9.3-32.9,11-50,8.7"/>
			</g>
			<g>
				<g>
					<path class="st4" d="M189.7,63.4c0.6,7.8-4.6,14.8-9.8,20.6c-5.2,5.8-11,11.9-12.1,19.7c-2,13.7,11.4,26.4,8.7,40
						c-1.5,7.3-7.4,13.1-8.5,20.5c-1,7.1,2.8,14.1,7.5,19.5c4.7,5.4,10.2,4.6,14.4,10.5c4.4,6.2,11.5,12.5,18.1,16.1
						c15,8.2,33.1-3.7,40.3-5.8"/>
				</g>
				<g>
					<path class="st4" d="M309.4,75.3c0.2-7.1-6.3-12.5-12.9-15.1c-6.6-2.6-13.9-3.6-19.8-7.5c-5.2-3.5-8.7-8.9-13.1-13.4
						c-10.8-10.9-27.6-15.5-42.4-11.4c-14.8,4-27,16.5-30.8,31.4c-2.5,10.1-0.8,22,7.1,28.7c9.2,7.8,22.9,6,34.7,3.6
						c11.8-2.4,25.2-4.8,35,2.1c5.9,4.2,9.3,11,13,17.3c3.6,6.3,8.2,12.7,15.1,15.1c6.9,2.4,16.2-1.7,16.5-9"/>
				</g>
				<g>
					<g>
						<g>
							<g>
								<g>
									<g>
										<g>
											<g>
												<g>
													<g>
														<g>
															<g>
																<g>
																	<g>
																		<path class="st1" d="M215.5,239.9c-0.1-16.2-0.2-32-0.2-31.9c0,0-25.8-4.3-31-38c-2.6-16.7-1.7-44.1-0.3-66.5
																			c1.3-20.2,14.7-44.9,34.8-42.7l62.7,16c6.1,0.7,10.7,5.9,10.6,12l0,0L286.4,241c-0.7,19.3-16.8,34.5-36.1,34.1
																			l0,0C231,274.8,215.6,259.1,215.5,239.9z"/>
																	</g>
																</g>
															</g>
														</g>
													</g>
												</g>
											</g>
											<g>
												<g>
													<g>
														<g>
															<g>
																<g>
																	<g>
																		<g>
																			<path class="st0" d="M194.7,122.7c-0.1,2.3,1.8,4.2,4.1,4.4c2.4,0.1,4.4-1.6,4.5-3.9c0.1-2.3-1.8-4.2-4.1-4.4
																				C196.8,118.6,194.8,120.4,194.7,122.7z"/>
																		</g>
																	</g>
																</g>
															</g>
														</g>
													</g>
												</g>
												<g>
													<g>
														<g>
															<g>
																<g>
																	<g>
																		<g>
																			<g>
																				<path class="st0" d="M189.9,117.7c0.5,0.6,3.8-1.8,8.4-1.8c4.6,0,8,2.4,8.5,1.8c0.2-0.3-0.3-1.3-1.8-2.4
																					c-1.5-1.1-3.9-2.1-6.8-2.1c-2.9,0-5.3,1.1-6.7,2.2C190.1,116.5,189.7,117.5,189.9,117.7z"/>
																			</g>
																		</g>
																	</g>
																</g>
															</g>
														</g>
													</g>
												</g>
											</g>
											<g>
												<g>
													<g>
														<g>
															<g>
																<g>
																	<g>
																		<g>
																			<path class="st0" d="M239.7,123.8c-0.1,2.3,1.8,4.2,4.1,4.4c2.4,0.1,4.4-1.6,4.5-3.9c0.1-2.3-1.8-4.2-4.1-4.4
																				C241.8,119.8,239.8,121.5,239.7,123.8z"/>
																		</g>
																	</g>
																</g>
															</g>
														</g>
													</g>
												</g>
												<g>
													<g>
														<g>
															<g>
																<g>
																	<g>
																		<g>
																			<g>
																				<path class="st0" d="M235.5,118.7c0.5,0.6,3.8-1.8,8.4-1.8c4.6,0,8,2.4,8.5,1.8c0.2-0.3-0.3-1.3-1.8-2.3
																					c-1.5-1.1-3.9-2.1-6.8-2.1c-2.9,0-5.3,1.1-6.7,2.2C235.7,117.4,235.3,118.4,235.5,118.7z"/>
																			</g>
																		</g>
																	</g>
																</g>
															</g>
														</g>
													</g>
												</g>
											</g>
											<g>
												<g>
													<g>
														<g>
															<g>
																<g>
																	<g>
																		<g>
																			<path class="st0" d="M218.6,153.1c0-0.3-2.9-0.8-7.5-1.4c-1.2-0.1-2.3-0.4-2.5-1.2c-0.3-0.9,0.2-2.1,0.8-3.5
																				c1.1-2.9,2.3-5.9,3.5-9c4.9-12.8,8.4-23.4,7.9-23.6c-0.5-0.2-4.9,10.1-9.8,22.9c-1.2,3.2-2.3,6.2-3.4,9.1
																				c-0.5,1.3-1.2,2.9-0.6,4.6c0.3,0.9,1.2,1.5,1.9,1.7c0.8,0.2,1.4,0.2,2,0.3C215.7,153.3,218.6,153.3,218.6,153.1z
																				"/>
																		</g>
																	</g>
																</g>
															</g>
														</g>
													</g>
												</g>
											</g>
											<g>
												<g>
													<g>
														<g>
															<g>
																<g>
																	<g>
																		<path class="st2" d="M215.3,208c0,0,22.6,1.5,45.1-11.9c-0.4,0.1-12.4,23.4-44.6,19.9L215.3,208z"/>
																	</g>
																</g>
															</g>
														</g>
													</g>
												</g>
											</g>
											<g>
												<g>
													<g>
														<g>
															<g>
																<g>
																	<g>
																		<path class="st5" d="M220.5,164.2c1.7-2.2,4.6-3.4,7.5-3.1c2,0.2,4,1.2,5.3,2.8c1.2,1.6,1.5,4,0.4,5.5
																			c-1.3,1.8-3.9,2.2-6.1,1.5c-2.2-0.6-4.1-2.1-5.9-3.6c-0.5-0.4-1-0.8-1.3-1.4c-0.3-0.6-0.4-1.3,0-1.7"/>
																	</g>
																</g>
															</g>
														</g>
													</g>
												</g>
											</g>
											<g>
												<g>
													<g>
														<g>
															<g>
																<g>
																	<g>
																		<g>
																			<path class="st0" d="M232.3,156.3c-0.8,0-0.8,5-5.1,8.6c-4.3,3.6-9.7,3-9.7,3.7c-0.1,0.3,1.2,1,3.5,1
																				c2.2,0.1,5.5-0.6,8.1-2.8c2.6-2.2,3.8-5.1,3.9-7.2C233.2,157.5,232.6,156.3,232.3,156.3z"/>
																		</g>
																	</g>
																</g>
															</g>
														</g>
													</g>
												</g>
											</g>
										</g>
									</g>
								</g>
								<g>
									<g>
										<g>
											<g>
												<g>
													<g>
														<g>
															<path class="st0" d="M233.5,110.6c0.5,1.3,5.1-1,10.6-0.3c5.5,0.6,9.8,3.8,10.5,2.7c0.3-0.5-0.4-1.7-2.2-3
																c-1.8-1.2-4.6-2.4-7.8-2.8c-3.3-0.4-6.3,0.1-8.2,1C234.3,109,233.3,110,233.5,110.6z"/>
														</g>
													</g>
												</g>
											</g>
										</g>
									</g>
								</g>
								<g>
									<g>
										<g>
											<g>
												<g>
													<g>
														<g>
															<path class="st0" d="M191.7,104.3c0.8,1.1,4-1.2,7.8-1.2c3.8-0.2,7.1,1.9,7.9,0.8c0.3-0.5-0.2-1.6-1.6-2.6
																c-1.4-1-3.7-1.8-6.4-1.7c-2.6,0.1-4.9,1-6.3,2.1C191.7,102.7,191.3,103.8,191.7,104.3z"/>
														</g>
													</g>
												</g>
											</g>
										</g>
									</g>
								</g>
							</g>
						</g>
					</g>
				</g>
				<g>
					<path class="st4" d="M295.8,189.2c-9.2,1.9-10.1-2.8-17-9.3c-6.9-6.4-10.5-16.3-9.3-25.6c1-8.3,5.5-16.7,2.6-24.5
						c-3.8-10.3-18.3-13.5-22.1-23.8c-2.2-6-0.2-13-2.8-18.9c-2.4-5.5-8.2-8.7-13.8-10.7c-5.7-2-11.7-3.5-16.5-7.1
						c-4.7-3.7-7.7-10.7-4.6-15.8c25.1,3,49.8,9,73.5,17.9c5.5,2,11.3,4.5,14.5,9.4c3.4,5.2,3.3,11.8,3,18
						c-1.4,30.2-2.8,60.4-4.2,90.6"/>
				</g>
			</g>
			<g>
				<path class="st4" d="M316.9,120.6c1.1-11.1,10.1-20.9,21-22.9c11-2,22.9,4,27.8,14c4.7,9.5,3.1,21.1-1.3,30.7
					c-5.2,11.5-15.8,21.9-28.4,21.4c-11.8-0.5-21.3-10.9-24.7-22.2c-3.4-11.3-2-23.5-0.6-35.2"/>
			</g>
			<g>
				<g>
					<path class="st6" d="M323.5,166.7c0,0,0.8-0.5,1.8-2c1-1.4,2-3.7,2.5-6.7c0.5-3,0.4-6.7-0.3-10.6c-0.7-4-2-8.1-3-12.5
						c-1-4.4-1.5-8.7-0.7-12.4c0.7-3.7,2.5-6.9,3.2-9.9c0.8-3,0.7-5.6,0.2-7.2c-0.5-1.7-1.3-2.3-1.3-2.3c-0.1,0.1,0.4,0.8,0.8,2.4
						c0.3,1.6,0.3,4-0.6,6.7c-0.9,2.8-2.7,5.9-3.6,9.9c-0.8,4-0.4,8.5,0.6,13c1,4.5,2.4,8.6,3.1,12.4c0.8,3.8,0.9,7.3,0.6,10.2
						C326.1,163.7,323.2,166.5,323.5,166.7z"/>
				</g>
			</g>
			<g>
				<g>
					<path class="st7" d="M324,126.3c-0.1,0.1,1.5,2.4,5.2,5c3.6,2.6,9.6,5.3,16.5,5.4c7,0.1,13-2.4,16.7-4.8
						c3.8-2.5,5.4-4.8,5.3-4.9c-0.2-0.2-2.1,1.8-5.9,4c-3.7,2.2-9.5,4.4-16.1,4.2c-6.6-0.1-12.3-2.5-16-4.8
						C326,128.2,324.2,126.1,324,126.3z"/>
				</g>
			</g>
			<g>
				<g>
					<path class="st7" d="M325.7,131.6c-0.1,0.1,0.7,2.2,2.8,5.3c2.1,3,5.8,6.8,10.7,9.8c4.9,2.9,10,4.4,13.7,4.9c3.7,0.5,6,0.2,6,0
						c0-0.2-2.3-0.3-5.8-1.1c-3.5-0.7-8.3-2.3-13.1-5.1c-4.7-2.9-8.3-6.4-10.6-9.1C327,133.4,325.9,131.4,325.7,131.6z"/>
				</g>
			</g>
			<g>
				<g>
					<path class="st7" d="M317.2,177.9c0,0,0.1-0.1,0.4-0.4c0.2-0.3,0.6-0.7,0.9-1.3c0.8-1.2,1.7-3.2,2.2-5.9
						c0.5-2.7,0.6-6.2-0.5-9.9c-1.1-3.8-3.7-7.8-7.8-10.5c-4-2.8-9.2-4.8-12.5-9.2c-1.6-2.2-2.3-5-1.8-7.9c0.5-2.9,1.8-5.7,2.9-8.7
						c2.6-6,2.6-13.5-0.4-20.1c-1.5-3.2-3.8-6.3-6.8-8.5c-3-2.3-6.7-3.5-10.3-4.3c-3.6-0.8-7.3-1.3-10.6-2.3c-3.4-1-6.6-2.5-8.9-4.9
						c-2.4-2.3-3.4-5.6-3.9-8.8c-0.5-3.3-0.7-6.6-1.6-9.8c-1.6-6.3-4.8-11.9-9.1-15.9c-4.2-4-9.4-6.4-14.3-7.1
						c-4.9-0.8-9.5,0.1-13,2c-3.5,1.8-5.9,4.3-7.5,6.5c-1.6,2.3-2.3,4.3-2.6,5.7c-0.3,1.4-0.3,2.2-0.3,2.2c0.2,0.1,0.3-3.2,3.4-7.5
						c1.6-2.1,4-4.5,7.4-6.1c3.4-1.7,7.8-2.5,12.5-1.7c4.7,0.8,9.6,3,13.6,6.9c4,3.9,7.1,9.3,8.6,15.4c0.8,3,1,6.3,1.5,9.6
						c0.4,3.3,1.6,7,4.2,9.6c2.6,2.6,6,4.2,9.5,5.3c3.5,1.1,7.2,1.5,10.7,2.4c3.5,0.8,7,1.9,9.8,4c2.8,2,4.9,4.9,6.4,7.9
						c2.9,6.2,2.9,13.2,0.5,19c-1.1,3-2.5,5.9-2.9,9c-0.6,3.1,0.3,6.5,2.1,8.8c3.7,4.8,9,6.7,12.9,9.4c4,2.6,6.5,6.3,7.6,9.9
						c1.2,3.6,1.2,7,0.8,9.6C319.2,175.5,317,177.8,317.2,177.9z"/>
				</g>
			</g>
			<g>
				<g>
					<path class="st7" d="M314.5,88.6c0,0,0.3-0.5,0.4-1.6c0.1-1,0-2.7-1.1-4.5c-1-1.7-2.9-3.6-5.6-4.7c-2.8-1.1-6.2-1-9.7-0.3
						c-3.5,0.7-7.2,2.1-11.2,2.8c-3.9,0.8-8.6,0.9-12.2-1.9c-3.6-2.7-5.4-7.4-7.2-12.1c-1.8-4.8-4.3-9.6-7.8-13.8
						c-6.9-8.5-16.1-14.4-25.4-16.5c-4.7-1-9.3-0.9-13.4,0.4c-4.1,1.3-7.5,3.6-9.8,6.4c-2.4,2.8-3.5,6-3.7,8.9
						c-0.2,2.9,0.3,5.4,1.1,7.2c0.8,1.9,1.8,3.1,2.5,3.8c0.7,0.7,1.2,1,1.2,1c0.2-0.1-1.8-1.4-3.2-5.1c-0.7-1.8-1.1-4.2-0.8-6.9
						c0.3-2.7,1.4-5.7,3.7-8.3c2.2-2.6,5.5-4.7,9.4-5.9c3.9-1.1,8.3-1.2,12.8-0.2c8.9,2.1,17.9,7.8,24.6,16
						c3.3,4.2,5.8,8.7,7.6,13.5c1.9,4.6,3.7,9.6,7.7,12.7c2,1.5,4.4,2.3,6.6,2.5c2.3,0.2,4.5-0.1,6.6-0.5c4.1-0.9,7.7-2.3,11.2-3
						c3.4-0.7,6.6-0.8,9.2,0.1c2.6,0.9,4.4,2.6,5.4,4.2c1.1,1.6,1.3,3.1,1.3,4.1C314.6,88,314.4,88.6,314.5,88.6z"/>
				</g>
			</g>
		</g>
		<path class="st3" d="M346,256.2L286.4,241h-71.1c0,0-36.8,2.1-57.4,20.2c-0.6,0.5-6.9,6.3-11.2,18.3l-31.6,72.3l-16.2-90.7
			l-56.7,8.1l9.2,156c3.3,33.2,27.8,60.4,60.4,67.3l32.3-36.3c3.7,29.6,7,55,7.4,54.7c0.8-0.8,176.7-11.5,176.7-11.5l-17.8-60.2
			L346,256.2z"/>
		<g>
			<g>
				<path class="st8" d="M120.6,54.3c0.2-22.5-17.8-40.9-40.2-41.1C57.9,13,39.5,31,39.2,53.5c-0.2,16.3,9.2,30.4,23,37
					c-0.1,4.8-0.1,10.3-0.1,10.3l35.6,0.4c0,0,0.3-5.8,0.4-10.9C111.3,83.6,120.4,70.1,120.6,54.3z"/>
				<g>
					<path class="st0" d="M84.8,100.8c0,0,0-0.2,0-0.5c0-0.3,0.1-0.8,0.2-1.5c0.2-1.3,0.4-3.2,0.8-5.6c0.4-2.4,0.9-5.4,1.7-8.8
						c0.8-3.4,1.9-7.3,3.8-11.3c0.9-2,2-4.1,3.4-6.1c0.7-1,1.6-1.9,2.8-2.5c1.2-0.6,2.7-0.5,3.9,0.2c0.6,0.3,1.1,0.9,1.3,1.6
						c0.2,0.7,0.1,1.5-0.2,2.1c-0.6,1.3-1.9,2.2-3.2,2.7c-2.7,0.9-5.8,0.6-8.4-0.7c-2.7-1.3-4.8-3.9-5.7-6.8
						c-0.4-1.5-0.6-3.1-0.2-4.7c0.4-1.6,1.9-3,3.7-2.8c0.9,0.1,1.7,0.7,2.1,1.5c0.4,0.8,0.5,1.7,0.3,2.5c-0.4,1.7-1.6,2.9-2.9,4
						c-2.6,2.1-6.1,3.2-9.5,2.7c-3.4-0.6-6.4-2.9-7.8-5.9c-0.7-1.5-0.9-3.3-0.2-4.9c0.3-0.8,1-1.5,1.8-1.8c0.8-0.3,1.8-0.1,2.5,0.3
						c0.7,0.4,1.3,1.1,1.7,1.8c0.4,0.7,0.5,1.6,0.6,2.3c0.1,1.6-0.1,3.2-0.7,4.6c-1,2.9-3.2,5.4-5.8,6.8c-2.6,1.4-5.7,1.7-8.4,1.1
						c-1.4-0.3-2.7-0.9-3.6-2c-0.9-1.1-1.1-2.8-0.2-3.9c0.5-0.5,1.2-0.8,1.8-0.9c0.7,0,1.3,0.1,1.9,0.4c1.2,0.6,1.9,1.7,2.5,2.8
						c1,2.2,1.8,4.4,2.6,6.4c3.2,8.2,5.4,15,6.9,19.7c0.7,2.3,1.3,4.2,1.7,5.4c0.2,0.6,0.3,1.1,0.4,1.4c0.1,0.3,0.1,0.5,0.1,0.5
						s-0.1-0.2-0.2-0.5c-0.1-0.3-0.3-0.8-0.5-1.4c-0.4-1.3-1-3.1-1.8-5.4c-1.6-4.7-3.8-11.4-7-19.6c-0.8-2-1.6-4.2-2.6-6.4
						c-0.5-1-1.2-2.1-2.3-2.6c-1-0.5-2.5-0.5-3.3,0.4c-0.8,0.9-0.6,2.4,0.2,3.4c0.8,1,2.1,1.5,3.4,1.8c2.6,0.6,5.6,0.3,8.1-1.1
						c2.5-1.3,4.6-3.7,5.6-6.5c0.5-1.4,0.7-2.9,0.6-4.4c-0.1-1.5-0.7-3-2-3.8c-0.6-0.4-1.4-0.5-2.1-0.2c-0.7,0.2-1.2,0.8-1.5,1.5
						c-0.6,1.4-0.5,3.1,0.2,4.5c1.3,2.9,4.2,5.1,7.4,5.7c3.3,0.6,6.6-0.5,9.1-2.5c1.2-1,2.4-2.2,2.7-3.7c0.2-0.7,0.1-1.5-0.3-2.2
						c-0.3-0.7-1-1.1-1.7-1.2c-0.7-0.1-1.5,0.2-2,0.6c-0.6,0.4-1,1.1-1.2,1.8c-0.4,1.4-0.2,3,0.2,4.4c0.8,2.9,2.9,5.3,5.4,6.6
						c2.5,1.3,5.5,1.5,8.1,0.7c1.2-0.5,2.4-1.3,2.9-2.4c0.6-1.1,0.2-2.6-0.9-3.2c-1-0.6-2.4-0.7-3.5-0.2c-1.1,0.5-2,1.4-2.7,2.3
						c-1.4,1.9-2.5,4-3.4,6c-1.9,4-3,7.8-3.9,11.2c-0.8,3.4-1.4,6.4-1.8,8.8c-0.4,2.4-0.7,4.3-0.9,5.6c-0.1,0.6-0.2,1.1-0.2,1.5
						C84.9,100.7,84.8,100.8,84.8,100.8z"/>
				</g>
				<path class="st0" d="M94.9,107.7l-30.6-0.3c-1.3,0-2.3-1.1-2.3-2.3l0,0c0-1.3,1.1-2.3,2.3-2.3l30.6,0.3c1.3,0,2.3,1.1,2.3,2.3
					l0,0C97.2,106.7,96.2,107.7,94.9,107.7z"/>
				<path class="st0" d="M94.9,109.7l-30.6-0.3c-1.3,0-2.3,1-2.3,2.3c0,1.3,1,2.3,2.3,2.3l3.4,0l4.4,8.5c0.5,1,1.5,1.6,2.6,1.6
					l10.9,0.1c1.1,0,2.1-0.6,2.6-1.6l4.4-8.4l2.3,0c1.3,0,2.3-1,2.3-2.3C97.2,110.7,96.1,109.7,94.9,109.7z"/>
			</g>
			<g class="st9">
				<path class="st10" d="M54,27.7c2.8-2.5,5.6-4.2,8.2-5.3c2.6-1.1,4.7-1.6,6.3-1.8c1.5-0.1,2.4,0,2.5,0.3c0.2,0.7-2.9,1.8-7.1,4.5
					c-4.2,2.7-9.4,7.4-12.6,14c-3.2,6.7-3.5,13.7-3,18.6c0.5,5,1.6,8,1,8.4c-0.3,0.1-1-0.4-1.8-1.7c-0.9-1.3-1.8-3.3-2.6-6
					c-0.8-2.7-1.2-6-1-9.7c0.2-3.7,1.1-7.8,3-11.7"/>
			</g>
			<g class="st9">
				<path class="st10" d="M80.8,22.8c-2.6-0.1-4.8-0.8-5.1-2.1c-0.1-0.7,0.4-1.4,1.3-1.9c0.9-0.6,2.3-0.9,3.9-0.9
					c1.5,0,2.9,0.4,3.8,1c0.9,0.6,1.4,1.3,1.3,2"/>
			</g>
			<g>
				<path class="st11" d="M87.6,123.4c0,0.1-0.8-0.3-2.1-0.7c-1.3-0.4-3.1-0.7-5.2-0.7c-2.1,0-3.9,0.5-5.2,0.9
					c-1.3,0.4-2,0.8-2.1,0.7c0,0,0.7-0.5,1.9-1.1c1.3-0.5,3.2-1,5.3-1.1c2.1,0,4,0.4,5.3,0.9C86.9,122.9,87.6,123.3,87.6,123.4z"/>
			</g>
			<g>
				<path class="st11" d="M92.6,114.4c0,0.1-5.5,0.2-12.4,0.1c-6.8-0.1-12.4-0.2-12.4-0.4c0-0.1,5.5-0.2,12.4-0.1
					C87.1,114.1,92.6,114.2,92.6,114.4z"/>
			</g>
			<g>
				<path class="st11" d="M90.7,118c0,0.1-1.1,0.2-3,0.3c-1.9,0.1-4.4,0.2-7.3,0.2c-2.9,0-5.4-0.1-7.3-0.1c-1.9-0.1-3-0.2-3-0.3
					c0-0.1,1.2-0.1,3-0.1c2,0,4.5,0,7.3,0c2.8,0,5.3,0,7.3,0C89.5,117.9,90.7,117.9,90.7,118z"/>
			</g>
		</g>
		<g>
			<path class="st0" d="M150.7,394.2c0,0-0.8-0.7-1.8-2.2c-1-1.5-2.3-3.9-3.2-7.1c-1.9-6.3-1.7-15.8,1.5-25.3
				c3.2-9.5,7.4-17.4,9.7-23.5c1.2-3,2.1-5.5,2.6-7.2c0.6-1.7,0.9-2.7,1-2.7c0.1,0-0.1,1-0.5,2.8c-0.4,1.8-1.2,4.3-2.3,7.4
				c-2.1,6.2-6.2,14.2-9.3,23.5c-3.1,9.3-3.5,18.5-1.8,24.7C148.1,390.9,150.9,394,150.7,394.2z"/>
		</g>
		<g>
			<path class="st0" d="M315.4,332.6c0,0,0.2,0.4,0.3,1.2c0.2,1,0.4,2.1,0.7,3.6c0.6,3.3,1.4,7.7,2.4,13.1c2,11.1,4.6,26.5,7.4,43.5
				c2.8,17,5.1,32.4,6.7,43.6c0.8,5.6,1.3,10.1,1.7,13.3c0.1,1.5,0.2,2.7,0.3,3.6c0.1,0.8,0.1,1.3,0,1.3c0,0-0.1-0.4-0.3-1.2
				c-0.1-1-0.3-2.1-0.6-3.6c-0.5-3.3-1.2-7.8-2-13.2c-1.8-11.3-4.3-26.6-7-43.5c-2.7-16.9-5.2-32.2-7-43.5c-0.8-5.4-1.5-9.9-2-13.2
				c-0.2-1.4-0.4-2.6-0.5-3.6C315.4,333,315.4,332.6,315.4,332.6z"/>
		</g>
		<g>
			<path class="st0" d="M113.6,396.5c-0.2,0,0.1-2.6,0.4-6.6c0.3-4.1,0.8-9.7,0.9-16c0.2-6.2,0.1-11.9-0.1-16
				c-0.1-4.1-0.2-6.6-0.1-6.7c0.2,0,0.6,2.5,0.9,6.6c0.4,4.1,0.6,9.8,0.4,16.1c-0.2,6.3-0.7,12-1.3,16
				C114.3,394,113.8,396.5,113.6,396.5z"/>
		</g>
		<g>
			<path class="st0" d="M356,471.6c-0.2,0-0.6-1.6-1.7-3.9c-1.1-2.3-3.2-5.3-6.3-7.7c-3.2-2.3-6.6-3.4-9.2-3.8
				c-2.6-0.4-4.2-0.3-4.2-0.5c0-0.1,1.6-0.6,4.3-0.4c2.7,0.2,6.5,1.2,9.8,3.7c3.4,2.5,5.4,5.8,6.4,8.3
				C356.1,469.9,356.1,471.6,356,471.6z"/>
		</g>
		<g>
			<path class="st0" d="M342.9,478.6c-0.3,0.2-2.1-4.1-6.2-7.8c-4-3.8-8.4-5.2-8.2-5.6c0-0.3,4.8,0.7,9.1,4.6
				C341.8,473.9,343.2,478.6,342.9,478.6z"/>
		</g>
		<g>
			<path class="st0" d="M299,478.7c-0.1-0.3,6.6-3.1,14.9-6.7c8.2-3.6,14.8-6.8,15-6.5c0.2,0.3-6.2,4-14.5,7.6
				C306.1,476.7,299.1,479,299,478.7z"/>
		</g>
		<g>
			<g>
				<g>
					<path class="st12" d="M67,378.1c0,0,34.2,163.1,34.2,161c0-1.9,172.8,7.4,203.8,8.8l6.4-1.6l48.8-44.9l-56.1-4.5L284,382.1
						L67,378.1z"/>
					<g>
						<path class="st11" d="M284,382.1c0.3-0.1,6.7,36.7,14.3,82c7.6,45.4,13.4,82.2,13.1,82.2c-0.3,0.1-6.7-36.7-14.3-82
							C289.6,418.9,283.7,382.1,284,382.1z"/>
					</g>
					<g>
						<path class="st11" d="M284.7,382.2c0,0-0.4,0.5-1.2,1.2c-0.8,0.8-2.2,1.8-3.6,3.4c-0.6,0.8-1.4,1.9-1,3
							c0.3,1.3,0.5,2.7,0.8,4.2c0.5,3,1.1,6.5,1.8,10.3c2.6,15.3,6.2,36.3,10.1,59.4c3.8,23.2,7.2,44.1,9.7,59.5
							c1.2,7.5,2.1,13.7,2.8,18.1c0.3,2,0.5,3.7,0.7,4.9c0.1,1.1,0.2,1.7,0.2,1.7c0,0-0.2-0.6-0.4-1.7c-0.2-1.2-0.5-2.9-0.9-4.9
							c-0.8-4.4-1.9-10.5-3.2-18c-2.6-15.3-6.2-36.3-10.1-59.4c-3.8-23.2-7.2-44.1-9.7-59.5c-0.6-3.8-1.1-7.2-1.6-10.3
							c-0.3-1.5-0.4-3-0.7-4.2c-0.4-1.5,0.5-2.7,1.2-3.5c1.5-1.6,2.9-2.6,3.8-3.3C284.2,382.5,284.6,382.1,284.7,382.2z"/>
					</g>
					<g>
						<path class="st11" d="M278.4,388.1c0,0-0.7,0.1-2.1,0.1c-1.5,0-3.5,0-6.1,0c-5.4-0.1-13.1-0.2-22.5-0.3
							c-19.1-0.3-45.2-0.8-74.1-1.3c-28.9-0.5-55-0.9-74.1-1.2c-9.4-0.1-17-0.3-22.5-0.3c-2.6-0.1-4.6-0.1-6.1-0.1
							c-1.4,0-2.1-0.1-2.1-0.1c0,0,0.7-0.1,2.1-0.1c1.5,0,3.5-0.1,6.1-0.1c5.3-0.1,13-0.1,22.5-0.1c19,0.1,45.2,0.4,74.1,0.9
							c28.9,0.5,55.1,1.1,74.1,1.7c9.4,0.3,17,0.5,22.4,0.7c2.6,0.1,4.6,0.2,6.1,0.3C277.6,388,278.4,388.1,278.4,388.1z"/>
					</g>
					<g>
						<path class="st11" d="M304,501.5c0-0.1,1.2-0.1,3.3,0c2.4,0.1,5.4,0.2,9.1,0.4c7.7,0.4,18.3,0.9,30.2,1.7l1.5,0.1l-1.2,1
							c-0.7,0.6-1.4,1.2-2.2,1.9c-9.6,8.1-18.3,15.5-24.7,20.7c-3.1,2.5-5.6,4.6-7.6,6.2c-1.8,1.4-2.8,2.2-2.9,2.1
							c-0.1-0.1,0.9-1,2.6-2.5c1.9-1.7,4.4-3.9,7.3-6.5c6.2-5.4,14.8-12.8,24.4-21c0.8-0.6,1.5-1.3,2.2-1.9l0.4,1.1
							c-11.9-0.7-22.5-1.5-30.2-2c-3.7-0.3-6.7-0.6-9-0.7C305.1,501.7,304,501.6,304,501.5z"/>
					</g>
				</g>
				<path class="st1" d="M153.6,544.1L153.6,544.1l-2.2-26.6c0,0,8.9-1.3,9.5,8.5v-16.4c0,0,10.1-2.2,12.3,11.1
					c2.2,13.3,5.4,20.5,5.4,20.5l5.4,2.9l-5.1-30.7c0,0,10.8,0.9,12.6,11.1c1.9,10.1,4.8,17.2,4.8,17.2l17,4.8c0,0-9.7-8.7-8.8-11.5
					c0.9-2.8,0.3-2.7,2.2-3.1c1.9-0.4,6.2,0.8,9.1,2.4c3.1,1.6,21,12.2,21,12.2v13.1c0,0-41.6,3-51,1.3l-18.2-4.2
					C161,555.1,155.8,550.4,153.6,544.1z"/>
			</g>
			<path class="st13" d="M193.4,456.8c1.2,7-3,13.5-9.2,14.5c-6.3,1-12.3-3.8-13.4-10.8c-1.2-7,3-13.5,9.2-14.5
				C186.2,445,192.2,449.9,193.4,456.8z"/>
		</g>
		<g class="st14">
			<path class="st15" d="M334.8,455.1c7-2.2,14.9-2.3,21.7,0.7c6.8,3,12.2,9.3,13.2,16.7c0.2,1.7,0.2,3.5-0.4,5.1
				c-0.6,1.6-1.8,3-3.5,3.5c-2.6,0.8-5.5-1-7-3.3c-1.5-2.3-2.1-5.1-3.1-7.7c-3.4-8.6-12.3-14.8-21.6-15c0.4,0.1,0.8,0.2,1.1,0.3"/>
		</g>
	</g>
	<path class="st3" d="M209.3,250c1.4-4.5,0.1-9.3-0.6-13.9c-0.8-4.6-0.9-9.9,2.3-13.4c3.1-3.5,8.3-3.9,13-4.1
		c19.2-0.8,38.5-1.7,57.7-2.5c3.9-0.2,8.5-0.1,11,3c1.6,1.9,2.7,4.7,2,7.1c-3,11-2,20.3,2.3,28"/>
	<g>
		<path class="st0" d="M287.5,244.5c0.1,0.1-0.8,0.8-2.5,2.1c-1.7,1.2-4.2,3-7.6,4.8c-6.6,3.6-16.7,7.6-28.3,8.6
			c-5.8,0.6-11.4,0.4-16.4-0.3c-5-0.8-9.4-2.2-12.7-4.1c-3.4-1.8-5.7-4-7-5.7c-0.7-0.8-1.1-1.5-1.4-2c-0.3-0.5-0.4-0.7-0.4-0.8
			c0.2-0.2,2.5,4.3,9.2,7.7c3.3,1.7,7.6,3.1,12.5,3.8c4.9,0.7,10.4,0.8,16.1,0.2c11.4-1.1,21.3-4.8,28-8.2
			C283.7,247.2,287.4,244.3,287.5,244.5z"/>
	</g>
	<g>
		<path class="st0" d="M248.1,260.2c-0.2,0-0.7-2.4-1.5-6.4c-0.8-4-1.7-9.4-2.8-15.5c-0.5-3-0.9-5.9-1.4-8.6
			c-0.4-2.6-0.5-5.2,0.2-7.2c0.7-2,2-3.3,3-3.9c1-0.6,1.7-0.5,1.7-0.5c0,0.1-0.6,0.2-1.5,0.9c-0.9,0.6-1.9,1.9-2.5,3.7
			c-0.5,1.8-0.4,4.2,0.1,6.8c0.5,2.7,0.9,5.5,1.5,8.5c1,6.1,1.8,11.6,2.4,15.6C248,257.7,248.3,260.2,248.1,260.2z"/>
	</g>
	<g>
		<path class="st0" d="M278.1,251.1c-0.2,0-0.6-2-1.1-5.2c-0.5-3.3-1.1-7.8-1.7-12.8c-0.7-5-1-9.6-1.5-12.7
			c-0.3-1.6-1.1-2.6-1.8-3.1c-0.7-0.5-1.2-0.5-1.2-0.6c0-0.1,0.6-0.2,1.5,0.2c0.9,0.4,2,1.6,2.4,3.3c0.7,3.3,1.2,7.8,1.9,12.8
			c0.6,5,1.1,9.5,1.4,12.8C278.2,249,278.3,251.1,278.1,251.1z"/>
	</g>
	<g>
		<path class="st0" d="M223.2,218.6c0.1,0.2-2,0.7-3.9,3.3c-0.9,1.3-1.7,3-2.1,5c-0.4,2-0.4,4.4-0.2,6.8c0.4,4.9,0.9,9.4,1.1,12.6
			c0.2,3.2,0.3,5.3,0.1,5.3c-0.2,0-0.5-2-1-5.2c-0.4-3.2-1-7.7-1.4-12.6c-0.2-2.5-0.2-4.9,0.3-7.1c0.5-2.2,1.5-4,2.6-5.3
			C220.9,218.6,223.2,218.4,223.2,218.6z"/>
	</g>
</g>
</svg>
